<?xml version="1.0" standalone="no"?>
<!DOCTYPE svg PUBLIC "-//W3C//DTD SVG 20010904//EN"
 "http://www.w3.org/TR/2001/REC-SVG-20010904/DTD/svg10.dtd">
<svg version="1.0" xmlns="http://www.w3.org/2000/svg"
 width="300.000000pt" height="171.000000pt" viewBox="0 0 300.000000 171.000000"
 preserveAspectRatio="xMidYMid meet">
<metadata>
Created by potrace 1.10, written by Peter Selinger 2001-2011
</metadata>
<g transform="translate(0.000000,171.000000) scale(0.100000,-0.100000)"
fill="#000000" stroke="none">
<path d="M1308 1703 c6 -2 18 -2 25 0 6 3 1 5 -13 5 -14 0 -19 -2 -12 -5z"/>
<path d="M1575 1641 c-50 -8 -64 -17 -75 -47 -9 -24 -11 -24 -143 -24 -130 0
-133 -1 -165 -27 -31 -26 -33 -32 -33 -93 -1 -58 -3 -67 -22 -75 -13 -6 -23
-21 -25 -35 -2 -25 -3 -365 0 -385 1 -5 -2 -20 -6 -32 -7 -21 -4 -23 34 -23
25 0 39 4 35 10 -3 6 -15 10 -26 10 -29 0 -26 47 4 53 l22 4 -22 2 c-32 2 -29
19 5 24 l27 4 -27 2 c-16 0 -28 5 -28 10 0 5 12 12 28 14 l27 4 -27 2 c-36 1
-40 37 -5 44 l22 4 -22 2 c-32 2 -29 19 5 24 l27 4 -27 2 c-16 0 -28 5 -28 10
0 5 12 12 28 14 l27 4 -27 2 c-25 1 -28 5 -28 35 0 30 4 35 28 39 l27 4 -27 2
c-16 0 -28 5 -28 10 0 5 12 12 28 14 l27 4 -27 2 c-16 0 -28 5 -28 10 0 5 12
12 28 14 l27 4 -27 2 c-21 1 -28 6 -28 20 0 14 8 21 28 24 l27 4 -27 2 c-33 1
-38 21 -5 21 21 0 22 3 19 78 -4 76 -4 77 26 95 25 14 55 17 175 17 l146 0 3
33 c2 26 7 32 25 31 12 0 20 3 17 8 -8 12 214 10 237 -2 21 -12 28 -70 8 -70
-8 0 -8 -4 -1 -13 6 -7 11 -39 11 -71 0 -32 2 -60 5 -64 3 -3 6 45 6 106 0
139 -3 143 -130 141 -47 -1 -103 -4 -125 -8z"/>
<path d="M1585 1600 c7 -12 142 -12 170 0 13 6 -14 9 -78 9 -63 1 -96 -3 -92
-9z"/>
<path d="M870 1591 c-63 -13 -95 -34 -94 -61 5 -86 17 -205 23 -228 10 -39 92
-79 128 -63 20 9 28 9 33 1 4 -7 11 -11 15 -10 4 2 26 -13 49 -32 22 -19 48
-38 56 -43 30 -18 -10 23 -62 62 l-49 38 53 6 53 6 -63 1 c-34 1 -71 -3 -82
-10 -15 -10 -28 -8 -67 8 -56 23 -61 38 -65 191 l-3 96 60 14 c33 8 83 12 110
11 l50 -3 0 -77 c0 -42 3 -74 7 -72 9 6 78 -27 78 -37 0 -4 -4 -10 -9 -13 -15
-10 -24 -87 -12 -99 8 -8 11 2 11 36 0 26 4 47 9 47 5 0 11 8 14 19 3 13 -6
25 -34 42 -37 23 -38 26 -39 82 0 84 -8 94 -77 94 -32 1 -74 -2 -93 -6z"/>
<path d="M891 1545 c1 -19 18 -51 18 -35 0 8 -4 22 -9 30 -5 8 -9 11 -9 5z"/>
<path d="M1614 1538 c-5 -7 -2 -9 8 -6 8 4 21 2 29 -3 12 -8 12 -10 -1 -19
-12 -7 -13 -15 -4 -38 8 -20 8 -35 2 -47 -7 -12 -6 -25 2 -40 12 -22 18 -23
64 -18 82 10 98 23 19 16 l-73 -6 0 26 c0 23 5 26 48 32 71 10 73 13 10 14
-58 1 -58 1 -58 31 0 27 3 30 33 31 17 1 43 5 57 9 19 6 11 8 -32 9 -32 1 -58
6 -58 11 0 14 -37 13 -46 -2z"/>
<path d="M800 1521 c0 -6 10 -13 23 -15 54 -12 60 -15 25 -13 -21 2 -38 -1
-38 -5 0 -11 47 -21 61 -12 8 4 9 3 5 -4 -4 -7 -2 -12 3 -12 6 0 11 14 11 30
0 24 -4 30 -22 30 -13 0 -33 3 -45 6 -14 4 -23 2 -23 -5z"/>
<path d="M1538 1523 c7 -3 16 -2 19 1 4 3 -2 6 -13 5 -11 0 -14 -3 -6 -6z"/>
<path d="M935 1512 c-6 -4 -8 -28 -4 -57 7 -57 12 -50 9 13 -1 39 12 57 23 30
3 -8 6 -6 6 5 1 17 -16 22 -34 9z"/>
<path d="M1342 1503 l77 -4 4 -82 3 -82 2 83 2 82 86 0 c47 0 83 -4 80 -8 -2
-4 0 -14 5 -22 8 -12 9 -9 7 10 l-3 25 -170 1 c-93 0 -135 -1 -93 -3z"/>
<path d="M902 1460 c0 -19 2 -27 5 -17 2 9 2 25 0 35 -3 9 -5 1 -5 -18z"/>
<path d="M1778 1473 c7 -3 16 -2 19 1 4 3 -2 6 -13 5 -11 0 -14 -3 -6 -6z"/>
<path d="M2361 1468 c-41 -4 -84 -15 -97 -23 -22 -14 -23 -20 -22 -145 0 -72
-1 -133 -4 -135 -2 -3 -22 -7 -44 -10 -21 -3 -68 -10 -104 -15 -36 -6 -123
-17 -195 -25 -119 -15 -169 -25 -117 -25 22 0 391 46 445 55 21 3 27 1 27 -13
0 -21 3 -21 200 -27 229 -7 341 -16 378 -31 30 -12 32 -16 32 -63 0 -30 -5
-52 -12 -55 -10 -5 -10 -7 0 -12 13 -6 17 -104 4 -104 -5 0 -6 -27 -4 -59 l4
-59 -58 -8 c-57 -7 -223 0 -296 12 -38 7 -38 7 -38 54 0 29 5 51 13 54 10 5
10 7 0 12 -19 8 -17 93 2 100 20 8 19 17 -6 32 -16 10 -20 10 -18 0 3 -28 -2
-38 -18 -38 -12 0 -14 -3 -7 -8 7 -4 13 -29 15 -57 4 -49 4 -50 -26 -50 -16
-1 -56 5 -90 12 -33 7 -107 23 -165 34 -58 12 -112 22 -120 24 -134 28 -182
36 -190 33 -6 -2 105 -27 247 -56 142 -29 279 -58 305 -63 44 -10 47 -13 42
-35 -4 -14 -1 -31 6 -39 18 -21 10 -20 -175 19 -371 80 -490 108 -504 119 -12
9 -13 9 -7 0 11 -20 -3 -36 -20 -22 -11 9 -14 8 -14 -5 0 -26 -25 -18 -38 12
-8 18 -10 20 -6 5 4 -17 1 -23 -11 -23 -12 0 -15 5 -11 16 5 14 4 15 -8 5 -8
-7 -20 -10 -26 -6 -17 11 8 35 28 28 14 -6 15 -4 5 9 -13 15 -8 28 9 28 5 0 7
-4 3 -9 -3 -5 -1 -12 5 -16 5 -3 10 1 10 10 0 19 -32 34 -38 17 -2 -7 -9 -9
-15 -5 -6 4 -8 0 -4 -10 3 -9 -1 -18 -10 -21 -20 -8 -39 4 -22 15 7 4 10 11 7
14 -13 13 -27 -6 -24 -33 2 -15 6 -25 10 -22 4 3 12 -3 17 -12 5 -9 87 -79
182 -155 l172 -138 -48 -3 c-33 -2 -47 -7 -47 -18 0 -7 -3 -14 -7 -14 -5 0
-69 49 -144 108 -74 59 -155 122 -180 140 l-44 34 35 -32 c19 -18 99 -84 178
-147 l142 -114 -1 -52 c-2 -49 -2 -50 -9 -17 -6 27 -8 29 -9 11 -1 -23 -2 -24
-15 -6 -10 14 -25 18 -62 18 l-49 -1 44 9 c58 11 64 19 14 19 -23 0 -46 -6
-52 -14 -7 -8 -23 -17 -36 -20 -27 -7 -27 -8 -27 -126 0 -85 4 -138 9 -113 5
24 24 22 56 -5 16 -14 17 -14 11 1 -5 14 0 17 35 15 23 -1 46 3 51 8 5 5 11
47 13 94 3 67 3 61 3 -25 l-1 -110 -74 -2 c-91 -3 -108 -13 -22 -13 62 0 62 0
59 -27 -6 -48 18 -52 317 -51 148 0 278 5 288 10 19 10 22 40 7 69 -10 18 -6
19 125 19 124 0 137 2 156 21 20 20 21 29 16 113 -6 119 -5 119 -179 116 -73
0 -142 -2 -153 -3 -17 -2 -20 4 -20 48 0 28 -4 56 -8 63 -6 9 -55 12 -188 12
l-180 0 -37 27 c-20 16 -39 30 -42 34 -3 3 -34 28 -70 55 -110 83 -189 148
-185 153 3 2 11 -2 19 -8 18 -15 81 -12 116 5 21 10 55 5 220 -32 107 -24 203
-44 213 -44 11 0 15 -4 11 -12 -5 -7 -3 -8 5 -3 7 4 31 3 54 -3 23 -6 68 -16
100 -22 61 -12 62 -13 72 -72 4 -29 9 -36 22 -31 14 6 14 7 0 18 -22 16 -12
85 12 85 11 0 12 -3 4 -8 -22 -14 267 -22 330 -9 l37 8 0 -45 c0 -24 -5 -46
-11 -48 -7 -2 -6 -8 3 -16 13 -10 15 -3 17 50 1 33 4 65 7 69 3 5 7 82 10 173
6 210 13 202 -168 221 l-58 6 -1 52 c0 29 -1 99 -2 157 l-2 105 -35 17 c-43
20 -151 27 -249 16z m242 -30 c23 -9 27 -16 27 -52 0 -23 -5 -47 -12 -54 -9
-9 -9 -12 0 -12 17 0 16 -90 0 -91 -10 0 -10 -2 0 -6 7 -3 12 -23 12 -49 0
-35 -4 -44 -17 -45 -17 0 -17 -1 -1 -7 20 -8 -219 -5 -299 4 l-53 5 0 45 c0
27 4 44 12 44 9 0 9 3 0 12 -16 16 -15 85 1 92 10 5 10 7 0 12 -21 9 -17 90 5
100 50 22 267 24 325 2z m-273 -1051 l0 -171 37 -38 c31 -32 35 -40 23 -48
-16 -11 -548 -14 -574 -4 -23 9 -20 18 15 56 45 48 49 66 49 215 l0 136 210
-7 c148 -5 210 -3 210 4 0 7 -34 11 -97 10 -176 -2 -234 0 -229 8 3 5 84 9
180 9 l176 1 0 -171z m-520 -44 l0 -98 -70 -1 -70 -2 0 99 0 99 70 0 70 0 0
-97z m862 73 c9 -13 10 -158 2 -180 -5 -13 -22 -16 -93 -14 l-86 2 75 6 c67 6
60 7 -57 8 -83 1 -133 -2 -133 -8 0 -5 -3 -10 -7 -10 -5 0 -8 46 -8 102 l0
103 150 1 c98 0 153 -3 157 -10z"/>
<path d="M2343 1415 c5 -13 193 -18 215 -6 12 7 -18 11 -101 13 -75 2 -116 -1
-114 -7z"/>
<path d="M2588 1343 c7 -3 16 -2 19 1 4 3 -2 6 -13 5 -11 0 -14 -3 -6 -6z"/>
<path d="M2320 1306 c15 -15 235 -15 250 0 8 8 -25 11 -125 11 -99 0 -133 -3
-125 -11z"/>
<path d="M2325 1200 c4 -6 55 -10 120 -10 65 0 116 4 120 10 4 6 -38 10 -120
10 -82 0 -124 -4 -120 -10z"/>
<path d="M2314 395 c0 -77 2 -107 3 -67 2 40 2 103 0 140 -2 37 -3 4 -3 -73z"/>
<path d="M2000 468 c-19 -23 -29 -39 -22 -34 9 5 12 -6 12 -43 0 -28 5 -51 10
-51 14 0 13 87 -1 96 -8 4 -7 9 2 15 11 7 15 -5 20 -54 l6 -62 1 70 c0 39 3
78 7 88 11 26 3 21 -35 -25z"/>
<path d="M2053 420 c0 -47 2 -66 4 -42 2 23 2 61 0 85 -2 23 -4 4 -4 -43z"/>
<path d="M2152 478 c-18 -18 -15 -25 17 -30 27 -4 28 -3 18 19 -12 26 -18 28
-35 11z"/>
<path d="M2202 465 c9 -20 16 -23 37 -18 14 3 28 8 31 10 9 8 -34 33 -57 33
-20 0 -22 -2 -11 -25z"/>
<path d="M2092 450 c0 -19 2 -27 5 -17 2 9 2 25 0 35 -3 9 -5 1 -5 -18z"/>
<path d="M2130 430 c0 -12 8 -12 35 0 18 8 17 9 -7 9 -16 1 -28 -3 -28 -9z"/>
<path d="M2235 432 c-11 -4 -32 -15 -45 -25 -21 -15 -23 -19 -10 -27 36 -23
99 8 100 48 0 13 -13 14 -45 4z"/>
<path d="M1955 419 c4 -6 7 -26 7 -45 0 -19 4 -34 9 -34 16 0 10 77 -7 84 -9
3 -12 2 -9 -5z"/>
<path d="M2150 410 c-8 -5 -11 -12 -8 -15 4 -4 17 0 30 9 24 17 5 23 -22 6z"/>
<path d="M1938 375 c-2 -19 0 -35 4 -35 4 0 8 16 8 35 0 19 -2 35 -4 35 -2 0
-6 -16 -8 -35z"/>
<path d="M2092 380 c0 -19 2 -27 5 -17 2 9 2 25 0 35 -3 9 -5 1 -5 -18z"/>
<path d="M2111 326 c8 -8 177 -11 185 -3 4 4 -37 7 -91 7 -54 0 -96 -2 -94 -4z"/>
<path d="M1883 235 c0 -13 31 -15 221 -14 122 1 213 3 203 6 -9 2 -15 9 -12
14 4 5 -77 9 -203 9 -179 0 -209 -2 -209 -15z"/>
<path d="M1861 196 c-9 -11 -4 -15 26 -20 21 -3 65 -6 99 -6 33 0 65 -5 70
-10 7 -7 68 -9 162 -8 124 2 150 5 143 16 -6 11 -45 14 -170 13 -122 -1 -161
2 -161 12 0 8 -3 9 -8 1 -9 -14 -75 -17 -66 -3 3 6 -4 5 -16 -3 -18 -11 -23
-11 -34 5 -16 21 -30 22 -45 3z m352 -33 c-13 -2 -35 -2 -50 0 -16 2 -5 4 22
4 28 0 40 -2 28 -4z m75 0 c-10 -2 -26 -2 -35 0 -10 3 -2 5 17 5 19 0 27 -2
18 -5z m55 0 c-7 -2 -19 -2 -25 0 -7 3 -2 5 12 5 14 0 19 -2 13 -5z"/>
<path d="M2270 206 c0 -2 7 -6 15 -10 8 -3 15 -1 15 4 0 6 -7 10 -15 10 -8 0
-15 -2 -15 -4z"/>
<path d="M1755 411 c3 -5 1 -12 -5 -16 -15 -9 -12 -45 3 -45 9 0 14 13 15 35
1 19 -3 35 -9 35 -6 0 -8 -4 -4 -9z"/>
<path d="M1792 375 c0 -16 2 -22 5 -12 2 9 2 23 0 30 -3 6 -5 -1 -5 -18z"/>
<path d="M1710 365 c0 -8 4 -15 8 -15 5 0 9 7 9 15 0 8 -4 15 -9 15 -4 0 -8
-7 -8 -15z"/>
<path d="M1793 300 c0 -25 2 -35 4 -22 2 12 2 32 0 45 -2 12 -4 2 -4 -23z"/>
<path d="M1740 315 c0 -9 6 -12 15 -9 8 4 15 7 15 9 0 2 -7 5 -15 9 -9 3 -15
0 -15 -9z"/>
<path d="M1707 306 c-13 -32 40 -49 64 -20 12 15 10 16 -19 10 -27 -6 -31 -5
-26 8 3 9 2 16 -4 16 -5 0 -12 -6 -15 -14z"/>
<path d="M2578 393 c7 -3 16 -2 19 1 4 3 -2 6 -13 5 -11 0 -14 -3 -6 -6z"/>
<path d="M2401 358 c0 -33 0 -33 12 -8 6 14 16 28 22 32 5 4 0 8 -12 8 -19 0
-23 -5 -22 -32z"/>
<path d="M2612 338 c-2 -56 -2 -57 -34 -61 l-33 -4 33 -1 c39 -2 45 8 39 74
l-3 49 -2 -57z"/>
<path d="M2459 378 c0 -2 -2 -22 -5 -45 -5 -39 -4 -43 15 -43 18 0 21 6 21 45
0 33 -4 45 -15 45 -8 0 -15 -1 -16 -2z m21 -43 c0 -19 -5 -35 -11 -35 -6 0 -8
13 -5 33 5 38 5 37 11 37 3 0 5 -16 5 -35z"/>
<path d="M2538 369 c-27 -15 -22 -47 6 -55 14 -3 30 -3 35 1 17 10 13 52 -5
59 -19 7 -15 8 -36 -5z m28 -31 c-20 -11 -44 1 -25 12 6 5 19 6 27 3 12 -5 12
-7 -2 -15z"/>
<path d="M2422 310 c0 -14 2 -19 5 -12 2 6 2 18 0 25 -3 6 -5 1 -5 -13z"/>
<path d="M853 1453 c10 -3 17 -15 18 -31 1 -15 2 -43 3 -62 3 -49 -2 -59 -27
-52 -28 6 -21 -1 19 -21 l30 -16 -4 87 c-4 85 -12 103 -42 101 -11 -1 -10 -3
3 -6z"/>
<path d="M1510 1435 c0 -22 4 -25 35 -25 31 0 35 3 35 25 0 22 -4 25 -35 25
-31 0 -35 -3 -35 -25z m47 -1 c-3 -3 -12 -4 -19 -1 -8 3 -5 6 6 6 11 1 17 -2
13 -5z"/>
<path d="M902 1400 c0 -14 2 -19 5 -12 2 6 2 18 0 25 -3 6 -5 1 -5 -13z"/>
<path d="M990 1395 c0 -8 2 -15 4 -15 2 0 6 7 10 15 3 8 1 15 -4 15 -6 0 -10
-7 -10 -15z"/>
<path d="M256 1389 c-53 -15 -56 -22 -54 -150 1 -65 0 -120 -3 -123 -2 -3 -17
-7 -33 -10 -16 -3 -33 -9 -38 -14 -9 -9 -12 -146 -4 -197 5 -33 12 -90 21
-177 4 -32 14 -66 23 -76 9 -11 49 -32 87 -47 39 -15 75 -29 80 -31 11 -4 93
55 150 108 15 15 42 33 59 41 33 16 34 16 219 67 64 18 115 35 113 37 -4 4
-164 -36 -289 -72 l-48 -14 3 51 3 52 85 22 c122 32 84 31 -58 -1 -23 -6 -23
-5 -20 97 l3 103 40 -3 c22 -2 96 -12 165 -23 120 -19 251 -33 220 -24 -8 3
-103 18 -210 35 -221 35 -233 38 -224 51 3 6 -2 18 -12 27 -16 15 -41 17 -156
17 -75 0 -134 -3 -131 -7 2 -5 -2 -8 -9 -8 -9 0 -15 14 -16 40 -2 26 1 40 10
40 9 0 9 3 0 12 -16 16 -15 65 1 71 10 4 10 6 0 6 -8 1 -13 15 -13 35 0 29 4
36 31 45 40 14 244 14 270 1 12 -7 19 -21 19 -41 0 -27 -2 -29 -27 -23 l-28 6
25 -14 c23 -13 25 -19 25 -85 l0 -70 227 -33 c125 -17 233 -30 240 -27 9 4 8
6 -2 6 -35 2 -416 60 -431 66 -13 5 -16 25 -17 108 -2 137 -4 140 -158 136
-61 -2 -124 -6 -138 -10z m272 -465 l2 -191 -93 -76 -94 -76 -84 35 c-46 19
-85 37 -87 39 -5 4 -41 354 -42 396 0 25 5 28 83 47 61 15 112 20 197 18 l115
-1 3 -191z"/>
<path d="M438 1103 c7 -3 16 -2 19 1 4 3 -2 6 -13 5 -11 0 -14 -3 -6 -6z"/>
<path d="M355 1085 l-30 -14 30 6 c17 3 39 10 50 14 20 8 20 8 0 8 -11 0 -33
-6 -50 -14z"/>
<path d="M248 1073 c6 -2 18 -2 25 0 6 3 1 5 -13 5 -14 0 -19 -2 -12 -5z"/>
<path d="M300 1049 c0 -5 4 -8 9 -5 14 9 21 -32 22 -139 1 -55 5 -145 9 -200
6 -68 6 -34 3 105 -3 112 -9 215 -14 227 -9 23 -29 32 -29 12z"/>
<path d="M157 1021 c5 -21 35 -28 106 -23 15 1 27 -3 27 -9 0 -8 -19 -10 -65
-5 -52 5 -65 4 -65 -7 0 -9 20 -18 57 -26 83 -16 83 -16 83 28 0 44 -2 46 -92
56 -54 6 -56 5 -51 -14z"/>
<path d="M418 1027 c-27 -10 -28 -14 -30 -91 l-2 -81 -3 78 c-2 42 -7 77 -11
77 -4 0 -6 -19 -6 -43 1 -23 2 -62 3 -86 1 -37 3 -42 16 -31 11 9 16 35 17 89
l2 76 6 -75 6 -75 3 80 c2 59 5 74 11 58 13 -31 17 -29 16 7 -1 16 -1 29 -1
29 0 -1 -12 -6 -27 -12z"/>
<path d="M172 910 c0 -19 2 -27 5 -17 2 9 2 25 0 35 -3 9 -5 1 -5 -18z"/>
<path d="M191 936 c4 -4 19 -9 35 -12 65 -11 64 -10 65 -92 1 -42 3 -93 4
-114 1 -20 -1 -42 -6 -49 -8 -13 -17 -11 -81 22 -12 6 -18 5 -18 -1 0 -10 55
-38 107 -54 21 -7 21 -5 17 76 -10 173 -15 207 -32 212 -35 10 -97 18 -91 12z"/>
<path d="M437 910 c-3 -11 -1 -20 4 -20 5 0 9 9 9 20 0 11 -2 20 -4 20 -2 0
-6 -9 -9 -20z"/>
<path d="M182 770 c0 -19 2 -27 5 -17 2 9 2 25 0 35 -3 9 -5 1 -5 -18z"/>
<path d="M925 1379 c-4 -6 -4 -13 -1 -16 3 -4 6 -1 6 5 0 16 33 15 49 0 10
-11 11 -10 6 5 -8 19 -50 23 -60 6z"/>
<path d="M1191 1169 c1 -123 4 -213 8 -199 7 25 3 411 -5 419 -2 2 -4 -97 -3
-220z"/>
<path d="M1476 1377 c9 -5 38 -7 65 -5 46 3 49 2 49 -21 0 -20 3 -22 12 -13 9
9 10 17 2 30 -9 13 -26 17 -77 17 -41 0 -60 -3 -51 -8z"/>
<path d="M290 1350 c0 -13 170 -13 190 0 10 7 -18 10 -87 10 -62 0 -103 -4
-103 -10z"/>
<path d="M998 1353 c-27 -7 -22 -17 16 -34 30 -14 36 -14 40 -2 9 21 7 30 -2
15 -9 -13 -42 -6 -42 8 0 5 10 11 23 13 18 3 18 4 2 4 -11 1 -28 -1 -37 -4z"/>
<path d="M1462 1328 c2 -17 12 -25 38 -30 29 -6 27 -6 -12 -4 -27 2 -51 -1
-56 -8 -14 -17 -20 -63 -11 -78 6 -8 9 3 9 30 l0 42 48 0 c35 0 52 5 65 20 31
37 22 50 -34 50 -47 0 -50 -2 -47 -22z m76 2 c17 -10 11 -12 -28 -12 -33 0
-40 2 -40 10 0 12 50 13 68 2z"/>
<path d="M1148 1308 c9 -9 15 -9 24 0 9 9 7 12 -12 12 -19 0 -21 -3 -12 -12z"/>
<path d="M1664 1308 c-3 -4 19 -8 48 -7 57 1 55 5 -5 11 -21 2 -40 0 -43 -4z"/>
<path d="M1577 1289 c3 -11 0 -19 -6 -19 -7 0 -9 5 -6 10 13 21 -13 8 -48 -24
-20 -18 -38 -42 -38 -52 -5 -63 -4 -76 2 -80 4 -2 10 0 14 6 3 5 11 10 16 10
5 0 2 -11 -7 -25 -10 -16 -12 -25 -5 -25 6 0 14 7 17 15 4 8 10 12 15 9 5 -3
5 -13 -1 -24 -7 -13 -7 -21 0 -25 6 -3 13 1 16 9 3 9 10 16 15 16 6 0 5 -9 -1
-20 -14 -26 7 -28 26 -2 12 15 13 15 10 -8 -4 -35 -24 -80 -36 -80 -5 0 -10
-4 -10 -10 0 -5 7 -10 15 -10 8 0 15 5 15 10 0 6 8 10 18 11 10 0 12 3 5 6
-15 6 -17 33 -3 33 6 0 10 -4 10 -10 0 -5 9 -10 20 -10 11 0 19 -6 17 -12 -1
-8 10 -13 28 -13 17 0 36 -4 43 -8 18 -12 3 -30 -19 -24 -11 3 -16 1 -13 -5 3
-5 18 -7 32 -3 22 5 24 4 13 -9 -7 -8 -11 -21 -8 -28 4 -8 6 -7 6 4 1 11 6 15
15 12 8 -3 17 -1 21 5 3 6 1 11 -4 11 -17 0 -13 37 5 44 15 6 16 0 11 -37 -6
-43 4 -67 27 -67 6 0 5 5 -2 12 -18 18 -14 30 8 23 11 -4 20 -2 20 4 0 6 -4
11 -10 11 -5 0 -10 5 -10 10 0 6 7 10 15 10 8 0 15 5 15 10 0 6 -7 10 -15 10
-8 0 -15 5 -15 10 0 6 7 10 16 10 8 0 13 4 9 10 -3 5 -12 7 -20 3 -18 -6 -20
8 -3 25 17 17 1 27 -18 11 -15 -12 -16 -11 -10 9 8 24 -3 29 -22 10 -9 -9 -12
-7 -12 12 -1 24 -1 24 -15 6 -13 -17 -15 -18 -15 -3 0 9 -6 17 -12 17 -7 0
-25 6 -40 14 -15 8 -36 12 -48 9 -11 -3 -20 0 -20 6 0 6 9 11 20 11 11 0 20 5
20 10 0 6 -9 10 -19 10 -11 0 -22 4 -26 10 -3 5 -13 6 -23 3 -16 -6 -16 -6 0
11 10 9 22 14 28 11 5 -3 10 -1 10 6 0 7 -8 9 -21 6 -15 -4 -19 -2 -15 9 3 8
-1 14 -12 15 -9 1 -24 2 -32 3 -8 0 -15 9 -16 19 -1 12 -1 13 3 2 7 -23 21
-18 19 8 -1 17 4 21 19 19 38 -6 47 -12 42 -31 -3 -13 3 -23 19 -31 13 -7 21
-16 19 -20 -3 -5 2 -10 10 -14 8 -3 14 -2 14 2 -1 4 -1 14 0 22 1 13 3 13 10
1 5 -8 6 -24 1 -37 -7 -18 -6 -22 4 -18 8 3 17 1 21 -5 3 -6 1 -11 -5 -11 -6
0 -8 -5 -4 -11 5 -8 10 -6 16 5 7 12 5 22 -4 33 -11 15 -11 16 5 10 11 -4 17
-2 17 8 0 9 -6 12 -15 9 -20 -8 -19 6 3 22 16 12 15 13 -7 14 -20 0 -22 3 -13
12 18 18 14 30 -7 23 -16 -5 -18 -2 -14 17 5 19 3 21 -8 11 -16 -15 -33 -17
-24 -3 12 20 -7 32 -21 13 -12 -16 -13 -16 -14 -2 0 9 -6 19 -14 22 -10 4 -12
0 -9 -14z m58 -58 c-3 -5 3 -11 12 -13 16 -3 16 -4 2 -10 -9 -3 -22 -2 -30 3
-12 8 -12 10 1 19 19 12 23 12 15 1z m-125 -25 c0 -3 -4 -8 -10 -11 -5 -3 -10
-1 -10 4 0 6 5 11 10 11 6 0 10 -2 10 -4z m48 -26 c-5 -24 -38 -25 -38 -1 0
14 6 19 20 18 13 -1 19 -7 18 -17z m-58 -10 c0 -5 -5 -10 -11 -10 -5 0 -7 5
-4 10 3 6 8 10 11 10 2 0 4 -4 4 -10z m89 -52 c-9 -17 -11 -17 -34 -2 -14 9
-25 18 -25 19 0 2 15 3 34 2 30 -1 33 -3 25 -19z m68 -30 c5 -7 7 -24 3 -38
-4 -17 -8 -21 -14 -12 -4 7 -5 19 -2 27 3 8 3 15 0 15 -12 0 -21 -46 -12 -57
7 -9 7 -13 0 -13 -16 0 -23 30 -12 51 6 10 8 19 5 19 -4 0 -3 5 0 10 8 14 21
13 32 -2z m37 -23 c3 -8 1 -15 -4 -15 -6 0 -10 7 -10 15 0 8 2 15 4 15 2 0 6
-7 10 -15z m10 -50 c-4 -9 -15 -20 -26 -26 -15 -8 -19 -8 -14 0 4 6 2 11 -3
11 -6 0 -11 5 -11 11 0 5 4 8 9 4 5 -3 12 -1 16 5 10 16 35 12 29 -5z m52 0
c16 -12 17 -16 4 -24 -17 -11 -40 3 -40 25 0 18 11 18 36 -1z"/>
<path d="M268 1293 c6 -2 18 -2 25 0 6 3 1 5 -13 5 -14 0 -19 -2 -12 -5z"/>
<path d="M275 1270 c7 -12 172 -12 200 0 13 6 -21 9 -93 9 -73 1 -111 -3 -107
-9z"/>
<path d="M1560 1240 c-13 -8 -13 -10 2 -10 9 0 20 5 23 10 8 13 -5 13 -25 0z"/>
<path d="M1150 1200 c-13 -8 -12 -10 3 -10 9 0 17 5 17 10 0 12 -1 12 -20 0z"/>
<path d="M280 1190 c18 -11 107 -12 170 -1 36 7 21 9 -70 10 -78 0 -110 -2
-100 -9z"/>
<path d="M1140 1176 c0 -2 7 -6 15 -10 8 -3 15 -1 15 4 0 6 -7 10 -15 10 -8 0
-15 -2 -15 -4z"/>
<path d="M1401 1086 c-1 -29 2 -37 10 -29 8 8 8 19 1 40 -10 28 -10 28 -11
-11z"/>
<path d="M2328 1083 c6 -2 18 -2 25 0 6 3 1 5 -13 5 -14 0 -19 -2 -12 -5z"/>
<path d="M2505 1080 c3 -5 14 -10 23 -10 15 0 15 2 2 10 -20 13 -33 13 -25 0z"/>
<path d="M1028 1073 c6 -2 18 -2 25 0 6 3 1 5 -13 5 -14 0 -19 -2 -12 -5z"/>
<path d="M2040 1047 c-113 -17 -197 -33 -187 -35 10 -2 102 8 204 23 150 22
187 25 194 14 4 -7 5 -17 3 -21 -3 -4 3 -5 12 -1 11 4 13 8 6 11 -7 2 -12 12
-12 23 0 10 -3 19 -7 18 -5 -1 -100 -15 -213 -32z"/>
<path d="M2459 1068 c-1 -7 -2 -20 -3 -28 -1 -11 -18 -17 -66 -21 -63 -5 -63
-6 -15 -7 28 -1 60 -5 71 -8 19 -5 22 -1 26 35 2 23 0 41 -4 41 -5 0 -9 -6 -9
-12z"/>
<path d="M1150 1060 c0 -5 5 -10 10 -10 6 0 10 5 10 10 0 6 -4 10 -10 10 -5 0
-10 -4 -10 -10z"/>
<path d="M1459 1053 c-1 -5 -1 -12 0 -17 1 -5 -5 -4 -13 3 -10 8 -20 9 -32 3
-11 -6 -13 -11 -5 -16 6 -4 11 -2 11 4 0 6 7 4 16 -5 9 -9 23 -14 31 -11 9 4
11 2 6 -7 -10 -16 -13 -37 -5 -35 4 0 22 -3 40 -7 22 -5 31 -12 28 -21 -3 -7
0 -16 6 -20 8 -5 9 2 5 24 -4 20 -1 34 8 42 22 19 18 32 -7 24 -20 -6 -21 -5
-9 10 15 18 1 22 -17 4 -9 -9 -12 -7 -12 13 -1 23 -1 23 -15 5 -13 -17 -15
-18 -15 -3 0 16 -19 25 -21 10z m68 -63 c13 0 14 -3 6 -11 -17 -17 -43 -3 -43
23 1 20 2 21 11 6 5 -10 17 -18 26 -18z"/>
<path d="M2556 1051 c-6 -8 98 -21 169 -20 22 0 54 6 70 14 27 12 18 13 -102
14 -72 1 -134 -3 -137 -8z"/>
<path d="M1370 1005 c-14 -17 -7 -45 12 -45 9 0 9 3 0 12 -17 17 -15 31 3 24
8 -3 15 -1 15 4 0 17 -18 20 -30 5z"/>
<path d="M1018 993 c6 -2 18 -2 25 0 6 3 1 5 -13 5 -14 0 -19 -2 -12 -5z"/>
<path d="M1411 953 c0 -13 2 -14 6 -4 5 11 7 11 14 0 7 -11 9 -10 9 4 0 9 -7
17 -15 17 -8 0 -15 -8 -14 -17z"/>
<path d="M2538 963 c12 -2 30 -2 40 0 9 3 -1 5 -23 4 -22 0 -30 -2 -17 -4z"/>
<path d="M2808 963 c7 -3 16 -2 19 1 4 3 -2 6 -13 5 -11 0 -14 -3 -6 -6z"/>
<path d="M1475 950 c3 -5 8 -10 11 -10 2 0 4 5 4 10 0 6 -5 10 -11 10 -5 0 -7
-4 -4 -10z"/>
<path d="M1580 951 c-14 -6 -26 -31 -14 -31 8 0 37 30 33 34 -2 2 -11 1 -19
-3z"/>
<path d="M1382 941 c-11 -6 -9 -9 6 -13 15 -4 19 -2 15 8 -6 16 -4 16 -21 5z"/>
<path d="M1615 940 c-3 -5 -1 -10 4 -10 6 0 11 5 11 10 0 6 -2 10 -4 10 -3 0
-8 -4 -11 -10z"/>
<path d="M2525 935 c45 -25 221 -33 261 -12 28 16 24 16 -97 17 -70 0 -142 3
-160 6 l-34 6 30 -17z"/>
<path d="M2388 933 c7 -3 16 -2 19 1 4 3 -2 6 -13 5 -11 0 -14 -3 -6 -6z"/>
<path d="M908 923 c6 -2 18 -2 25 0 6 3 1 5 -13 5 -14 0 -19 -2 -12 -5z"/>
<path d="M1420 922 c0 -4 9 -13 21 -20 32 -20 17 -24 -25 -7 -21 9 -35 12 -32
6 3 -5 0 -11 -6 -14 -7 -2 -10 -8 -5 -12 4 -5 13 -3 19 3 7 7 16 12 21 12 5 0
1 -7 -7 -16 -21 -21 -10 -40 12 -21 10 8 25 17 35 20 14 5 16 11 8 26 -11 19
-41 36 -41 23z"/>
<path d="M1190 908 c0 -5 41 -8 92 -8 50 0 89 3 85 6 -8 9 -177 10 -177 2z"/>
<path d="M1495 910 c-3 -5 1 -10 10 -10 9 0 13 5 10 10 -3 6 -8 10 -10 10 -2
0 -7 -4 -10 -10z"/>
<path d="M1550 890 c0 -5 5 -10 11 -10 5 0 7 5 4 10 -3 6 -8 10 -11 10 -2 0
-4 -4 -4 -10z"/>
<path d="M738 883 c7 -3 16 -2 19 1 4 3 -2 6 -13 5 -11 0 -14 -3 -6 -6z"/>
<path d="M1520 870 c0 -5 5 -10 11 -10 5 0 7 5 4 10 -3 6 -8 10 -11 10 -2 0
-4 -4 -4 -10z"/>
<path d="M1430 844 c0 -8 5 -14 10 -14 6 0 10 5 10 11 0 8 6 7 17 -2 13 -11
17 -11 20 -1 3 6 9 10 14 6 5 -3 9 -1 9 3 0 5 -18 9 -40 9 -28 1 -40 -3 -40
-12z"/>
<path d="M2528 843 c7 -3 16 -2 19 1 4 3 -2 6 -13 5 -11 0 -14 -3 -6 -6z"/>
<path d="M2808 843 c7 -3 16 -2 19 1 4 3 -2 6 -13 5 -11 0 -14 -3 -6 -6z"/>
<path d="M2530 811 c21 -12 183 -23 225 -15 67 12 34 19 -102 22 -82 1 -132
-2 -123 -7z"/>
<path d="M1165 764 c-15 -25 -24 -48 -22 -51 3 -3 17 18 31 46 33 63 27 67 -9
5z"/>
<path d="M1295 739 c-4 -6 -5 -12 -2 -15 2 -3 7 2 10 11 7 17 1 20 -8 4z"/>
<path d="M870 723 c-25 -3 -52 -11 -61 -19 -12 -10 -23 -11 -50 -4 -46 14
-127 10 -141 -7 -7 -9 -10 -57 -9 -133 1 -102 -1 -120 -14 -120 -8 0 -15 -4
-15 -9 0 -5 -8 -12 -18 -15 -41 -13 -59 -90 -32 -134 l18 -30 -34 -5 c-55 -9
-88 -55 -79 -109 7 -39 19 -55 58 -74 32 -17 81 -11 109 13 15 14 20 13 44 -6
29 -23 68 -27 107 -12 20 8 29 6 43 -10 23 -26 43 -24 118 10 l64 29 25 -26
26 -25 50 21 c27 12 56 22 64 22 28 0 36 46 41 233 4 141 9 194 21 217 30 57
84 180 80 180 -3 0 -27 -44 -55 -97 l-49 -98 4 60 c4 44 3 53 -4 33 -5 -15 -9
-62 -9 -105 0 -43 -4 -149 -7 -235 l-8 -157 -63 -27 c-35 -15 -66 -25 -67 -23
-2 2 -18 25 -36 51 l-32 47 7 231 7 231 -29 -7 c-16 -4 -33 -10 -39 -14 -27
-20 -53 -17 -64 6 -6 13 -17 24 -26 24 -8 0 -15 4 -15 8 0 4 -17 8 -37 9 l-38
0 53 -24 52 -24 0 -270 c0 -148 3 -269 6 -269 3 0 14 5 25 10 25 14 29 113 4
104 -14 -6 -15 16 -13 177 l3 184 27 3 c21 3 27 9 30 30 2 19 10 28 26 30 21
3 22 1 18 -60 -5 -63 -6 -342 -3 -407 2 -33 -1 -35 -60 -62 l-63 -28 -25 37
c-27 39 -32 58 -13 46 7 -5 9 -2 5 9 -3 9 -1 18 6 21 9 3 8 8 -3 15 -10 7 -11
11 -2 11 6 0 12 4 12 10 0 5 -8 6 -17 3 -16 -6 -17 -5 -3 12 14 17 13 18 -4
12 -14 -5 -17 -3 -13 8 4 8 2 17 -3 20 -4 3 -11 -1 -13 -7 -3 -8 -6 -6 -6 5
-1 20 -17 23 -24 5 -4 -10 -6 -10 -6 0 -1 6 -6 12 -12 12 -5 0 -8 -4 -4 -9 3
-5 1 -12 -5 -16 -5 -3 -10 0 -10 8 0 8 -8 21 -17 28 -15 12 -16 12 -8 -1 5 -8
11 -24 12 -35 3 -17 1 -16 -13 5 -10 14 -18 26 -19 28 -1 1 -13 5 -25 7 -13 3
-28 10 -34 16 -8 9 -7 10 6 6 13 -5 17 -2 15 11 -4 29 -19 44 -37 39 -11 -3
-21 2 -24 10 -9 23 -7 29 5 13 9 -12 10 -10 6 8 -4 18 -2 22 9 18 8 -3 14 1
14 9 0 18 20 20 21 3 0 -7 4 -4 9 7 8 19 9 19 9 -2 1 -12 6 -25 11 -28 6 -4 8
-10 5 -14 -2 -5 7 -7 20 -5 14 1 25 -2 25 -7 0 -5 -7 -9 -16 -9 -8 0 -13 -4
-9 -10 3 -5 13 -6 21 -3 13 5 15 0 12 -23 -2 -21 1 -29 12 -29 8 0 15 5 15 10
0 6 4 16 8 23 5 7 4 12 -2 12 -6 0 -7 7 -4 17 5 11 3 14 -6 8 -10 -5 -11 -2
-6 14 5 16 3 20 -9 15 -13 -5 -15 -2 -9 12 6 17 5 17 -10 5 -15 -12 -17 -11
-17 4 0 14 -3 15 -15 5 -15 -13 -16 0 -19 237 l-1 38 53 3 c31 2 72 -3 99 -12
26 -9 48 -16 49 -16 1 0 0 8 -3 19 -4 16 3 19 49 24 42 4 79 -2 176 -30 68
-19 126 -32 129 -29 4 3 -8 9 -25 12 -28 6 -30 9 -21 28 11 20 10 20 -6 5 -16
-15 -22 -15 -83 1 -37 10 -80 23 -95 29 -16 6 -29 10 -30 9 -1 -1 -22 -3 -47
-5z m30 -153 c0 -5 -5 -10 -11 -10 -5 0 -7 5 -4 10 3 6 8 10 11 10 2 0 4 -4 4
-10z m-326 -251 c4 6 13 11 19 11 7 -1 6 -5 -4 -13 -8 -7 -21 -21 -28 -32 -12
-20 -12 -19 -8 2 3 15 1 20 -9 16 -8 -3 -14 -1 -14 5 0 14 24 21 31 9 4 -5 9
-5 13 2z m10 -51 c-5 -8 -2 -9 9 -5 12 5 17 1 17 -13 0 -18 -3 -19 -20 -8 -21
14 -27 38 -9 38 5 0 7 -5 3 -12z m76 -60 c0 -5 3 -7 8 -7 4 1 16 1 27 0 17 -1
18 -3 5 -11 -12 -8 -10 -10 10 -11 22 0 23 -1 6 -8 -19 -7 -18 -8 4 -14 20 -5
22 -9 12 -19 -18 -18 -15 -31 5 -20 11 7 21 6 30 -3 15 -16 17 -29 3 -20 -5 3
-10 1 -10 -5 0 -7 -6 -10 -14 -7 -8 3 -17 1 -20 -6 -5 -9 -8 -8 -12 2 -5 11
-8 11 -15 0 -8 -12 -10 -12 -18 -1 -4 8 -12 14 -17 14 -5 0 -8 4 -7 9 2 4 -4
6 -13 2 -13 -5 -15 -2 -9 17 5 15 4 20 -4 16 -6 -4 -11 -2 -11 3 0 6 5 11 12
11 6 0 3 7 -8 15 -19 14 -19 14 1 15 11 1 14 4 8 7 -7 2 -13 9 -13 15 0 6 7 8
15 4 8 -3 15 -2 15 3 0 5 -7 14 -15 21 -8 7 -15 18 -15 24 0 12 39 -34 40 -46z
m-69 13 c36 -29 15 -37 -27 -10 -31 19 -36 20 -31 6 4 -11 1 -17 -9 -17 -8 0
-12 -5 -9 -10 5 -8 11 -8 20 0 9 7 15 8 19 1 4 -6 13 -8 21 -5 15 6 39 -31 30
-46 -3 -6 -1 -10 5 -10 6 0 8 -5 5 -10 -4 -6 -11 -8 -16 -5 -5 3 -6 -2 -2 -11
4 -11 2 -15 -4 -11 -6 4 -14 -1 -17 -10 -6 -15 -8 -15 -16 -3 -6 8 -10 10 -10
4 0 -6 -11 -11 -25 -11 -13 0 -22 3 -19 8 3 5 -3 6 -12 2 -13 -5 -16 -3 -11
10 4 12 2 14 -11 10 -15 -6 -16 -5 -2 12 14 17 13 18 -2 12 -10 -3 -18 -2 -18
3 0 6 6 10 13 10 8 0 7 4 -3 11 -11 7 -12 12 -3 15 7 3 10 11 7 18 -6 16 31
50 45 41 6 -3 11 -1 11 4 0 18 46 12 71 -8z m160 -17 c12 -14 11 -16 -5 -13
-11 2 -21 10 -24 17 -5 17 13 15 29 -4z m19 -43 c0 -10 -6 -21 -13 -24 -16 -6
-19 25 -3 35 15 11 16 10 16 -11z"/>
<path d="M660 170 c0 -19 3 -21 12 -12 9 9 9 15 0 24 -9 9 -12 7 -12 -12z"/>
<path d="M670 136 c0 -2 7 -9 15 -16 12 -10 15 -10 15 4 0 9 -7 16 -15 16 -8
0 -15 -2 -15 -4z"/>
<path d="M490 166 c0 -9 5 -16 10 -16 6 0 10 4 10 9 0 6 -4 13 -10 16 -5 3
-10 -1 -10 -9z"/>
<path d="M530 160 c0 -5 5 -10 10 -10 6 0 10 5 10 10 0 6 -4 10 -10 10 -5 0
-10 -4 -10 -10z"/>
<path d="M570 155 c0 -8 5 -15 10 -15 6 0 10 7 10 15 0 8 -4 15 -10 15 -5 0
-10 -7 -10 -15z"/>
<path d="M500 132 c0 -5 7 -13 16 -16 10 -4 14 -1 12 6 -5 15 -28 23 -28 10z"/>
<path d="M540 120 c0 -5 7 -10 15 -10 8 0 15 5 15 10 0 6 -7 10 -15 10 -8 0
-15 -4 -15 -10z"/>
<path d="M850 676 c0 -2 7 -7 16 -10 8 -3 12 -2 9 4 -6 10 -25 14 -25 6z"/>
<path d="M645 660 c3 -5 14 -10 23 -10 15 0 15 2 2 10 -20 13 -33 13 -25 0z"/>
<path d="M930 660 c0 -3 23 -14 50 -24 l50 -18 0 -269 c0 -157 4 -269 9 -269
32 0 41 14 43 64 l1 51 6 -50 c6 -45 8 -39 15 55 4 58 6 161 4 230 -3 117 -4
114 -6 -46 -2 -171 -2 -172 -27 -188 l-25 -16 0 184 0 184 30 7 c23 5 30 12
30 30 0 17 7 24 32 29 17 3 29 8 26 11 -3 3 -19 2 -36 -1 -26 -5 -32 -12 -33
-33 -2 -22 -2 -23 -6 -4 -3 14 -9 20 -18 16 -8 -3 -28 8 -44 25 -27 26 -101
50 -101 32z"/>
<path d="M2545 601 c31 -13 145 -20 195 -11 l45 7 -55 2 c-30 1 -89 4 -130 6
-47 3 -67 2 -55 -4z"/>
<path d="M1068 533 c7 -3 16 -2 19 1 4 3 -2 6 -13 5 -11 0 -14 -3 -6 -6z"/>
<path d="M904 405 c0 -72 1 -99 3 -62 2 37 2 96 0 130 -2 34 -3 4 -3 -68z"/>
<path d="M1063 445 c0 -33 2 -45 4 -27 2 18 2 45 0 60 -2 15 -4 0 -4 -33z"/>
<path d="M868 474 c-5 -4 -8 -32 -8 -63 1 -43 3 -52 11 -38 11 19 8 113 -3
101z"/>
<path d="M600 370 c0 -5 5 -10 10 -10 6 0 10 5 10 10 0 6 -4 10 -10 10 -5 0
-10 -4 -10 -10z"/>
<path d="M1066 343 c-3 -21 -5 -60 -5 -88 1 -38 4 -30 10 35 8 89 6 117 -5 53z"/>
<path d="M620 330 c0 -5 5 -10 10 -10 6 0 10 5 10 10 0 6 -4 10 -10 10 -5 0
-10 -4 -10 -10z"/>
<path d="M860 250 c0 -38 4 -59 10 -55 6 3 10 28 10 55 0 27 -4 52 -10 55 -6
4 -10 -17 -10 -55z"/>
<path d="M630 290 c0 -13 11 -13 30 0 12 8 11 10 -7 10 -13 0 -23 -4 -23 -10z"/>
<path d="M896 203 c-3 -21 -5 -56 -5 -78 1 -26 5 -14 10 34 9 79 6 108 -5 44z"/>
<path d="M1768 203 c6 -2 18 -2 25 0 6 3 1 5 -13 5 -14 0 -19 -2 -12 -5z"/>
</g>
</svg>
