<?xml version="1.0" standalone="no"?>
<!DOCTYPE svg PUBLIC "-//W3C//DTD SVG 20010904//EN"
 "http://www.w3.org/TR/2001/REC-SVG-20010904/DTD/svg10.dtd">
<svg version="1.0" xmlns="http://www.w3.org/2000/svg"
 width="300.000000pt" height="169.000000pt" viewBox="0 0 300.000000 169.000000"
 preserveAspectRatio="xMidYMid meet">
<metadata>
Created by potrace 1.10, written by Peter Selinger 2001-2011
</metadata>
<g transform="translate(0.000000,169.000000) scale(0.100000,-0.100000)"
fill="#000000" stroke="none">
<path d="M1015 1613 c16 -3 32 -8 35 -12 3 -5 23 -11 44 -14 28 -4 36 -3 29 4
-6 6 -23 12 -37 12 -14 1 -26 5 -26 10 0 4 -17 6 -37 6 -35 -2 -35 -2 -8 -6z"/>
<path d="M608 1593 c6 -2 18 -2 25 0 6 3 1 5 -13 5 -14 0 -19 -2 -12 -5z"/>
<path d="M930 1589 c0 -5 5 -7 10 -4 6 3 10 8 10 11 0 2 -4 4 -10 4 -5 0 -10
-5 -10 -11z"/>
<path d="M658 1583 c7 -3 16 -2 19 1 4 3 -2 6 -13 5 -11 0 -14 -3 -6 -6z"/>
<path d="M690 1586 c0 -9 39 -13 51 -5 10 6 4 9 -18 9 -18 0 -33 -2 -33 -4z"/>
<path d="M512 1573 c-48 -6 -28 -23 26 -22 26 1 36 4 23 6 -19 4 -21 7 -10 14
8 5 10 8 4 7 -5 -1 -25 -3 -43 -5z"/>
<path d="M865 1570 c3 -5 11 -10 16 -10 6 0 7 5 4 10 -3 6 -11 10 -16 10 -6 0
-7 -4 -4 -10z"/>
<path d="M776 1562 c-3 -5 8 -6 25 -4 16 2 29 6 29 8 0 8 -49 4 -54 -4z"/>
<path d="M680 1545 c-11 -13 -10 -14 4 -9 9 3 16 10 16 15 0 13 -6 11 -20 -6z"/>
<path d="M1160 1550 c0 -5 15 -10 33 -10 24 0 28 3 17 10 -20 13 -50 13 -50 0z"/>
<path d="M454 1534 c3 -9 6 -22 6 -30 0 -8 4 -14 9 -14 5 0 7 10 4 21 -4 16
-2 20 8 17 8 -3 13 -13 13 -22 -1 -9 2 -16 7 -16 16 0 10 32 -8 46 -25 19 -47
18 -39 -2z"/>
<path d="M715 1540 c-3 -5 -1 -10 4 -10 6 0 11 5 11 10 0 6 -2 10 -4 10 -3 0
-8 -4 -11 -10z"/>
<path d="M2208 1543 c-19 -5 -24 -18 -9 -27 4 -3 16 3 26 14 18 20 16 22 -17
13z"/>
<path d="M415 1520 c3 -5 8 -10 11 -10 2 0 4 5 4 10 0 6 -5 10 -11 10 -5 0 -7
-4 -4 -10z"/>
<path d="M1432 1520 c2 -8 22 -14 53 -14 27 -1 50 -6 52 -13 3 -8 -8 -10 -31
-9 -37 3 -48 -7 -21 -18 8 -3 15 -1 15 5 0 5 11 7 25 3 18 -4 25 -2 25 9 0 23
-23 36 -75 44 -37 5 -47 3 -43 -7z"/>
<path d="M545 1510 c3 -5 8 -10 11 -10 2 0 4 5 4 10 0 6 -5 10 -11 10 -5 0 -7
-4 -4 -10z"/>
<path d="M350 1501 c0 -5 5 -13 10 -16 6 -3 10 -2 10 4 0 5 -4 13 -10 16 -5 3
-10 2 -10 -4z"/>
<path d="M1194 1491 c-63 -38 -70 -128 -13 -175 86 -73 212 21 168 125 -14 36
-62 69 -99 69 -14 0 -39 -9 -56 -19z m96 -16 c17 -9 30 -20 30 -25 0 -14 -14
-12 -28 2 -9 9 -15 9 -24 0 -14 -14 -88 -16 -88 -2 0 11 48 39 68 40 7 0 26
-7 42 -15z m0 -59 c0 -32 -1 -33 -40 -33 -33 0 -40 3 -40 20 0 15 5 18 21 14
27 -7 49 1 49 19 0 8 2 14 5 14 3 0 5 -15 5 -34z m-91 -18 c0 -13 -3 -17 -6
-10 -4 10 -8 10 -19 1 -11 -9 -14 -8 -14 3 0 18 9 28 27 28 7 0 13 -10 12 -22z
m137 10 c5 -8 2 -9 -9 -5 -10 3 -17 2 -17 -2 0 -5 6 -12 13 -14 7 -3 5 -6 -5
-6 -10 -1 -18 5 -18 12 0 26 23 36 36 15z m-105 -48 c18 9 89 1 89 -11 0 -15
-56 -38 -83 -35 -26 3 -67 31 -67 47 0 5 10 5 23 0 13 -5 30 -6 38 -1z"/>
<path d="M282 1489 c2 -7 10 -15 17 -17 8 -3 12 1 9 9 -2 7 -10 15 -17 17 -8
3 -12 -1 -9 -9z"/>
<path d="M380 1490 c0 -5 7 -10 15 -10 8 0 15 5 15 10 0 6 -7 10 -15 10 -8 0
-15 -4 -15 -10z"/>
<path d="M690 1489 c0 -5 -4 -8 -9 -4 -5 3 -12 1 -16 -5 -10 -16 35 -12 51 5
14 13 13 15 -5 15 -12 0 -21 -5 -21 -11z"/>
<path d="M420 1484 c0 -10 31 -36 37 -31 3 3 -2 13 -10 22 -16 15 -27 19 -27
9z"/>
<path d="M526 1474 c-19 -18 -21 -34 -4 -34 6 0 8 3 5 7 -4 3 0 15 10 25 20
22 11 24 -11 2z"/>
<path d="M594 1468 l-19 -23 23 19 c21 18 27 26 19 26 -2 0 -12 -10 -23 -22z"/>
<path d="M1137 1470 c-3 -11 -3 -20 -1 -20 2 0 8 9 14 20 6 11 7 20 2 20 -6 0
-12 -9 -15 -20z"/>
<path d="M2081 1463 c-42 -33 -80 -111 -60 -124 12 -7 12 -9 -1 -9 -11 0 -11
-3 3 -11 17 -10 16 -13 -13 -39 -17 -15 -77 -59 -134 -98 -101 -70 -103 -71
-132 -56 -28 15 -47 15 -104 -1 l-25 -7 29 27 c15 14 25 29 22 32 -3 4 4 18
16 32 13 14 0 6 -28 -17 -51 -42 -74 -51 -74 -32 0 6 -8 10 -17 10 -13 0 -4
-12 27 -40 25 -21 40 -39 34 -40 -5 0 -15 5 -22 12 -9 9 -16 8 -30 -7 -15 -16
-15 -17 0 -6 14 10 18 9 27 -8 14 -25 11 -42 -9 -58 -12 -10 -11 -11 10 -7 17
3 12 -2 -15 -16 -22 -11 -32 -20 -23 -20 9 0 19 -8 21 -17 4 -13 5 -12 6 5 1
32 28 38 55 13 12 -11 32 -21 44 -21 14 0 35 -18 62 -54 l41 -54 -31 -45 c-33
-50 -50 -52 -83 -13 l-17 21 8 -24 c6 -16 22 -29 45 -37 33 -12 37 -11 42 7 4
10 18 33 32 49 l25 31 -42 60 c-23 33 -40 63 -37 65 3 3 13 -6 23 -20 19 -30
32 -28 13 2 -16 26 -5 52 23 53 13 0 17 3 11 6 -7 2 -13 17 -13 33 0 28 46 74
109 110 14 8 28 18 31 21 3 3 32 24 65 46 l61 41 27 -20 c38 -28 48 -13 12 16
l-30 24 -147 -101 c-129 -88 -148 -104 -148 -127 0 -72 -78 -105 -125 -54 -30
33 -32 63 -4 98 24 30 78 36 103 10 14 -14 30 -6 165 86 146 100 149 102 138
129 -24 65 23 143 97 156 95 18 169 -98 116 -183 -11 -18 -33 -39 -48 -45 -24
-10 -27 -16 -21 -42 5 -23 7 -25 8 -7 0 12 5 22 10 22 13 0 61 51 78 84 8 16
15 44 15 63 0 29 5 36 39 54 44 22 48 29 17 29 -12 0 -18 -3 -15 -7 8 -8 -45
-42 -55 -36 -5 2 -8 14 -8 25 0 12 -3 18 -7 15 -3 -4 -17 3 -30 15 -37 34
-119 35 -162 1z m-441 -308 c-13 -14 -28 -25 -33 -25 -6 0 0 11 13 25 13 14
28 25 33 25 6 0 0 -11 -13 -25z"/>
<path d="M2280 1469 c0 -5 5 -7 10 -4 6 3 10 8 10 11 0 2 -4 4 -10 4 -5 0 -10
-5 -10 -11z"/>
<path d="M202 1455 c-37 -20 -11 -24 28 -4 24 13 29 18 15 18 -11 -1 -31 -7
-43 -14z"/>
<path d="M1570 1467 c0 -2 15 -16 33 -33 l32 -29 -29 33 c-28 30 -36 37 -36
29z"/>
<path d="M710 1452 c0 -4 17 -9 37 -10 44 -3 42 3 -4 11 -18 4 -33 3 -33 -1z"/>
<path d="M1910 1451 c0 -5 -8 -7 -19 -4 -10 3 -22 0 -25 -5 -3 -6 3 -8 16 -6
15 3 12 -1 -9 -11 -33 -15 -43 -26 -20 -20 26 5 97 40 97 48 0 4 -9 7 -20 7
-11 0 -20 -4 -20 -9z"/>
<path d="M2612 1449 c2 -6 7 -10 11 -10 4 1 14 1 22 1 8 0 15 5 15 10 0 6 -12
10 -26 10 -14 0 -24 -5 -22 -11z"/>
<path d="M310 1440 c0 -5 -13 -7 -30 -3 -24 4 -30 2 -30 -12 0 -14 6 -16 31
-11 17 3 43 6 57 6 25 0 25 1 6 15 -22 17 -34 19 -34 5z"/>
<path d="M394 1439 c-6 -11 19 -22 40 -17 11 2 9 6 -9 15 -15 6 -27 7 -31 2z"/>
<path d="M470 1441 c1 -17 18 -26 43 -21 l28 5 -35 11 c-20 6 -36 8 -36 5z"/>
<path d="M807 1420 c10 -11 19 -20 21 -20 1 0 -2 9 -8 20 -6 11 -15 20 -20 20
-6 0 -2 -9 7 -20z"/>
<path d="M1107 1420 c-9 -11 -13 -20 -8 -20 11 0 35 29 29 35 -2 2 -12 -4 -21
-15z"/>
<path d="M2688 1433 c7 -3 16 -2 19 1 4 3 -2 6 -13 5 -11 0 -14 -3 -6 -6z"/>
<path d="M550 1420 c0 -5 6 -10 14 -10 8 0 18 5 21 10 3 6 -3 10 -14 10 -12 0
-21 -4 -21 -10z"/>
<path d="M1526 1417 c3 -10 9 -15 12 -12 3 3 0 11 -7 18 -10 9 -11 8 -5 -6z"/>
<path d="M2127 1424 c-13 -13 -7 -23 16 -27 14 -3 9 -5 -14 -6 -39 -1 -51 -15
-42 -50 7 -26 29 -27 36 -2 3 14 15 21 38 23 30 3 34 6 34 33 0 26 -4 30 -30
33 -17 2 -34 0 -38 -4z"/>
<path d="M177 1403 c-14 -13 -7 -43 11 -43 13 0 14 2 3 9 -24 16 -1 32 37 27
30 -5 32 -4 12 3 -32 11 -55 13 -63 4z"/>
<path d="M722 1381 c13 -15 24 -27 26 -26 6 5 -23 45 -36 50 -7 3 -3 -8 10
-24z"/>
<path d="M2476 1401 c5 -5 23 -12 39 -16 30 -6 30 -6 -4 10 -38 17 -49 19 -35
6z"/>
<path d="M2635 1400 c4 -6 11 -8 16 -5 14 9 11 15 -7 15 -8 0 -12 -5 -9 -10z"/>
<path d="M410 1380 c12 -22 1 -27 -18 -8 -8 8 -12 8 -12 1 0 -13 28 -25 40
-18 10 6 1 45 -12 45 -5 0 -4 -9 2 -20z"/>
<path d="M450 1385 c0 -13 4 -14 20 -5 11 6 20 13 20 15 0 3 -9 5 -20 5 -11 0
-20 -7 -20 -15z"/>
<path d="M522 1391 c-8 -5 -12 -16 -10 -25 2 -12 6 -10 15 9 6 14 10 25 10 25
-1 0 -8 -4 -15 -9z"/>
<path d="M1823 1376 c2 -30 27 -50 27 -22 0 9 -4 16 -9 16 -5 0 -12 8 -15 18
-2 9 -4 4 -3 -12z"/>
<path d="M2330 1385 c-13 -16 0 -21 16 -6 5 5 20 11 34 14 22 4 21 4 -6 6 -17
0 -37 -6 -44 -14z"/>
<path d="M693 1368 c12 -13 24 -19 25 -15 5 11 -18 37 -34 37 -9 0 -5 -8 9
-22z"/>
<path d="M1563 1383 c9 -2 23 -2 30 0 6 3 -1 5 -18 5 -16 0 -22 -2 -12 -5z"/>
<path d="M1972 1378 c-18 -18 -14 -38 7 -38 14 0 17 6 13 25 -5 29 -4 29 -20
13z"/>
<path d="M2216 1381 c-4 -6 -4 -11 0 -11 4 0 -3 -11 -16 -25 l-23 -25 26 0
c17 0 28 7 32 20 7 24 -9 58 -19 41z"/>
<path d="M2438 1383 c7 -3 16 -2 19 1 4 3 -2 6 -13 5 -11 0 -14 -3 -6 -6z"/>
<path d="M825 1370 c-3 -5 1 -10 10 -10 9 0 13 5 10 10 -3 6 -8 10 -10 10 -2
0 -7 -4 -10 -10z"/>
<path d="M2650 1370 c0 -5 7 -7 15 -4 8 4 15 8 15 10 0 2 -7 4 -15 4 -8 0 -15
-4 -15 -10z"/>
<path d="M2696 1362 c-2 -4 4 -8 14 -8 10 0 16 4 14 8 -3 4 -9 8 -14 8 -5 0
-11 -4 -14 -8z"/>
<path d="M350 1347 c0 -8 7 -17 15 -21 8 -3 15 -2 15 3 0 5 -7 14 -15 21 -12
10 -15 10 -15 -3z"/>
<path d="M444 1349 c-3 -6 -1 -16 5 -22 14 -14 41 -18 41 -6 0 5 -4 9 -10 9
-5 0 -10 7 -10 15 0 17 -16 20 -26 4z"/>
<path d="M630 1350 c0 -5 -12 -10 -27 -11 -27 0 -26 -1 7 -12 21 -8 35 -19 34
-28 -1 -11 5 -15 17 -12 11 3 19 9 19 14 0 5 7 9 15 9 18 0 18 5 5 31 -11 20
-70 28 -70 9z m54 -15 c3 -9 -1 -18 -10 -22 -19 -7 -39 11 -30 26 10 16 33 13
40 -4z"/>
<path d="M2583 1353 c9 -2 23 -2 30 0 6 3 -1 5 -18 5 -16 0 -22 -2 -12 -5z"/>
<path d="M1520 1334 l-25 -15 25 7 c37 11 92 5 117 -11 32 -22 40 -18 13 5
-13 11 -32 20 -44 20 -12 0 -30 2 -41 5 -11 3 -31 -2 -45 -11z"/>
<path d="M2755 1343 c11 -3 26 -10 34 -17 11 -9 13 -8 9 4 -2 8 -18 16 -34 17
-18 1 -22 0 -9 -4z"/>
<path d="M120 1333 c-14 -3 -29 -8 -34 -13 -5 -5 8 -5 29 0 20 4 39 11 42 14
7 6 4 6 -37 -1z"/>
<path d="M838 1333 c7 -3 16 -2 19 1 4 3 -2 6 -13 5 -11 0 -14 -3 -6 -6z"/>
<path d="M1074 1325 c-10 -8 -14 -15 -8 -15 5 0 19 7 30 15 10 8 14 15 8 15
-5 0 -19 -7 -30 -15z"/>
<path d="M2940 1325 c19 -7 42 -13 50 -13 8 0 -1 6 -20 13 -19 7 -42 13 -50
13 -8 0 1 -6 20 -13z"/>
<path d="M308 1323 c7 -3 16 -2 19 1 4 3 -2 6 -13 5 -11 0 -14 -3 -6 -6z"/>
<path d="M410 1320 c0 -6 7 -10 15 -10 8 0 15 2 15 4 0 2 -7 6 -15 10 -8 3
-15 1 -15 -4z"/>
<path d="M1136 1313 c-6 -14 -5 -15 5 -6 7 7 10 15 7 18 -3 3 -9 -2 -12 -12z"/>
<path d="M1375 1310 c10 -11 20 -20 23 -20 3 0 -3 9 -13 20 -10 11 -20 20 -23
20 -3 0 3 -9 13 -20z"/>
<path d="M1980 1308 c0 -19 2 -20 10 -8 13 19 13 30 0 30 -5 0 -10 -10 -10
-22z"/>
<path d="M540 1311 c0 -5 6 -12 13 -14 9 -4 8 -8 -3 -16 -13 -9 -13 -11 3 -11
12 0 17 8 17 25 0 16 -6 25 -15 25 -8 0 -15 -4 -15 -9z"/>
<path d="M846 1312 c-2 -4 -1 -14 5 -22 7 -12 9 -10 9 8 0 23 -5 28 -14 14z"/>
<path d="M1005 1295 c-22 -14 -36 -25 -31 -25 10 0 76 40 76 46 0 6 -2 5 -45
-21z"/>
<path d="M1457 1291 l-26 -30 33 -24 32 -25 14 21 c11 19 11 20 -1 10 -11 -9
-18 -8 -32 1 -21 16 -22 30 -1 51 9 9 14 18 12 20 -3 3 -16 -8 -31 -24z"/>
<path d="M1875 1313 c-16 -3 -34 -9 -40 -15 -7 -7 1 -8 25 -2 19 4 49 7 65 6
23 -1 26 1 15 8 -8 5 -19 9 -25 8 -5 0 -23 -3 -40 -5z"/>
<path d="M2132 1303 c4 -21 45 -30 61 -14 14 14 9 17 -31 26 -29 6 -33 5 -30
-12z"/>
<path d="M2838 1313 c6 -2 18 -2 25 0 6 3 1 5 -13 5 -14 0 -19 -2 -12 -5z"/>
<path d="M336 1301 c-4 -5 3 -7 14 -4 23 6 26 13 6 13 -8 0 -17 -4 -20 -9z"/>
<path d="M505 1300 c3 -5 8 -10 11 -10 2 0 4 5 4 10 0 6 -5 10 -11 10 -5 0 -7
-4 -4 -10z"/>
<path d="M605 1300 c-3 -5 1 -10 10 -10 9 0 13 5 10 10 -3 6 -8 10 -10 10 -2
0 -7 -4 -10 -10z"/>
<path d="M1345 1298 c11 -6 24 -17 28 -25 4 -7 13 -13 20 -13 7 0 -1 12 -16
25 -15 14 -33 25 -40 25 -7 0 -3 -6 8 -12z"/>
<path d="M1737 1290 c4 -14 0 -20 -11 -20 -10 0 -14 -4 -11 -10 3 -6 -4 -10
-17 -10 -21 -1 -21 -2 -5 -11 14 -8 23 -7 36 5 26 24 37 19 15 -6 l-19 -23 23
19 c12 11 20 21 17 24 -3 3 3 15 12 26 10 12 11 15 3 9 -19 -17 -30 -16 -30 2
0 8 -4 15 -9 15 -5 0 -7 -9 -4 -20z"/>
<path d="M716 1286 c6 -16 34 -30 34 -18 0 5 -5 13 -12 20 -16 16 -29 15 -22
-2z"/>
<path d="M1675 1290 c-3 -5 -1 -10 4 -10 6 0 11 5 11 10 0 6 -2 10 -4 10 -3 0
-8 -4 -11 -10z"/>
<path d="M1794 1279 c-19 -22 -19 -22 4 -8 12 8 22 17 22 21 0 12 -6 9 -26
-13z"/>
<path d="M288 1283 c6 -2 18 -2 25 0 6 3 1 5 -13 5 -14 0 -19 -2 -12 -5z"/>
<path d="M1115 1269 c-7 -10 5 -39 16 -39 4 0 6 7 3 15 -5 11 1 15 20 15 30 0
33 -7 9 -27 -16 -14 -16 -14 5 -2 13 8 24 18 25 24 2 12 -72 25 -78 14z"/>
<path d="M851 1257 c-1 -19 6 -23 60 -30 33 -5 37 -3 42 18 2 14 0 22 -4 19
-5 -3 -9 -11 -9 -17 0 -20 -78 -9 -83 11 -4 15 -5 15 -6 -1z"/>
<path d="M1242 1245 c0 -16 2 -22 5 -12 2 9 2 23 0 30 -3 6 -5 -1 -5 -18z"/>
<path d="M600 1250 c0 -5 5 -10 10 -10 6 0 10 5 10 10 0 6 -4 10 -10 10 -5 0
-10 -4 -10 -10z"/>
<path d="M1630 1256 c0 -2 8 -10 18 -17 15 -13 16 -12 3 4 -13 16 -21 21 -21
13z"/>
<path d="M2975 1250 c3 -5 8 -10 11 -10 2 0 4 5 4 10 0 6 -5 10 -11 10 -5 0
-7 -4 -4 -10z"/>
<path d="M530 1234 c0 -7 10 -9 25 -6 14 2 22 8 20 13 -8 12 -45 7 -45 -7z"/>
<path d="M713 1238 c3 -9 1 -19 -6 -22 -7 -2 -4 -5 6 -5 20 -1 21 7 6 29 -9
13 -10 13 -6 -2z"/>
<path d="M1401 1226 c-13 -14 -21 -32 -18 -43 4 -17 5 -17 6 0 0 10 8 25 16
33 15 15 21 13 83 -32 2 -1 -2 -13 -9 -26 -12 -23 -12 -23 9 -4 25 22 24 25
-27 65 l-38 30 -22 -23z"/>
<path d="M1534 1225 c-18 -27 -11 -47 12 -38 13 5 13 7 2 14 -10 7 -11 12 0
29 18 29 6 25 -14 -5z"/>
<path d="M2130 1225 c0 -8 6 -12 15 -9 15 6 19 -5 29 -81 44 -329 56 -440 46
-443 -16 -6 -12 -22 6 -22 13 0 15 -7 11 -30 -4 -16 -2 -32 3 -35 16 -10 11
-35 -6 -35 -8 0 -22 -7 -30 -15 -17 -16 -44 -20 -44 -6 0 5 7 28 15 52 34 95
-1 203 -85 267 -32 25 -44 41 -42 56 2 16 -2 13 -13 -9 l-15 -30 6 30 c5 26 4
28 -8 13 -10 -13 -32 -18 -89 -20 -43 -2 -75 -6 -73 -10 3 -4 -7 -10 -21 -14
-14 -3 -25 -9 -25 -13 0 -18 15 -18 50 0 39 21 118 27 161 14 154 -49 200
-255 82 -367 -75 -72 -212 -77 -285 -11 -17 15 -20 15 -34 1 -14 -14 -13 -16
9 -16 13 0 37 -9 53 -21 33 -24 106 -37 158 -27 19 4 58 22 85 41 55 36 67 33
57 -20 -4 -18 -3 -36 2 -39 5 -3 12 13 15 36 5 34 2 44 -16 59 -17 14 -18 18
-7 19 9 0 21 -5 27 -11 9 -9 19 -6 39 10 15 11 33 21 40 21 8 0 14 2 14 4 0
10 -81 615 -86 644 -5 23 -12 32 -25 32 -11 0 -19 -7 -19 -15z"/>
<path d="M2942 1216 c-16 -16 -31 -21 -57 -18 -19 2 -35 0 -35 -4 0 -5 18 -9
40 -9 22 -1 40 3 40 7 0 5 14 15 31 22 19 8 26 15 18 18 -8 3 -24 -5 -37 -16z"/>
<path d="M613 1213 c-7 -2 -12 -17 -12 -31 1 -21 2 -23 6 -7 3 11 10 26 15 33
11 13 10 13 -9 5z"/>
<path d="M853 1213 c-32 -6 -80 -57 -88 -93 -20 -93 66 -175 159 -149 111 31
117 190 10 235 -34 14 -41 15 -81 7z m71 -27 c19 -8 37 -20 42 -27 6 -11 5
-12 -7 -2 -8 6 -32 11 -54 11 -69 0 -80 1 -69 11 5 5 18 11 29 14 11 3 21 5
23 6 1 0 18 -5 36 -13z m36 -61 c13 -24 11 -28 -30 -70 l-44 -45 -47 46 c-47
46 -47 47 -31 70 15 20 26 23 78 24 55 0 62 -2 74 -25z m-116 -101 c34 -41 33
-51 -1 -28 -33 21 -52 44 -53 62 0 18 22 4 54 -34z m136 16 c-13 -23 -49 -50
-69 -50 -9 0 0 15 24 40 38 39 64 45 45 10z"/>
<path d="M840 1129 c0 -5 -4 -7 -10 -4 -5 3 -10 2 -10 -3 0 -5 29 -9 65 -9 36
0 65 4 65 9 0 5 -4 6 -10 3 -5 -3 -10 -1 -10 6 0 11 -15 9 -54 -7 -14 -5 -17
-4 -12 4 4 7 1 12 -8 12 -9 0 -16 -5 -16 -11z"/>
<path d="M821 1088 c8 -7 22 -22 33 -33 18 -20 18 -19 2 13 -9 17 -24 32 -33
32 -15 0 -15 -2 -2 -12z"/>
<path d="M865 1083 c4 -10 10 -26 13 -37 4 -15 7 -12 18 14 18 42 18 40 -12
40 -21 0 -25 -3 -19 -17z"/>
<path d="M915 1070 c-9 -16 -13 -30 -11 -30 3 0 14 14 26 30 12 17 17 30 11
30 -6 0 -17 -13 -26 -30z"/>
<path d="M1270 1195 c0 -14 2 -25 4 -25 2 0 6 11 8 25 3 14 1 25 -3 25 -5 0
-9 -11 -9 -25z"/>
<path d="M1694 1198 l-19 -23 23 19 c21 18 27 26 19 26 -2 0 -12 -10 -23 -22z"/>
<path d="M2760 1195 c-13 -14 -19 -25 -13 -25 6 0 18 11 27 25 9 14 15 25 13
25 -2 0 -14 -11 -27 -25z"/>
<path d="M653 1198 c9 -7 24 -22 33 -33 8 -11 12 -13 8 -5 -11 24 -36 50 -47
50 -6 0 -3 -6 6 -12z"/>
<path d="M717 1166 c-4 -10 -1 -13 9 -9 11 4 14 -5 14 -41 0 -26 -5 -46 -11
-46 -6 0 -4 -7 5 -15 8 -8 16 -15 18 -15 2 0 1 30 -2 67 -5 63 -21 91 -33 59z"/>
<path d="M2091 1164 c0 -11 3 -14 6 -6 3 7 2 16 -1 19 -3 4 -6 -2 -5 -13z"/>
<path d="M2678 1173 c6 -2 18 -2 25 0 6 3 1 5 -13 5 -14 0 -19 -2 -12 -5z"/>
<path d="M1252 1150 c0 -14 2 -19 5 -12 2 6 2 18 0 25 -3 6 -5 1 -5 -13z"/>
<path d="M2111 1163 c-1 -6 -4 -20 -7 -30 -5 -17 -5 -17 6 0 6 10 9 23 6 30
-3 9 -5 9 -5 0z"/>
<path d="M2206 1105 c3 -38 10 -74 15 -79 8 -9 4 32 -12 109 -6 29 -7 21 -3
-30z"/>
<path d="M2615 1150 c-10 -11 -13 -20 -7 -20 6 0 16 9 22 20 6 11 9 20 7 20
-2 0 -12 -9 -22 -20z"/>
<path d="M2794 1148 c-12 -14 -18 -33 -16 -50 3 -28 16 -36 27 -18 3 6 1 10
-4 10 -6 0 -11 8 -11 18 0 23 33 55 45 45 4 -5 5 -2 1 5 -10 17 -20 15 -42
-10z"/>
<path d="M102 1135 c6 -14 15 -25 20 -25 5 0 1 11 -8 25 -9 14 -18 25 -20 25
-2 0 2 -11 8 -25z"/>
<path d="M1290 1147 c0 -8 7 -17 15 -21 8 -3 15 -2 15 3 0 5 -7 14 -15 21 -12
10 -15 10 -15 -3z"/>
<path d="M1396 1147 c3 -10 9 -15 12 -12 3 3 0 11 -7 18 -10 9 -11 8 -5 -6z"/>
<path d="M1440 1151 c0 -5 5 -13 10 -16 6 -3 10 -2 10 4 0 5 -4 13 -10 16 -5
3 -10 2 -10 -4z"/>
<path d="M1525 1140 c-3 -5 1 -10 9 -10 9 0 16 -7 16 -15 0 -10 -8 -13 -27
-11 -16 2 -20 1 -10 -1 18 -4 17 -6 -5 -31 -14 -16 -5 -12 25 12 43 35 46 40
30 52 -22 16 -30 17 -38 4z"/>
<path d="M487 1129 c7 -7 15 -10 18 -7 3 3 -2 9 -12 12 -14 6 -15 5 -6 -5z"/>
<path d="M2076 1125 c-3 -9 -6 -22 -5 -28 0 -7 5 -1 10 12 5 13 8 26 5 28 -2
2 -6 -3 -10 -12z"/>
<path d="M2827 1120 c-3 -11 -2 -22 3 -25 4 -3 10 6 12 20 6 30 -7 34 -15 5z"/>
<path d="M1400 1107 c0 -16 20 -37 35 -37 5 0 2 5 -7 11 -10 5 -15 16 -12 24
4 8 1 15 -5 15 -6 0 -11 -6 -11 -13z"/>
<path d="M556 1095 c4 -8 8 -15 10 -15 2 0 4 7 4 15 0 8 -4 15 -10 15 -5 0 -7
-7 -4 -15z"/>
<path d="M1200 1094 c-77 -33 -120 -101 -120 -189 0 -193 229 -277 357 -132
68 78 68 186 1 263 -61 70 -157 93 -238 58z m145 -14 c39 -15 100 -81 114
-122 13 -40 7 -108 -10 -119 -6 -3 -11 -10 -11 -15 0 -46 -89 -104 -158 -104
-54 0 -150 54 -150 85 0 7 -7 18 -15 25 -21 18 -20 110 3 154 9 19 27 40 39
47 12 7 19 17 16 22 -4 6 0 8 10 4 10 -4 16 -2 14 5 -5 23 100 36 148 18z"/>
<path d="M1267 1032 c-16 -17 -97 -195 -97 -212 0 -5 12 -13 26 -16 20 -5 31
-1 51 20 l25 27 33 -25 c37 -29 67 -33 84 -12 8 10 6 25 -11 62 -12 27 -23 51
-23 54 -4 17 -49 101 -59 109 -9 8 -17 6 -29 -7z m81 -144 c28 -61 29 -68 13
-68 -10 0 -23 11 -29 25 -10 21 -19 25 -52 25 -34 0 -41 -4 -46 -25 -4 -16
-13 -25 -25 -25 -10 0 -19 2 -19 4 0 3 16 40 36 83 20 43 40 89 46 103 10 25
10 25 28 -15 10 -22 32 -70 48 -107z"/>
<path d="M1271 937 c-14 -36 -15 -34 14 -39 14 -3 25 -4 25 -3 0 2 -6 18 -14
36 l-14 34 -11 -28z"/>
<path d="M1902 1097 c-13 -16 -10 -75 5 -102 10 -17 15 -18 37 -7 15 6 29 18
32 26 7 19 -14 96 -28 96 -6 0 -5 -6 3 -17 11 -13 12 -17 1 -21 -10 -3 -9 -9
4 -23 17 -19 17 -21 -4 -41 -17 -18 -23 -19 -36 -8 -21 16 -20 30 1 30 15 0
15 1 0 18 -22 24 -21 38 1 51 9 6 12 11 6 11 -6 0 -16 -6 -22 -13z"/>
<path d="M2091 1094 c0 -11 3 -14 6 -6 3 7 2 16 -1 19 -3 4 -6 -2 -5 -13z"/>
<path d="M2600 1093 c8 -3 18 -11 22 -17 5 -7 8 -4 8 7 0 11 -7 17 -22 16 -16
0 -18 -2 -8 -6z"/>
<path d="M140 1081 c0 -10 29 -36 34 -30 1 2 -6 12 -16 22 -10 9 -18 13 -18 8z"/>
<path d="M1524 1058 l-19 -23 23 19 c21 18 27 26 19 26 -2 0 -12 -10 -23 -22z"/>
<path d="M1650 1051 c-16 -31 -11 -38 10 -12 17 19 21 21 26 7 3 -9 14 -16 24
-16 20 0 46 27 36 38 -4 4 -13 -1 -21 -11 -11 -15 -13 -16 -19 -2 -8 21 -43
19 -56 -4z"/>
<path d="M1455 1040 c4 -6 11 -8 16 -5 14 9 11 15 -7 15 -8 0 -12 -5 -9 -10z"/>
<path d="M2051 1034 c0 -11 3 -14 6 -6 3 7 2 16 -1 19 -3 4 -6 -2 -5 -13z"/>
<path d="M2308 1036 c-23 -17 -38 -59 -28 -76 10 -16 -16 -74 -29 -65 -5 2
-12 30 -16 61 -4 30 -9 54 -11 51 -8 -8 8 -127 16 -122 5 3 6 -12 3 -34 -3
-22 -1 -41 5 -45 7 -4 9 5 7 25 -4 25 -2 29 10 19 11 -9 18 -6 34 12 49 54 50
56 37 61 -7 3 -18 -9 -25 -25 -13 -29 -36 -46 -48 -35 -3 4 6 22 21 41 15 20
22 37 16 41 -5 3 -10 19 -10 35 0 29 30 60 57 60 20 0 53 -38 53 -60 0 -11 -9
-29 -20 -40 -20 -20 -16 -27 6 -12 35 23 21 105 -19 116 -31 8 -40 7 -59 -8z"/>
<path d="M2650 1039 c0 -5 5 -7 10 -4 6 3 10 8 10 11 0 2 -4 4 -10 4 -5 0 -10
-5 -10 -11z"/>
<path d="M1481 1027 c-8 -10 -7 -18 2 -30 10 -14 17 -15 50 -5 20 6 37 15 37
19 0 4 -16 1 -35 -7 -31 -13 -36 -13 -41 0 -3 8 -3 20 1 26 9 14 0 12 -14 -3z"/>
<path d="M550 1023 c-108 -40 -68 -200 45 -179 88 17 99 145 14 175 -35 12
-37 12 -59 4z m79 -46 c0 -9 -2 -8 -6 1 -6 15 -23 6 -23 -13 0 -9 6 -12 17 -8
11 4 14 3 9 -5 -4 -7 -14 -12 -22 -12 -8 0 -14 -9 -14 -20 0 -24 -37 -63 -50
-55 -16 10 -11 28 5 21 10 -4 17 4 23 27 10 34 7 47 -9 47 -5 0 -7 -11 -3 -24
3 -15 1 -25 -9 -29 -17 -6 -44 9 -34 20 5 4 12 1 17 -7 7 -11 9 -7 7 15 -2 25
2 30 20 30 13 0 30 8 40 17 17 18 34 15 32 -5z m0 -79 c-8 -14 -14 -18 -17
-10 -4 13 17 46 25 38 3 -2 -1 -15 -8 -28z"/>
<path d="M710 1021 c0 -5 -9 -13 -21 -16 -11 -4 -18 -9 -16 -11 7 -7 57 18 57
28 0 4 -4 8 -10 8 -5 0 -10 -4 -10 -9z"/>
<path d="M1040 1015 c14 -8 30 -14 35 -14 6 0 -1 6 -15 14 -14 8 -29 14 -35
14 -5 0 1 -6 15 -14z"/>
<path d="M180 1011 c0 -5 5 -13 10 -16 6 -3 10 -2 10 4 0 5 -4 13 -10 16 -5 3
-10 2 -10 -4z"/>
<path d="M2312 1008 c-29 -29 -3 -72 40 -66 19 2 23 9 23 38 0 30 -4 35 -25
38 -14 2 -31 -3 -38 -10z m58 -18 c0 -20 -13 -40 -26 -40 -19 0 -36 34 -23 47
12 12 49 6 49 -7z"/>
<path d="M1010 1000 c8 -5 20 -10 25 -10 6 0 3 5 -5 10 -8 5 -19 10 -25 10 -5
0 -3 -5 5 -10z"/>
<path d="M2061 994 c0 -11 3 -14 6 -6 3 7 2 16 -1 19 -3 4 -6 -2 -5 -13z"/>
<path d="M2644 981 c-1 -21 3 -28 13 -24 8 3 12 12 9 20 -3 8 -6 19 -6 24 0 5
-3 9 -7 9 -5 0 -8 -13 -9 -29z"/>
<path d="M735 990 c-4 -6 -11 -7 -17 -4 -6 4 -8 2 -5 -4 4 -5 16 -8 27 -5 11
3 17 9 14 14 -7 12 -11 11 -19 -1z"/>
<path d="M1820 976 c0 -8 7 -17 16 -20 23 -9 24 -4 2 17 -14 13 -18 14 -18 3z"/>
<path d="M187 973 c-4 -3 -7 -21 -7 -38 0 -24 9 -40 35 -64 19 -17 35 -27 35
-22 0 5 -14 20 -31 32 -27 19 -30 27 -27 60 2 22 3 39 2 39 0 0 -4 -3 -7 -7z"/>
<path d="M1508 972 c-16 -7 -16 -10 6 -46 14 -24 26 -34 30 -27 4 6 2 11 -4
11 -6 0 -15 10 -19 23 -7 16 -5 25 7 35 17 13 8 15 -20 4z"/>
<path d="M2025 970 c-3 -5 -1 -10 4 -10 6 0 11 5 11 10 0 6 -2 10 -4 10 -3 0
-8 -4 -11 -10z"/>
<path d="M1599 933 c-12 -16 -12 -16 1 -6 8 6 31 13 50 16 l35 4 -36 1 c-24 1
-41 -4 -50 -15z"/>
<path d="M2426 941 c-4 -5 3 -7 14 -4 23 6 26 13 6 13 -8 0 -17 -4 -20 -9z"/>
<path d="M2515 940 c-3 -5 -1 -10 4 -10 6 0 11 5 11 10 0 6 -2 10 -4 10 -3 0
-8 -4 -11 -10z"/>
<path d="M2627 919 c-20 -22 -13 -47 8 -29 14 12 27 51 17 49 -4 0 -15 -9 -25
-20z"/>
<path d="M948 913 c7 -3 16 -2 19 1 4 3 -2 6 -13 5 -11 0 -14 -3 -6 -6z"/>
<path d="M2496 903 c11 -8 18 -16 16 -19 -7 -9 5 -29 13 -22 13 12 -11 55 -30
55 -16 0 -16 -2 1 -14z"/>
<path d="M1580 900 c0 -5 5 -10 11 -10 5 0 7 5 4 10 -3 6 -8 10 -11 10 -2 0
-4 -4 -4 -10z"/>
<path d="M1790 899 c0 -13 14 -17 35 -9 17 6 16 7 -8 12 -15 3 -27 2 -27 -3z"/>
<path d="M2425 900 c-3 -5 -1 -10 4 -10 6 0 11 5 11 10 0 6 -2 10 -4 10 -3 0
-8 -4 -11 -10z"/>
<path d="M2439 845 c13 -28 -8 -64 -50 -86 -21 -11 -27 -18 -17 -19 17 0 88
63 88 78 0 5 -7 17 -16 28 -15 19 -15 19 -5 -1z"/>
<path d="M2540 850 c0 -5 5 -10 11 -10 5 0 7 5 4 10 -3 6 -8 10 -11 10 -2 0
-4 -4 -4 -10z"/>
<path d="M1525 839 c-4 -6 -13 -8 -21 -5 -8 3 -14 1 -14 -4 0 -16 42 -23 51
-9 5 8 9 17 9 22 0 11 -18 9 -25 -4z"/>
<path d="M1634 834 c-18 -14 -18 -15 4 -4 12 6 22 13 22 15 0 8 -5 6 -26 -11z"/>
<path d="M500 829 c-12 -8 -11 -9 6 -4 13 3 31 -2 47 -15 30 -24 38 -25 31 -6
-3 8 -13 16 -22 19 -9 3 -24 7 -32 11 -8 3 -22 1 -30 -5z"/>
<path d="M834 825 c-4 -9 -2 -21 4 -27 15 -15 44 -1 40 19 -4 23 -36 29 -44 8z
m34 -6 c-2 -6 -8 -10 -13 -10 -5 0 -11 4 -13 10 -2 6 4 11 13 11 9 0 15 -5 13
-11z"/>
<path d="M1573 833 c9 -2 23 -2 30 0 6 3 -1 5 -18 5 -16 0 -22 -2 -12 -5z"/>
<path d="M434 805 c-9 -14 -15 -27 -13 -30 3 -2 12 10 21 26 21 36 15 39 -8 4z"/>
<path d="M890 795 c-7 -9 -8 -15 -2 -15 5 0 12 7 16 15 3 8 4 15 2 15 -2 0 -9
-7 -16 -15z"/>
<path d="M1435 754 c-27 -28 -56 -53 -64 -56 -12 -3 -12 -8 -2 -24 10 -14 11
-15 7 -2 -3 10 1 21 9 25 8 5 35 28 60 51 l45 44 57 -18 c32 -9 64 -18 71 -20
8 -1 22 -10 32 -19 17 -16 18 -16 14 2 -4 13 -29 25 -92 43 l-87 26 -50 -52z"/>
<path d="M1550 808 c3 -3 26 -12 52 -21 38 -12 46 -13 42 -2 -3 8 -13 13 -22
13 -9 0 -30 3 -47 7 -16 4 -28 6 -25 3z"/>
<path d="M285 777 c10 -15 20 -25 23 -22 3 3 -5 16 -17 28 l-23 22 17 -28z"/>
<path d="M2257 725 c7 -98 37 -140 69 -97 21 28 16 37 -7 11 -29 -34 -36 -22
-57 101 l-10 55 5 -70z"/>
<path d="M595 770 c-3 -5 -1 -10 4 -10 6 0 11 5 11 10 0 6 -2 10 -4 10 -3 0
-8 -4 -11 -10z"/>
<path d="M850 765 c0 -8 2 -15 4 -15 2 0 6 7 10 15 3 8 1 15 -4 15 -6 0 -10
-7 -10 -15z"/>
<path d="M1041 745 c-77 -48 -88 -64 -13 -20 34 21 65 42 68 46 7 12 6 12 -55
-26z"/>
<path d="M1860 766 c-30 -11 -35 -18 -38 -48 -3 -29 1 -36 23 -46 14 -7 36
-12 48 -12 41 0 67 -12 67 -31 0 -13 12 -21 43 -29 23 -6 47 -13 53 -15 16 -5
34 15 34 39 0 14 -3 17 -11 9 -13 -13 -108 9 -120 29 -14 21 -10 41 5 35 41
-16 100 -28 113 -23 10 4 13 18 11 43 -3 33 -7 39 -38 50 -45 15 -145 15 -190
-1z m168 -20 c31 -7 42 -15 42 -32 0 -17 -21 -18 -74 -3 -34 9 -40 8 -57 -10
-32 -34 -84 -26 -91 14 -6 36 84 52 180 31z"/>
<path d="M880 750 c0 -5 5 -10 10 -10 6 0 10 5 10 10 0 6 -4 10 -10 10 -5 0
-10 -4 -10 -10z"/>
<path d="M2450 750 c0 -5 5 -10 10 -10 6 0 10 5 10 10 0 6 -4 10 -10 10 -5 0
-10 -4 -10 -10z"/>
<path d="M490 724 c-19 -13 -29 -24 -23 -24 7 0 14 4 18 10 3 5 12 7 20 4 8
-4 18 1 21 10 10 26 2 26 -36 0z"/>
<path d="M1085 740 c-3 -5 -1 -10 4 -10 6 0 11 5 11 10 0 6 -2 10 -4 10 -3 0
-8 -4 -11 -10z"/>
<path d="M1689 736 c7 -8 20 -31 31 -52 l19 -39 1 42 c0 37 -3 42 -31 52 -26
9 -29 9 -20 -3z"/>
<path d="M2330 740 c-9 -6 -10 -10 -3 -10 6 0 15 5 18 10 8 12 4 12 -15 0z"/>
<path d="M360 734 c0 -13 18 -39 24 -34 2 3 -2 14 -10 24 -8 11 -14 16 -14 10z"/>
<path d="M420 736 c0 -2 8 -10 18 -17 15 -13 16 -12 3 4 -13 16 -21 21 -21 13z"/>
<path d="M890 720 c-9 -6 -10 -10 -3 -10 6 0 15 5 18 10 8 12 4 12 -15 0z"/>
<path d="M1172 705 c9 -10 21 -16 28 -13 7 2 -1 10 -16 17 -27 12 -28 11 -12
-4z"/>
<path d="M2345 710 c3 -5 8 -10 11 -10 2 0 4 5 4 10 0 6 -5 10 -11 10 -5 0 -7
-4 -4 -10z"/>
<path d="M540 706 c0 -2 8 -10 18 -17 15 -13 16 -12 3 4 -13 16 -21 21 -21 13z"/>
<path d="M665 700 c3 -5 8 -10 11 -10 2 0 4 5 4 10 0 6 -5 10 -11 10 -5 0 -7
-4 -4 -10z"/>
<path d="M2440 700 c0 -5 7 -10 16 -10 8 0 12 5 9 10 -3 6 -10 10 -16 10 -5 0
-9 -4 -9 -10z"/>
<path d="M447 681 c66 -23 103 -47 103 -68 0 -13 3 -14 11 -6 8 8 7 17 -3 32
-8 12 -17 19 -20 16 -3 -3 -11 1 -18 10 -9 11 -9 15 -1 15 7 0 9 5 6 10 -8 12
-26 13 -23 1 4 -14 -4 -14 -47 -2 -61 17 -66 12 -8 -8z"/>
<path d="M708 693 c7 -3 16 -2 19 1 4 3 -2 6 -13 5 -11 0 -14 -3 -6 -6z"/>
<path d="M929 673 c-13 -17 -13 -17 6 -3 11 8 22 16 24 17 2 2 0 3 -6 3 -6 0
-17 -8 -24 -17z"/>
<path d="M1228 683 c7 -3 16 -2 19 1 4 3 -2 6 -13 5 -11 0 -14 -3 -6 -6z"/>
<path d="M665 673 c-89 -24 -133 -133 -85 -211 76 -125 262 -77 264 69 2 92
-92 166 -179 142z m82 -54 c31 -20 34 -25 31 -66 -3 -39 -7 -47 -39 -64 l-35
-21 -37 22 c-34 20 -37 26 -37 65 0 38 4 46 33 64 40 26 42 26 84 0z m-117 -4
c-7 -9 -15 -13 -19 -10 -3 3 1 10 9 15 21 14 24 12 10 -5z m189 -82 c1 -42
-19 -85 -36 -79 -7 3 -13 -1 -13 -9 0 -9 -10 -15 -25 -15 -24 0 -37 19 -15 21
6 1 15 2 20 3 22 2 50 62 51 106 0 34 2 40 9 25 5 -11 9 -34 9 -52z m-209 23
c0 -58 14 -81 59 -96 37 -12 56 -30 31 -30 -16 0 -25 4 -23 11 1 3 -4 6 -12 6
-8 0 -12 -4 -9 -9 3 -4 -2 -8 -10 -8 -9 0 -16 7 -16 15 0 8 -6 15 -14 15 -20
0 -39 63 -31 100 9 41 25 38 25 -4z"/>
<path d="M673 608 c-19 -9 -23 -19 -23 -55 0 -23 5 -43 10 -43 6 0 10 18 10
39 0 39 0 39 38 38 34 -2 37 -4 37 -32 0 -26 -4 -30 -27 -30 -17 1 -28 -5 -31
-17 -6 -21 11 -23 48 -6 21 9 25 18 25 53 0 35 -4 44 -25 53 -30 14 -33 14
-62 0z"/>
<path d="M710 570 c0 -6 7 -10 15 -10 8 0 15 2 15 4 0 2 -7 6 -15 10 -8 3 -15
1 -15 -4z"/>
<path d="M701 544 c13 -16 39 -19 39 -5 0 5 -11 11 -25 13 -20 4 -23 3 -14 -8z"/>
<path d="M1170 670 c0 -28 52 -70 84 -69 l31 2 -35 6 c-24 4 -41 16 -57 40
-13 19 -23 28 -23 21z"/>
<path d="M944 654 c-18 -14 -18 -15 4 -4 12 6 22 13 22 15 0 8 -5 6 -26 -11z"/>
<path d="M1356 646 c5 -20 1 -25 -18 -29 -18 -3 -16 -5 9 -6 31 -1 32 0 22 29
-13 36 -22 40 -13 6z"/>
<path d="M1675 659 c-16 -6 -14 -8 13 -8 33 -1 41 4 20 12 -7 2 -22 1 -33 -4z"/>
<path d="M2450 660 c0 -5 5 -10 11 -10 5 0 7 5 4 10 -3 6 -8 10 -11 10 -2 0
-4 -4 -4 -10z"/>
<path d="M1381 645 c-1 -21 14 -32 34 -24 19 7 19 8 -2 8 -12 1 -24 7 -26 14
-3 6 -6 8 -6 2z"/>
<path d="M1603 643 c9 -2 23 -2 30 0 6 3 -1 5 -18 5 -16 0 -22 -2 -12 -5z"/>
<path d="M845 630 c-3 -5 -2 -10 4 -10 5 0 13 5 16 10 3 6 2 10 -4 10 -5 0
-13 -4 -16 -10z"/>
<path d="M1508 633 c12 -2 30 -2 40 0 9 3 -1 5 -23 4 -22 0 -30 -2 -17 -4z"/>
<path d="M1708 633 c16 -6 45 -75 35 -82 -5 -3 -15 -15 -23 -26 -11 -16 -9
-15 12 3 26 23 48 16 32 -10 -6 -10 -5 -10 7 -1 14 11 12 19 -10 68 -19 40
-31 55 -46 54 -11 0 -14 -3 -7 -6z"/>
<path d="M1820 619 c0 -13 11 -25 35 -35 31 -13 105 -20 105 -10 0 22 -17 36
-41 36 -16 0 -45 7 -64 14 -33 14 -35 14 -35 -5z"/>
<path d="M875 617 c-10 -8 -14 -17 -9 -20 6 -3 15 3 22 14 14 23 12 24 -13 6z"/>
<path d="M1448 623 c7 -3 16 -2 19 1 4 3 -2 6 -13 5 -11 0 -14 -3 -6 -6z"/>
<path d="M1608 623 c6 -2 18 -2 25 0 6 3 1 5 -13 5 -14 0 -19 -2 -12 -5z"/>
<path d="M1668 623 c7 -3 16 -2 19 1 4 3 -2 6 -13 5 -11 0 -14 -3 -6 -6z"/>
<path d="M1500 610 c-11 -7 -5 -8 20 -4 43 8 51 14 19 14 -13 0 -31 -5 -39
-10z"/>
<path d="M1443 603 c9 -2 23 -2 30 0 6 3 -1 5 -18 5 -16 0 -22 -2 -12 -5z"/>
<path d="M2475 601 c-6 -11 9 -23 19 -14 9 9 7 23 -3 23 -6 0 -12 -4 -16 -9z"/>
<path d="M1287 593 c-40 -3 -46 -7 -37 -18 9 -10 18 -11 41 -3 16 5 45 8 64 6
24 -3 35 0 35 9 0 13 -5 13 -103 6z"/>
<path d="M1400 598 c0 -8 39 -102 40 -95 1 21 -23 97 -31 97 -5 0 -9 -1 -9 -2z"/>
<path d="M2895 590 c3 -5 8 -10 11 -10 2 0 4 5 4 10 0 6 -5 10 -11 10 -5 0 -7
-4 -4 -10z"/>
<path d="M2272 579 c3 -8 19 -16 36 -20 41 -8 56 -21 77 -66 14 -30 15 -42 6
-74 -15 -51 -62 -89 -109 -89 -44 0 -98 30 -107 59 -3 12 -13 21 -21 21 -24 0
36 -71 73 -86 45 -19 76 -17 116 6 46 28 71 80 64 137 -2 25 0 57 6 73 14 36
3 49 -21 27 -21 -19 -42 -22 -42 -7 0 6 -9 10 -21 10 -11 0 -30 5 -41 11 -16
9 -19 8 -16 -2z m136 -31 c-2 -6 -10 -14 -16 -16 -7 -2 -10 2 -6 12 7 18 28
22 22 4z"/>
<path d="M2224 535 c-10 -8 -14 -15 -8 -15 6 0 17 7 24 15 16 19 9 19 -16 0z"/>
<path d="M2327 529 c7 -7 15 -10 18 -7 3 3 -2 9 -12 12 -14 6 -15 5 -6 -5z"/>
<path d="M860 512 c0 -13 11 -24 31 -31 37 -13 63 -14 34 -1 -19 8 -19 9 3 9
12 1 22 -5 22 -13 0 -8 14 -19 30 -25 32 -11 40 -1 15 19 -8 6 -20 8 -26 4 -7
-4 -9 -3 -5 4 6 10 -2 14 -56 28 -18 4 -20 3 -8 -5 13 -9 13 -11 -2 -11 -10 0
-18 6 -18 14 0 8 -4 18 -10 21 -5 3 -10 -3 -10 -13z"/>
<path d="M1125 516 c-16 -11 -10 -13 39 -15 40 -1 55 2 51 9 -4 6 -14 9 -22 6
-8 -3 -23 -2 -32 4 -13 6 -24 5 -36 -4z"/>
<path d="M2445 500 c3 -5 11 -10 16 -10 6 0 7 5 4 10 -3 6 -11 10 -16 10 -6 0
-7 -4 -4 -10z"/>
<path d="M2600 496 c0 -6 9 -22 20 -36 15 -20 21 -23 31 -12 11 10 10 12 -3
12 -8 0 -21 7 -28 15 -10 13 -9 15 11 15 30 0 53 -15 45 -28 -3 -5 1 -13 10
-16 24 -9 25 -8 12 17 -7 12 -13 23 -13 24 0 1 -20 6 -43 11 -30 7 -42 7 -42
-2z"/>
<path d="M2742 484 c10 -10 20 -15 24 -12 3 4 -5 12 -18 18 -22 12 -22 12 -6
-6z"/>
<path d="M1445 467 c5 -20 2 -27 -14 -32 -12 -3 -35 -24 -53 -46 -25 -31 -36
-38 -57 -33 -24 4 -24 4 4 -9 28 -14 31 -13 45 7 15 20 44 50 72 72 7 6 39 10
70 10 42 -1 64 -7 87 -24 l31 -23 35 32 c43 40 38 52 -6 15 -28 -24 -33 -25
-48 -13 -24 21 -61 31 -108 29 -32 -1 -43 2 -43 13 0 7 -5 17 -10 20 -7 4 -9
-2 -5 -18z"/>
<path d="M1685 480 c-3 -5 -1 -10 4 -10 6 0 11 5 11 10 0 6 -2 10 -4 10 -3 0
-8 -4 -11 -10z"/>
<path d="M2200 481 c0 -5 9 -11 21 -13 l21 -3 -22 -27 -21 -28 50 0 c27 0 53
5 56 10 4 7 -7 9 -29 6 -40 -5 -43 0 -21 30 22 29 18 34 -20 34 -19 0 -35 -4
-35 -9z"/>
<path d="M2308 483 c-19 -3 -26 -10 -25 -24 1 -11 9 -19 19 -19 19 0 58 29 58
42 0 8 -4 8 -52 1z"/>
<path d="M846 463 c-3 -8 -2 -12 2 -9 13 8 114 -21 122 -35 6 -8 9 -8 15 1 9
14 13 12 -67 37 -56 18 -68 19 -72 6z"/>
<path d="M1141 464 c0 -11 3 -14 6 -6 3 7 2 16 -1 19 -3 4 -6 -2 -5 -13z"/>
<path d="M1241 464 c0 -11 3 -14 6 -6 3 7 2 16 -1 19 -3 4 -6 -2 -5 -13z"/>
<path d="M1938 473 c7 -3 16 -2 19 1 4 3 -2 6 -13 5 -11 0 -14 -3 -6 -6z"/>
<path d="M1682 420 c-43 -39 -43 -39 -27 -69 17 -35 30 -40 33 -13 1 9 3 29 5
44 2 14 11 38 20 52 22 34 20 33 -31 -14z m4 -46 c-5 -14 -9 -15 -19 -5 -9 9
-9 14 3 21 18 11 24 6 16 -16z"/>
<path d="M2780 449 c0 -5 9 -9 20 -9 11 0 20 2 20 4 0 2 -9 6 -20 9 -11 3 -20
1 -20 -4z"/>
<path d="M791 404 c-19 -13 -31 -24 -27 -24 13 0 66 34 66 42 0 10 1 11 -39
-18z"/>
<path d="M2820 420 c0 -5 5 -10 11 -10 5 0 7 5 4 10 -3 6 -8 10 -11 10 -2 0
-4 -4 -4 -10z"/>
<path d="M1028 413 c7 -3 16 -2 19 1 4 3 -2 6 -13 5 -11 0 -14 -3 -6 -6z"/>
<path d="M2560 412 c0 -5 7 -15 15 -22 8 -7 15 -8 15 -2 0 5 -7 15 -15 22 -8
7 -15 8 -15 2z"/>
<path d="M1756 376 c-14 -19 -26 -36 -26 -39 0 -2 14 -2 30 1 17 2 30 9 30 14
0 6 -7 7 -16 4 -10 -4 -14 -1 -12 6 3 7 11 13 18 13 16 0 25 21 12 29 -6 3
-22 -10 -36 -28z"/>
<path d="M2641 388 c0 -12 3 -17 6 -10 2 6 9 9 15 6 6 -4 9 -1 6 6 -8 24 -28
23 -27 -2z"/>
<path d="M620 390 c0 -5 5 -10 11 -10 5 0 7 5 4 10 -3 6 -8 10 -11 10 -2 0 -4
-4 -4 -10z"/>
<path d="M1140 380 c8 -5 20 -10 25 -10 6 0 3 5 -5 10 -8 5 -19 10 -25 10 -5
0 -3 -5 5 -10z"/>
<path d="M2490 380 c0 -5 7 -7 15 -4 8 4 15 8 15 10 0 2 -7 4 -15 4 -8 0 -15
-4 -15 -10z"/>
<path d="M650 371 c0 -5 8 -15 18 -22 15 -13 16 -12 4 3 -10 13 -10 17 0 21 8
4 7 6 -4 6 -10 1 -18 -3 -18 -8z"/>
<path d="M951 364 c0 -11 3 -14 6 -6 3 7 2 16 -1 19 -3 4 -6 -2 -5 -13z"/>
<path d="M2872 368 c5 -15 28 -23 28 -10 0 5 -7 13 -16 16 -10 4 -14 1 -12 -6z"/>
<path d="M1208 358 c5 -5 16 -8 23 -6 8 3 3 7 -10 11 -17 4 -21 3 -13 -5z"/>
<path d="M1552 358 c-15 -15 -16 -54 -2 -63 6 -3 10 -17 10 -31 0 -32 13 -24
34 20 26 55 -5 111 -42 74z m32 -51 c-3 -9 -10 -17 -15 -17 -11 0 -12 34 -2
43 11 12 24 -8 17 -26z"/>
<path d="M1414 346 c-11 -28 22 -63 66 -71 22 -4 40 -9 40 -11 0 -2 -9 -18
-20 -36 -21 -34 -26 -68 -11 -68 4 0 20 9 35 21 28 22 37 65 11 56 -11 -5 -12
-1 -5 19 16 41 -21 89 -78 100 -24 5 -33 3 -38 -10z m81 -36 c15 -17 16 -20 3
-20 -9 0 -26 9 -39 20 -23 19 -23 19 -3 20 11 0 29 -9 39 -20z m35 -94 c0 -3
-4 -8 -10 -11 -5 -3 -10 -1 -10 4 0 6 5 11 10 11 6 0 10 -2 10 -4z"/>
<path d="M2456 343 c-6 -14 -5 -15 5 -6 7 7 10 15 7 18 -3 3 -9 -2 -12 -12z"/>
<path d="M2691 333 c7 -12 15 -20 18 -17 3 2 -3 12 -13 22 -17 16 -18 16 -5
-5z"/>
<path d="M918 314 c-30 -16 -68 -64 -68 -86 0 -21 -20 -37 -39 -31 -12 3 -11
2 2 -7 15 -10 21 -8 32 7 8 10 15 24 15 31 0 21 39 72 54 72 8 0 19 7 26 15
15 18 14 17 -22 -1z"/>
<path d="M1320 322 c8 -4 16 -19 17 -34 5 -63 24 -107 63 -142 40 -36 55 -40
152 -38 56 1 124 75 131 143 2 19 7 40 11 47 4 7 2 12 -7 12 -10 0 -16 -15
-19 -48 -19 -194 -305 -183 -312 12 -1 42 -10 56 -36 55 -13 0 -13 -1 0 -7z"/>
<path d="M1767 322 c8 -5 8 -12 -3 -26 -14 -19 -14 -19 -14 2 0 12 -4 22 -8
22 -5 0 -6 -14 -4 -32 l5 -32 23 30 c29 35 30 44 7 44 -12 0 -14 -3 -6 -8z"/>
<path d="M2392 313 c-5 -10 -6 -27 -1 -38 6 -17 8 -15 8 12 1 17 7 34 14 36 9
4 9 6 0 6 -7 1 -16 -7 -21 -16z"/>
<path d="M2850 320 c20 -13 33 -13 25 0 -3 6 -14 10 -23 10 -15 0 -15 -2 -2
-10z"/>
<path d="M2727 290 c6 -8 13 -26 16 -40 l4 -25 2 26 c0 15 -7 33 -16 40 -16
12 -17 12 -6 -1z"/>
<path d="M666 253 c-6 -14 -5 -15 5 -6 7 7 10 15 7 18 -3 3 -9 -2 -12 -12z"/>
<path d="M2410 199 c0 -11 4 -18 10 -14 5 3 7 12 3 20 -7 21 -13 19 -13 -6z"/>
<path d="M2576 206 c10 -8 21 -12 24 -10 5 6 -21 24 -34 24 -6 0 -1 -6 10 -14z"/>
<path d="M2707 164 c-10 -13 -14 -24 -10 -24 9 0 36 40 31 45 -2 2 -11 -8 -21
-21z"/>
<path d="M2925 165 c3 -16 13 -37 21 -45 23 -24 18 20 -7 50 l-21 25 7 -30z"/>
<path d="M646 165 c-3 -8 -1 -15 4 -15 6 0 10 7 10 15 0 8 -2 15 -4 15 -2 0
-6 -7 -10 -15z"/>
<path d="M2620 171 c0 -14 38 -34 53 -27 7 2 5 5 -5 5 -9 1 -24 8 -32 17 -9 8
-16 11 -16 5z"/>
<path d="M770 142 c-23 -22 -23 -24 -3 -13 12 6 25 16 28 22 13 20 0 15 -25
-9z"/>
<path d="M2682 109 c2 -6 8 -10 13 -10 5 0 11 4 13 10 2 6 -4 11 -13 11 -9 0
-15 -5 -13 -11z"/>
<path d="M2910 106 c0 -8 -9 -18 -20 -21 -12 -4 -20 -15 -20 -28 0 -19 2 -19
30 8 30 28 39 55 20 55 -5 0 -10 -6 -10 -14z"/>
<path d="M643 55 c-3 -9 -3 -18 -1 -21 3 -3 8 4 11 16 6 23 -1 27 -10 5z"/>
<path d="M711 34 c0 -11 3 -14 6 -6 3 7 2 16 -1 19 -3 4 -6 -2 -5 -13z"/>
</g>
</svg>
