<?xml version="1.0" standalone="no"?>
<!DOCTYPE svg PUBLIC "-//W3C//DTD SVG 20010904//EN"
 "http://www.w3.org/TR/2001/REC-SVG-20010904/DTD/svg10.dtd">
<svg version="1.0" xmlns="http://www.w3.org/2000/svg"
 width="820.000000pt" height="529.000000pt" viewBox="0 0 820.000000 529.000000"
 preserveAspectRatio="xMidYMid meet">
<metadata>
Created by potrace 1.16, written by Peter Selinger 2001-2019
</metadata>
<g transform="translate(0.000000,529.000000) scale(0.100000,-0.100000)"
fill="#000000" stroke="none">
<path d="M4029 4885 c-3 -6 -37 -110 -74 -232 l-70 -223 -240 -2 -240 -3 188
-138 c103 -76 189 -143 192 -148 3 -5 -26 -108 -65 -230 -39 -121 -69 -223
-67 -226 3 -2 89 58 192 136 l186 140 192 -143 c106 -79 193 -142 195 -141 1
1 -29 101 -68 222 -38 121 -70 227 -70 234 0 8 86 77 190 154 l190 140 -239 3
-240 2 -46 148 c-80 254 -101 316 -106 307z m77 -287 l58 -188 205 -2 206 -3
-162 -120 c-89 -66 -162 -126 -162 -133 -1 -11 96 -324 117 -381 4 -10 1 -13
-11 -8 -13 5 -196 138 -313 228 -7 6 -72 -37 -173 -112 -89 -67 -164 -119
-167 -116 -3 3 19 84 49 179 30 95 57 183 61 194 6 18 -14 37 -144 134 -83 62
-149 115 -146 117 7 7 306 -219 306 -231 0 -6 -25 -89 -55 -185 -31 -96 -53
-176 -51 -179 3 -2 72 45 154 107 82 61 152 111 156 111 3 0 75 -51 159 -114
83 -63 153 -114 154 -112 1 1 -24 87 -57 191 -33 104 -56 191 -52 194 5 3 76
56 158 116 l149 110 -196 3 -196 2 -58 190 c-32 104 -61 188 -63 185 -2 -2
-30 -86 -62 -187 l-57 -183 -204 -5 c-112 -3 -208 -3 -214 0 -5 3 84 7 199 10
l210 5 56 180 c71 229 69 224 79 205 5 -8 35 -99 67 -202z"/>
<path d="M3930 3685 c-8 -2 -49 -9 -90 -15 -397 -64 -760 -338 -950 -719 -94
-190 -134 -365 -134 -596 1 -179 20 -294 75 -452 137 -386 453 -695 836 -816
141 -45 246 -60 403 -60 354 1 656 128 910 383 259 259 390 577 390 944 0 364
-127 679 -378 938 -253 261 -584 401 -942 397 -58 -1 -112 -3 -120 -4z m393
-50 c173 -39 363 -125 496 -226 153 -115 306 -297 390 -467 45 -89 97 -251
116 -356 22 -127 20 -350 -4 -474 -52 -267 -171 -493 -360 -683 -436 -435
-1097 -500 -1611 -156 -96 64 -283 251 -344 344 -213 325 -277 707 -181 1078
127 487 533 863 1026 950 105 18 373 13 472 -10z"/>
<path d="M3943 3630 c-300 -33 -547 -152 -759 -364 -190 -191 -304 -404 -355
-668 -24 -124 -26 -338 -4 -464 94 -535 511 -953 1040 -1040 146 -24 354 -15
495 21 231 60 397 154 571 325 213 209 330 437 374 730 66 433 -110 901 -441
1172 -166 135 -358 228 -549 267 -120 23 -273 32 -372 21z m399 -114 c74 -21
102 -54 95 -111 -4 -28 -15 -48 -38 -69 -29 -26 -37 -28 -85 -23 l-53 6 -11
-37 c-5 -20 -10 -43 -10 -49 0 -14 -56 -18 -63 -5 -4 6 54 265 67 299 3 8 14
12 23 9 10 -2 44 -12 75 -20z m-435 -131 c46 -71 82 -134 80 -140 -2 -5 -15
-11 -29 -13 -19 -2 -31 5 -48 28 -14 19 -28 29 -38 26 -10 -3 -36 -10 -59 -16
-40 -10 -43 -13 -43 -46 0 -27 -5 -37 -25 -46 -14 -6 -28 -8 -32 -5 -12 13 24
329 39 338 7 5 26 8 43 7 26 -3 39 -18 112 -133z m-350 -109 c46 -63 85 -121
89 -129 6 -16 -30 -47 -54 -47 -7 0 -65 25 -128 55 l-115 54 37 -52 c21 -29
50 -68 66 -88 33 -44 35 -65 7 -74 -11 -4 -22 -5 -23 -3 -26 31 -168 232 -172
242 -3 8 9 23 30 35 l35 22 110 -56 c61 -30 111 -53 111 -49 0 3 -20 31 -43
62 -74 96 -81 110 -67 127 7 8 18 15 24 15 6 0 48 -52 93 -114z m1171 70 c111
-58 119 -169 20 -268 -66 -66 -141 -63 -215 7 -45 43 -45 45 -41 98 5 60 39
118 92 155 36 26 103 29 144 8z m-463 -236 c352 -100 586 -434 562 -803 -14
-223 -118 -425 -291 -563 -227 -182 -550 -218 -807 -88 -296 148 -461 450
-427 782 11 111 31 179 86 287 38 74 63 107 142 185 126 127 243 188 418 220
71 13 238 3 317 -20z m739 -32 c8 -12 13 -25 11 -29 -3 -4 -50 -39 -105 -79
-55 -39 -100 -73 -100 -76 0 -2 12 -22 26 -44 22 -33 24 -43 14 -55 -7 -8 -16
-15 -20 -15 -5 0 -29 30 -55 66 -41 57 -45 68 -33 80 20 20 231 173 240 174 4
0 14 -10 22 -22z m-1759 -99 c77 -18 144 -35 148 -39 5 -4 1 -19 -8 -33 -14
-22 -20 -24 -48 -16 -45 13 -42 14 -76 -42 l-32 -50 21 -29 c24 -33 25 -53 6
-69 -11 -9 -23 -1 -58 41 -99 118 -158 196 -158 209 0 23 30 59 48 59 9 0 80
-14 157 -31z m1913 -188 c-3 -14 -256 -121 -285 -121 -12 0 -30 47 -22 54 2 1
67 28 144 59 128 51 141 54 153 39 7 -9 11 -23 10 -31z m-2060 -141 c126 -22
132 -24 132 -47 0 -32 -21 -38 -86 -26 -30 5 -57 7 -59 3 -3 -4 -7 -32 -11
-63 l-6 -55 61 -7 c67 -8 76 -14 67 -52 -5 -19 -12 -24 -29 -20 -12 3 -82 15
-154 27 l-133 23 0 30 0 29 64 -6 c71 -8 70 -9 81 66 l7 45 -58 9 c-45 7 -60
13 -62 27 -6 32 6 50 31 44 12 -3 82 -15 155 -27z m2077 -59 c43 -24 67 -75
62 -135 -4 -49 -17 -66 -51 -66 -14 0 -17 5 -11 23 17 54 16 73 -4 99 -37 46
-143 45 -186 -2 -23 -26 -23 -78 0 -114 l17 -26 -31 0 c-27 0 -34 5 -47 35
-29 69 -12 145 41 179 56 37 151 40 210 7z m-1968 -359 c23 -61 23 -138 -2
-175 -28 -43 -84 -67 -156 -67 -58 0 -64 2 -99 38 -72 71 -80 183 -16 206 17
6 18 2 13 -34 -18 -137 99 -199 201 -107 25 23 30 83 10 109 -10 12 -20 13
-47 6 -31 -9 -33 -11 -27 -42 5 -28 3 -34 -14 -39 -11 -3 -22 -2 -24 1 -10 19
-27 114 -21 120 9 10 138 39 152 34 7 -2 20 -25 30 -50z m1881 34 c74 -13 138
-28 142 -32 5 -5 5 -31 0 -59 -5 -27 -12 -65 -15 -82 -5 -27 -10 -33 -32 -33
-22 0 -25 3 -20 28 20 102 20 102 1 102 -11 0 -29 3 -40 6 -19 5 -23 0 -30
-43 -8 -40 -13 -49 -33 -51 -23 -4 -23 -2 -17 51 l7 54 -32 7 c-55 11 -58 9
-65 -43 -3 -27 -10 -54 -14 -61 -10 -16 -53 -3 -47 14 3 7 11 47 17 89 10 59
16 77 29 77 9 0 76 -11 149 -24z m-1619 -672 c100 -84 -18 -255 -121 -174 -82
64 -43 200 57 200 21 0 45 -9 64 -26z m1302 6 c52 -28 63 -129 18 -176 -74
-78 -201 2 -170 107 20 66 94 99 152 69z m-626 -154 c64 -27 64 -75 -1 -102
-62 -26 -149 -11 -183 30 -19 23 -6 45 40 68 41 22 98 23 144 4z m274 -82 c90
-36 55 -102 -58 -111 -76 -6 -126 19 -126 62 0 56 100 83 184 49z m-510 -18
c61 -55 -35 -118 -142 -94 -80 18 -100 64 -44 99 42 27 154 24 186 -5z m259
-126 c105 -64 -72 -142 -186 -81 -39 21 -23 75 28 94 37 14 126 6 158 -13z"/>
<path d="M4655 3302 c-42 -9 -105 -93 -105 -142 0 -31 47 -70 84 -70 38 0 87
45 111 103 14 33 14 40 0 66 -15 30 -56 50 -90 43z"/>
<path d="M4301 2004 c-18 -13 -22 -23 -17 -46 l6 -30 -49 5 -48 5 24 -24 c16
-16 35 -24 58 -24 19 0 35 -4 35 -10 0 -15 38 -50 55 -50 12 0 11 6 -5 35 -26
46 -25 62 3 76 12 7 32 23 45 37 l23 24 -46 -4 c-31 -2 -45 1 -45 9 0 17 -11
16 -39 -3z"/>
<path d="M4042 1857 c-1 -11 -9 -17 -19 -15 -15 3 -18 -4 -16 -42 2 -40 -1
-47 -27 -62 -17 -9 -30 -24 -30 -33 0 -11 4 -13 13 -8 6 4 28 13 47 20 30 11
40 10 70 -5 19 -9 38 -21 43 -27 4 -6 10 -1 13 12 4 15 15 23 35 25 27 3 28 4
16 28 -12 23 -17 25 -74 22 l-62 -3 -4 53 c-2 29 -4 45 -5 35z"/>
<path d="M5516 1748 c-121 -5 -222 -11 -225 -13 -2 -3 8 -18 22 -33 15 -16 27
-33 27 -38 0 -6 -23 -49 -51 -95 -156 -256 -375 -457 -604 -553 -118 -49 -225
-75 -368 -89 l-119 -12 45 -55 c25 -30 43 -58 41 -62 -3 -5 -70 -8 -150 -8
-160 0 -153 -4 -129 74 8 27 15 53 15 57 0 5 -28 6 -62 2 -78 -7 -239 10 -338
36 -257 68 -490 228 -721 497 -44 51 -79 98 -79 105 0 8 12 34 25 58 14 24 23
46 20 49 -7 7 -586 -39 -603 -48 -9 -4 23 -29 90 -68 56 -34 109 -66 117 -71
11 -7 -5 -36 -73 -135 -47 -70 -86 -129 -86 -131 0 -2 81 24 181 57 99 33 183
58 186 55 3 -3 -6 -27 -21 -53 -14 -25 -26 -47 -26 -49 0 -5 243 -219 315
-276 206 -165 407 -270 654 -340 57 -16 106 -31 109 -34 2 -2 -10 -23 -29 -47
-18 -24 -36 -48 -41 -54 -6 -8 32 -19 129 -38 245 -46 343 -45 639 9 208 38
197 30 134 100 l-54 59 95 23 c402 98 741 315 996 638 l63 79 -22 23 c-28 29
-28 29 162 -6 85 -16 156 -29 156 -28 1 1 -38 58 -87 127 l-89 125 33 29 c17
16 61 56 97 88 l65 58 -110 -2 c-61 0 -209 -5 -329 -10z m-131 -369 c10 -22
31 -51 46 -63 39 -33 23 -53 -22 -28 -32 19 -131 41 -116 26 3 -4 1 -16 -5
-27 -9 -18 -5 -26 38 -63 36 -32 46 -46 38 -54 -8 -8 -24 -1 -58 29 -49 43
-61 48 -71 31 -7 -12 -25 -13 -25 -2 0 5 21 33 47 63 41 48 50 54 80 51 38 -4
39 -1 17 33 -15 23 -12 45 5 45 4 0 16 -18 26 -41z m-515 -429 c0 -5 -8 -13
-17 -18 -15 -9 -14 -15 10 -70 14 -33 23 -63 20 -66 -14 -14 -25 -3 -48 49
-23 53 -36 63 -63 47 -9 -7 -8 -21 8 -66 30 -88 12 -99 -60 -36 -24 22 -46 38
-48 36 -2 -2 4 -21 12 -41 19 -45 20 -68 4 -63 -6 2 -22 35 -35 73 -18 53 -20
71 -10 77 20 13 25 10 72 -33 l45 -42 -15 43 c-8 23 -15 48 -15 54 0 6 28 23
63 37 72 31 77 32 77 19z m-1006 -297 c2 -10 8 -34 11 -53 12 -58 18 -57 34 6
11 38 21 59 31 59 10 0 20 -21 31 -59 17 -66 21 -65 39 12 8 34 17 52 27 52
11 0 14 -6 9 -22 -3 -13 -14 -51 -22 -86 -14 -54 -20 -63 -37 -60 -15 2 -24
14 -32 45 -10 43 -25 67 -25 42 0 -8 -5 -31 -11 -51 -15 -55 -45 -52 -59 5 -6
23 -15 58 -21 77 -12 46 -12 50 5 50 8 0 17 -8 20 -17z"/>
</g>
</svg>
