<?xml version="1.0" standalone="no"?>
<!DOCTYPE svg PUBLIC "-//W3C//DTD SVG 20010904//EN"
 "http://www.w3.org/TR/2001/REC-SVG-20010904/DTD/svg10.dtd">
<svg version="1.0" xmlns="http://www.w3.org/2000/svg"
 width="300.000000pt" height="300.000000pt" viewBox="0 0 300.000000 300.000000"
 preserveAspectRatio="xMidYMid meet">
<metadata>
Created by potrace 1.10, written by Peter Selinger 2001-2011
</metadata>
<g transform="translate(0.000000,300.000000) scale(0.100000,-0.100000)"
fill="#000000" stroke="none">
<path d="M1235 2664 c-115 -28 -205 -106 -246 -213 -54 -144 14 -380 207 -708
85 -145 225 -363 234 -363 11 0 18 80 31 332 21 393 -14 716 -98 908 -29 67
-29 68 -128 44z m109 -57 c58 -119 98 -389 95 -642 0 -77 2 -149 7 -159 4 -11
4 -17 -2 -14 -5 4 -10 -45 -12 -115 -2 -67 -4 -133 -6 -147 -2 -14 -4 -37 -5
-52 0 -16 -5 -28 -10 -28 -20 0 -145 212 -133 225 4 5 1 5 -5 1 -7 -4 -13 -2
-13 3 0 6 -8 20 -17 31 -10 11 -50 84 -91 162 -179 344 -203 499 -101 647 38
56 97 96 170 115 82 21 101 17 123 -27z"/>
<path d="M1636 2621 c-84 -187 -121 -548 -97 -951 12 -213 20 -290 30 -290 9
0 167 246 241 375 81 140 162 310 190 400 13 40 24 110 27 162 5 86 4 95 -24
155 -51 107 -123 164 -245 193 -92 22 -92 22 -122 -44z m163 11 c74 -22 163
-104 189 -175 36 -98 22 -227 -44 -382 -33 -77 -134 -276 -179 -351 -19 -32
-35 -62 -35 -67 0 -4 -6 -5 -12 -1 -7 4 -10 4 -6 -1 10 -11 -92 -184 -114
-193 -4 -2 -8 -11 -8 -19 0 -9 -3 -14 -6 -10 -22 22 -33 654 -14 802 6 44 11
87 12 95 5 90 72 304 101 322 13 8 36 4 116 -20z"/>
<path d="M653 2325 c-166 -198 -186 -382 -58 -532 48 -56 196 -167 339 -254
145 -87 398 -221 405 -213 8 7 -119 258 -209 414 -125 216 -409 630 -432 630
-4 0 -24 -20 -45 -45z m78 -30 c13 -19 27 -35 32 -35 4 0 7 -5 7 -10 0 -6 22
-38 48 -73 57 -73 132 -183 132 -193 0 -4 7 -15 15 -24 17 -19 125 -190 125
-199 0 -3 9 -17 19 -30 10 -14 16 -32 13 -40 -3 -9 -1 -13 3 -8 5 4 19 -12 33
-35 35 -63 88 -168 104 -205 7 -18 17 -33 22 -33 4 0 6 -6 3 -14 -3 -8 -1 -17
6 -19 7 -2 10 -7 7 -10 -3 -3 -30 10 -60 29 -30 19 -60 34 -67 34 -7 0 -13 4
-13 8 0 5 -6 9 -12 9 -19 1 -189 99 -183 105 3 3 -9 11 -27 17 -44 15 -188
113 -182 123 3 5 1 7 -4 6 -27 -9 -167 129 -195 190 -14 33 -21 69 -21 122 -1
67 3 83 35 150 20 41 45 84 56 95 11 11 28 33 37 48 24 36 39 34 67 -8z"/>
<path d="M2204 2248 c-121 -164 -201 -284 -302 -453 -93 -156 -250 -461 -241
-469 3 -3 66 26 140 65 309 163 545 324 620 423 83 110 90 230 21 370 -37 73
-122 186 -141 186 -4 0 -48 -55 -97 -122z m168 9 c70 -103 92 -162 92 -247 0
-59 -5 -85 -24 -122 -13 -27 -28 -48 -33 -48 -6 0 -8 -3 -4 -6 15 -15 -237
-224 -270 -224 -7 0 -13 -3 -13 -7 0 -5 -10 -13 -23 -19 -12 -6 -60 -34 -107
-63 -113 -68 -269 -146 -277 -137 -4 3 5 28 18 54 14 26 49 93 79 150 29 56
57 102 62 102 5 0 7 4 4 9 -3 5 1 14 9 21 8 7 15 19 15 26 0 8 4 14 8 14 5 0
16 17 26 38 31 65 195 313 295 445 84 111 78 110 143 14z"/>
<path d="M354 1743 c-3 -24 -4 -81 -2 -126 4 -64 11 -95 34 -142 40 -82 117
-158 201 -198 l68 -32 250 -3 c138 -2 281 -2 320 0 l70 3 -95 61 c-129 83
-414 249 -647 377 l-192 105 -7 -45z m143 -57 c54 -29 125 -68 158 -86 33 -19
84 -46 114 -62 70 -37 92 -53 86 -61 -3 -4 -2 -5 1 -2 7 5 97 -39 124 -61 8
-6 31 -20 50 -30 47 -26 190 -115 190 -120 0 -2 -125 -2 -277 -1 l-278 3 -59
28 c-65 31 -159 112 -149 129 3 6 1 7 -5 3 -7 -4 -23 19 -43 60 -27 55 -34 83
-37 152 -4 64 -1 86 9 93 8 5 15 9 16 9 2 0 47 -24 100 -54z"/>
<path d="M2410 1664 c-259 -144 -474 -270 -610 -358 l-95 -61 70 -3 c39 -2
183 -2 320 0 l250 3 68 32 c83 40 160 116 201 198 25 51 30 75 34 155 2 52 0
109 -4 127 l-9 32 -225 -125z m220 -10 c0 -95 -25 -172 -74 -229 -14 -17 -26
-33 -26 -37 0 -5 -7 -8 -17 -8 -9 0 -14 -3 -10 -6 12 -12 -64 -65 -133 -92
-38 -15 -534 -30 -567 -18 -14 6 -2 17 57 55 41 26 100 61 130 77 30 16 63 35
72 43 21 18 124 77 158 92 14 6 32 16 40 23 26 22 208 116 225 116 9 0 14 4
11 9 -3 4 11 16 32 25 20 9 48 23 62 31 33 19 40 7 40 -81z"/>
<path d="M925 1174 c-171 -7 -325 -13 -343 -13 l-33 -1 33 -46 c77 -107 172
-168 264 -168 64 0 150 40 316 150 108 71 133 96 90 93 -9 -1 -156 -8 -327
-15z m263 -33 c-54 -38 -170 -109 -215 -131 -26 -13 -56 -27 -65 -32 -26 -12
-103 -10 -135 4 -37 16 -89 55 -130 97 -36 37 -40 49 -20 56 13 5 412 22 520
22 65 0 66 0 45 -16z"/>
<path d="M1726 1181 c-7 -10 207 -152 304 -202 140 -71 271 -27 384 131 l34
47 -111 7 c-62 3 -209 8 -327 11 -118 3 -229 8 -247 11 -17 2 -34 0 -37 -5z
m491 -37 c165 -6 182 -8 173 -23 -20 -35 -78 -90 -124 -120 -41 -26 -60 -31
-109 -31 -50 0 -72 7 -139 42 -44 22 -85 47 -92 53 -7 7 -28 20 -46 30 -46 23
-71 45 -64 57 4 6 49 8 113 4 58 -3 188 -8 288 -12z"/>
<path d="M350 525 l0 -195 40 0 40 0 0 80 0 80 88 0 87 0 -3 -80 -4 -80 43 0
44 0 -3 195 -3 195 -40 0 -41 0 4 -80 3 -80 -90 0 -90 0 3 80 4 80 -41 0 -41
0 0 -195z m43 100 c7 -88 30 -101 162 -95 54 2 74 24 77 87 9 139 31 9 26
-154 -2 -73 -6 -103 -14 -103 -9 0 -12 19 -12 61 2 81 -8 89 -111 93 -107 5
-121 -6 -121 -94 0 -33 -4 -60 -10 -60 -6 0 -10 62 -10 167 0 171 4 203 13 98z"/>
<path d="M792 578 c3 -156 13 -189 71 -232 39 -29 155 -29 194 0 58 43 68 76
71 232 l4 142 -40 0 -40 0 -4 -141 c-3 -134 -4 -142 -27 -160 -23 -19 -74 -25
-106 -13 -34 13 -45 58 -45 189 l0 125 -41 0 -41 0 4 -142z m52 -9 c4 -138 20
-172 89 -198 37 -14 87 6 119 49 27 38 25 25 27 156 0 58 5 103 9 100 11 -7 6
-239 -6 -262 -24 -45 -48 -56 -122 -56 -67 -1 -74 1 -103 30 -31 31 -31 33
-34 149 -3 110 1 153 13 141 2 -3 6 -52 8 -109z"/>
<path d="M1325 688 c-7 -18 -43 -100 -80 -183 -37 -82 -69 -156 -72 -162 -4
-9 7 -13 36 -13 39 0 42 2 57 40 l16 40 90 0 90 0 15 -40 c15 -38 18 -40 59
-40 l43 0 -50 113 c-28 61 -66 149 -86 195 -34 80 -36 82 -70 82 -29 0 -36 -5
-48 -32z m107 -91 c21 -49 49 -112 62 -140 13 -29 26 -62 30 -74 10 -31 -12
-30 -23 0 -19 49 -37 57 -130 57 -95 0 -109 -6 -130 -63 -7 -17 -16 -25 -22
-21 -6 3 -7 9 -3 13 5 3 11 15 12 26 2 11 12 35 22 55 9 19 34 76 55 125 21
50 43 96 48 103 21 26 42 5 79 -81z"/>
<path d="M1348 616 c-26 -36 -58 -124 -52 -141 12 -31 128 -34 148 -3 16 26
-47 169 -73 168 -3 0 -14 -11 -23 -24z m79 -123 c4 -10 -11 -13 -55 -13 l-61
0 23 53 c13 28 27 61 30 72 6 16 12 8 32 -40 14 -33 28 -66 31 -72z"/>
<path d="M1552 708 c3 -7 33 -95 68 -196 l63 -183 35 3 35 3 42 124 c23 68 44
120 47 115 3 -5 22 -62 44 -126 l39 -118 35 0 35 0 61 178 c34 97 65 185 69
195 6 15 1 17 -36 17 l-44 0 -38 -123 c-21 -67 -38 -128 -37 -134 0 -7 -4 -13
-10 -13 -5 0 -10 8 -11 18 0 9 -17 69 -37 132 l-38 115 -34 0 -34 0 -43 -130
c-23 -71 -43 -132 -43 -135 -1 -3 -16 45 -35 105 -53 173 -48 165 -96 165 -29
0 -40 -4 -37 -12z m340 -138 c21 -63 45 -121 53 -129 24 -25 41 2 83 130 20
63 42 112 47 111 6 -2 9 -7 8 -10 -1 -4 -26 -76 -54 -159 -40 -115 -57 -153
-69 -153 -12 0 -27 29 -54 110 -45 129 -56 143 -91 110 -13 -13 -23 -26 -21
-29 8 -13 -62 -186 -76 -189 -18 -3 -16 -7 -74 163 -25 72 -47 136 -49 143 -2
6 2 12 9 12 8 0 24 -34 40 -87 61 -200 84 -207 136 -41 38 120 47 141 62 136
7 -3 29 -56 50 -118z"/>
<path d="M2190 525 l0 -195 148 0 148 0 0 35 0 35 -108 0 -108 0 0 49 0 48 70
-5 70 -5 0 42 0 43 -70 -4 -70 -3 0 43 0 44 105 -4 105 -3 0 38 0 37 -145 0
-145 0 0 -195z m200 156 c0 -4 -25 -9 -56 -10 -31 -1 -64 -7 -75 -14 -42 -26
-3 -136 44 -121 13 4 17 2 13 -5 -4 -6 -16 -11 -26 -11 -32 0 -51 -28 -49 -74
3 -66 18 -76 123 -78 84 -1 87 -2 31 -7 -33 -3 -86 -4 -117 -3 l-57 4 -3 46
c-2 26 -2 99 0 164 l3 116 85 1 c46 0 84 -4 84 -8z m50 0 c0 -10 -26 -9 -36 2
-4 4 2 7 14 7 12 0 22 -4 22 -9z m-65 -151 c-7 -12 -45 -14 -45 -2 0 4 11 9
26 10 14 1 23 -2 19 -8z"/>
<path d="M2580 525 l0 -195 38 0 37 0 0 195 0 195 -37 0 -38 0 0 -195z m45 -5
c1 -88 -2 -160 -6 -160 -5 0 -9 75 -9 167 0 91 3 163 6 160 4 -3 8 -78 9 -167z"/>
</g>
</svg>
