<?xml version="1.0" standalone="no"?>
<!DOCTYPE svg PUBLIC "-//W3C//DTD SVG 20010904//EN"
 "http://www.w3.org/TR/2001/REC-SVG-20010904/DTD/svg10.dtd">
<svg version="1.0" xmlns="http://www.w3.org/2000/svg"
 width="300.000000pt" height="172.000000pt" viewBox="0 0 300.000000 172.000000"
 preserveAspectRatio="xMidYMid meet">
<metadata>
Created by potrace 1.10, written by Peter Selinger 2001-2011
</metadata>
<g transform="translate(0.000000,172.000000) scale(0.100000,-0.100000)"
fill="#000000" stroke="none">
<path d="M1613 1633 c0 -20 -13 -38 -47 -68 -29 -25 -46 -48 -46 -62 0 -22 49
-88 50 -67 0 6 -7 17 -15 24 -26 21 -17 51 30 101 42 45 56 81 36 93 -5 3 -8
-6 -8 -21z"/>
<path d="M798 1530 c-2 -65 0 -90 9 -90 7 0 13 19 15 48 3 39 6 47 23 47 17 0
20 -8 23 -47 4 -63 22 -62 22 2 0 52 -16 72 -51 63 -16 -5 -19 1 -19 31 0 20
-4 36 -9 36 -5 0 -11 -41 -13 -90z"/>
<path d="M237 1604 c-4 -4 -7 -16 -7 -26 0 -13 8 -18 33 -20 17 -1 5 -4 -28
-7 l-60 -6 0 -50 c0 -44 3 -50 23 -53 16 -3 22 2 22 16 0 28 19 40 70 44 l45
3 0 50 0 50 -45 3 c-25 2 -49 0 -53 -4z m27 -25 c-3 -5 -10 -7 -15 -3 -5 3 -7
10 -3 15 3 5 10 7 15 3 5 -3 7 -10 3 -15z m51 -25 c0 -18 -6 -29 -15 -31 -73
-9 -90 -15 -90 -30 0 -13 -3 -14 -11 -6 -24 24 -2 43 52 43 l52 0 -7 31 c-4
22 -2 29 7 26 6 -2 12 -17 12 -33z"/>
<path d="M1156 1585 c9 -21 44 -19 44 3 0 14 -2 15 -10 2 -6 -10 -10 -11 -10
-2 0 6 -7 12 -15 12 -9 0 -12 -6 -9 -15z"/>
<path d="M729 1568 c-3 -71 4 -114 19 -125 19 -16 32 -17 32 -3 0 6 -7 10 -15
10 -23 0 -21 87 3 93 16 4 16 5 0 6 -11 1 -18 9 -18 21 0 28 -20 25 -21 -2z"/>
<path d="M1618 1554 c-42 -22 -52 -48 -33 -85 9 -17 14 -38 10 -47 -5 -15 -4
-15 12 0 15 16 16 22 4 55 -14 36 -13 38 20 65 36 30 30 36 -13 12z"/>
<path d="M493 1550 c-21 -8 -22 -16 -22 -90 0 -65 3 -80 16 -80 12 0 14 7 9
31 -6 29 -4 31 19 25 53 -13 86 63 45 104 -22 22 -33 23 -67 10z m52 -55 c0
-36 -2 -40 -25 -40 -23 0 -25 4 -23 40 1 22 2 41 2 43 1 2 11 2 24 0 19 -3 22
-9 22 -43z"/>
<path d="M608 1554 c-5 -4 -8 -29 -8 -55 0 -53 19 -73 58 -62 32 8 29 -24 -3
-39 -34 -15 -32 -30 2 -17 38 14 43 25 43 101 0 80 -18 101 -22 26 -3 -49 -5
-53 -28 -53 -23 0 -25 4 -30 53 -3 30 -8 50 -12 46z"/>
<path d="M930 1540 c-11 -11 -20 -31 -20 -45 0 -28 32 -65 55 -65 23 0 55 37
55 65 0 28 -32 65 -55 65 -8 0 -24 -9 -35 -20z m61 -21 c8 -16 8 -28 0 -46
-21 -45 -70 -11 -57 40 8 33 40 36 57 6z"/>
<path d="M1055 1547 c-16 -9 -20 -23 -20 -61 0 -62 20 -58 21 4 1 41 3 45 25
45 22 0 24 -5 27 -47 4 -63 22 -62 22 0 0 67 -27 88 -75 59z"/>
<path d="M2376 1540 c-23 -12 -60 -20 -87 -20 -30 0 -54 -6 -67 -17 -40 -35
-68 -266 -39 -322 6 -13 22 -28 35 -32 23 -9 23 -8 16 36 -9 61 2 112 28 126
30 16 50 -9 56 -73 6 -75 39 -110 102 -106 l45 3 -3 50 -4 50 51 -3 c42 -3 51
-7 51 -22 0 -41 105 -82 125 -50 4 6 9 8 13 6 4 -2 5 23 4 56 -3 38 2 81 13
115 16 52 16 77 0 116 -6 14 -2 17 26 17 19 0 48 -4 65 -9 29 -8 31 -7 30 18
-1 20 -5 25 -21 23 -55 -9 -141 1 -179 21 -30 15 -61 21 -116 22 -41 1 -82 4
-90 8 -8 3 -33 -3 -54 -13z m73 -19 c6 -10 13 -37 17 -59 l6 -41 -42 2 c-47 2
-48 1 -64 -85 -7 -40 11 -56 21 -18 4 14 14 20 33 20 15 0 33 6 39 14 14 17
19 122 8 154 -8 22 -7 22 65 20 l73 -1 -65 -7 -65 -7 70 -3 c39 -2 76 -3 83
-3 6 1 12 -3 12 -9 0 -5 4 -7 8 -4 4 2 18 -4 31 -13 31 -24 40 -104 18 -148
-12 -22 -15 -47 -11 -91 5 -52 3 -62 -13 -69 -10 -5 -24 -8 -30 -7 -7 1 -17 2
-23 3 -5 0 -10 12 -10 26 0 17 4 23 15 19 8 -4 12 -10 9 -15 -3 -5 2 -6 12 -2
14 5 13 8 -7 19 -13 7 -27 10 -31 8 -5 -3 -8 0 -8 5 0 6 6 11 13 11 9 0 9 2
-1 8 -7 5 -34 4 -60 -1 -38 -8 -55 -7 -78 5 l-30 15 4 -52 c3 -38 0 -54 -12
-64 -14 -12 -16 -11 -16 8 0 13 -11 26 -31 36 -19 11 -29 22 -25 31 7 19 -10
64 -25 64 -8 0 -8 -4 -1 -12 12 -16 14 -101 2 -93 -5 3 -8 23 -8 44 0 22 -6
52 -14 69 -13 24 -13 32 -1 47 17 24 17 66 0 59 -7 -2 -13 -17 -12 -32 0 -21
-8 -30 -37 -44 -42 -20 -61 -65 -51 -125 8 -47 -17 -41 -30 7 -9 36 5 185 23
252 11 39 39 53 97 47 16 -2 42 5 58 14 40 22 72 21 84 -2z m-2 -127 c6 -16
-19 -44 -39 -44 -10 0 -11 44 -1 53 12 13 34 7 40 -9z m153 -201 c0 -13 -3
-13 -15 -3 -8 7 -15 16 -15 21 0 5 7 6 15 3 8 -4 15 -13 15 -21z m-190 -35 c0
-21 -4 -22 -31 -8 -10 6 -19 19 -19 30 0 17 3 18 25 8 14 -6 25 -19 25 -30z"/>
<path d="M2384 1514 c-18 -14 -18 -14 6 -3 31 14 36 19 24 19 -6 0 -19 -7 -30
-16z"/>
<path d="M2248 1473 c6 -2 18 -2 25 0 6 3 1 5 -13 5 -14 0 -19 -2 -12 -5z"/>
<path d="M2510 1476 c0 -2 7 -7 16 -10 8 -3 12 -2 9 4 -6 10 -25 14 -25 6z"/>
<path d="M2254 1445 c-9 -22 5 -38 22 -24 18 15 18 25 -1 33 -9 3 -18 -1 -21
-9z"/>
<path d="M2499 1458 c0 -2 -6 -29 -13 -60 -10 -48 -10 -58 1 -58 7 0 13 9 13
19 0 33 11 51 32 51 18 0 19 -4 14 -35 -4 -20 -3 -35 2 -35 22 0 31 79 10 82
-7 0 -20 2 -28 2 -8 1 -14 9 -12 19 2 9 -2 17 -8 17 -5 0 -10 -1 -11 -2z"/>
<path d="M2595 1418 c-10 -30 -25 -94 -25 -105 0 -21 21 -15 27 7 4 14 14 20
32 20 33 0 51 17 51 47 0 34 -75 60 -85 31z m63 -30 c3 -17 -32 -43 -47 -34
-5 3 -6 17 -3 31 3 20 10 25 26 23 11 -2 22 -11 24 -20z"/>
<path d="M2520 1330 c0 -5 5 -10 11 -10 5 0 7 5 4 10 -3 6 -8 10 -11 10 -2 0
-4 -4 -4 -10z"/>
<path d="M2550 1301 c0 -6 4 -13 10 -16 6 -3 7 1 4 9 -7 18 -14 21 -14 7z"/>
<path d="M2375 1170 c-3 -5 -1 -10 4 -10 6 0 11 5 11 10 0 6 -2 10 -4 10 -3 0
-8 -4 -11 -10z"/>
<path d="M360 1541 c0 -6 5 -20 12 -30 18 -29 3 -49 -44 -59 l-43 -10 53 -1
c48 -1 53 1 63 26 12 32 -1 77 -24 81 -9 2 -17 -1 -17 -7z"/>
<path d="M344 1496 c-4 -10 -17 -16 -35 -16 -16 0 -29 -5 -29 -10 0 -17 54 -7
69 13 7 10 10 21 7 24 -3 3 -8 -2 -12 -11z"/>
<path d="M245 1470 c-3 -5 -2 -10 4 -10 5 0 13 5 16 10 3 6 2 10 -4 10 -5 0
-13 -4 -16 -10z"/>
<path d="M230 1416 c0 -27 16 -36 65 -36 37 0 58 19 46 39 -10 15 -61 7 -61
-9 0 -18 -18 -10 -23 10 -7 28 -27 25 -27 -4z m100 -6 c0 -5 -7 -10 -16 -10
-8 0 -12 5 -9 10 3 6 10 10 16 10 5 0 9 -4 9 -10z"/>
<path d="M1478 1418 c-16 -5 -28 -14 -28 -19 0 -14 173 -14 199 1 8 4 -28 6
-80 3 -87 -4 -92 -3 -69 11 28 17 18 19 -22 4z"/>
<path d="M1688 1420 c30 -12 28 -34 -5 -59 -16 -11 -23 -21 -17 -21 20 0 64
41 64 60 0 19 -19 30 -48 29 -12 0 -10 -3 6 -9z"/>
<path d="M1480 1359 c0 -18 103 -24 150 -9 30 10 27 10 -73 13 -42 1 -77 -1
-77 -4z"/>
<path d="M245 1340 c7 -12 71 -12 100 -1 13 6 -1 9 -43 9 -39 1 -61 -2 -57 -8z"/>
<path d="M1500 1316 c0 -7 14 -16 31 -20 40 -8 111 3 103 16 -4 6 -23 7 -45 4
-21 -3 -49 -2 -63 4 -20 7 -26 6 -26 -4z"/>
<path d="M1431 1286 c-33 -18 -16 -25 76 -32 82 -7 190 8 208 28 7 8 5 9 -10
3 -33 -12 -144 -22 -202 -17 -52 4 -69 16 -35 25 12 3 12 5 2 5 -8 1 -26 -5
-39 -12z"/>
<path d="M1700 1258 c-14 -5 -68 -13 -120 -18 l-95 -7 80 -1 c80 -2 149 10
160 28 7 12 7 12 -25 -2z"/>
<path d="M1430 1144 c0 -36 -5 -74 -10 -85 -12 -21 -1 -26 18 -7 15 15 17 158
2 158 -6 0 -10 -29 -10 -66z"/>
<path d="M73 1148 c3 -18 12 -109 19 -201 14 -190 5 -174 110 -202 64 -17 70
-17 138 1 38 10 75 21 81 24 6 4 17 79 24 166 8 87 17 178 19 202 l6 42 -201
0 -201 0 5 -32z m160 3 c30 -1 36 -18 10 -28 -45 -16 -53 -33 -53 -119 0 -83
0 -83 -27 -86 -28 -4 -28 -4 9 -21 21 -9 39 -17 40 -17 2 0 2 47 0 105 -3 104
-3 105 20 105 23 0 23 0 21 -132 -2 -103 -5 -132 -15 -129 -7 2 -33 9 -57 15
-31 8 -45 18 -48 31 -25 158 -36 262 -30 272 5 7 44 8 130 4z m197 -31 c0 -15
-3 -30 -7 -34 -5 -4 -9 -31 -11 -59 -1 -29 -4 -83 -7 -122 -2 -38 -4 -80 -4
-91 -1 -17 -11 -24 -48 -33 -27 -7 -56 -14 -65 -17 -15 -4 -18 1 -17 28 2 64
12 82 52 91 27 7 37 14 37 29 0 14 -5 18 -16 14 -9 -3 -26 -6 -40 -6 -16 0
-22 -4 -18 -14 3 -8 2 -16 -3 -19 -4 -3 -8 55 -8 127 l0 133 77 0 c78 -1 78
-1 78 -27z m-221 -311 c41 -12 61 -32 47 -46 -3 -3 -33 2 -66 12 -51 15 -60
22 -60 42 0 19 3 21 18 14 9 -5 37 -15 61 -22z"/>
<path d="M292 1108 c8 -24 118 -22 118 2 0 6 -27 10 -61 10 -44 0 -60 -3 -57
-12z"/>
<path d="M320 1007 c0 -36 1 -37 28 -31 46 10 53 14 47 23 -3 6 -12 8 -20 4
-8 -3 -15 0 -15 6 0 6 9 11 19 11 41 0 29 18 -14 22 l-45 3 0 -38z"/>
<path d="M336 837 c-47 -14 -64 -42 -19 -31 49 12 73 23 73 34 0 12 -4 12 -54
-3z"/>
<path d="M1470 1161 c0 -6 10 -10 21 -8 12 1 24 -4 26 -10 3 -8 -4 -13 -16
-13 -23 0 -43 -30 -33 -47 4 -7 22 -11 40 -11 33 1 33 1 30 47 -3 44 -5 46
-35 49 -19 2 -33 -1 -33 -7z m50 -55 c0 -21 -20 -30 -33 -17 -9 9 -8 14 3 21
21 14 30 12 30 -4z"/>
<path d="M1553 1163 c3 -5 10 -27 16 -50 7 -26 18 -43 26 -43 8 0 15 1 15 3 0
1 7 23 15 50 12 41 12 47 0 47 -10 0 -15 -10 -15 -27 0 -50 -17 -60 -25 -14
-4 26 -12 41 -21 41 -9 0 -13 -3 -11 -7z"/>
<path d="M1650 1161 c0 -6 10 -10 21 -8 31 3 35 -19 4 -27 -18 -5 -25 -13 -25
-32 0 -22 4 -24 35 -22 l36 2 -3 46 c-3 43 -5 45 -35 48 -19 2 -33 -1 -33 -7z
m50 -55 c0 -16 -18 -31 -27 -22 -8 8 5 36 17 36 5 0 10 -6 10 -14z"/>
<path d="M835 1033 c-64 -14 -95 -57 -95 -134 0 -72 28 -112 94 -133 50 -17
136 31 136 75 0 27 -44 25 -62 -3 -17 -26 -71 -29 -95 -5 -23 23 -22 101 2
127 24 27 80 27 95 0 15 -28 60 -27 60 0 0 26 -43 70 -69 70 -11 0 -25 2 -33
4 -7 2 -22 2 -33 -1z m90 -37 c17 -13 27 -27 23 -31 -4 -4 -19 2 -34 14 -63
49 -130 7 -137 -87 -1 -17 -6 -32 -11 -32 -5 0 -6 26 -4 57 4 46 10 61 32 80
37 31 91 31 131 -1z m-124 -183 c13 -16 12 -17 -3 -4 -10 7 -18 15 -18 17 0 8
8 3 21 -13z m125 -9 c-30 -21 -45 -16 -16 6 14 10 27 16 30 13 3 -2 -4 -11
-14 -19z"/>
<path d="M2053 932 c34 -35 37 -41 27 -66 -13 -35 -13 -56 0 -36 15 23 12 -5
-4 -44 -12 -29 -12 -36 0 -48 12 -12 5 -13 -46 -8 -33 3 -67 2 -76 -3 -8 -5
-18 -6 -21 -3 -11 10 16 56 32 56 9 0 15 6 14 13 -3 26 2 36 16 31 8 -4 15 -1
15 5 0 33 -74 -16 -86 -56 -4 -16 -6 -34 -5 -40 5 -30 -20 -9 -41 35 l-22 47
-4 -40 c-6 -64 15 -74 139 -68 74 5 100 3 95 -5 -4 -6 2 -20 14 -32 22 -22 25
-15 10 25 -7 18 -7 61 -1 128 12 123 3 147 -56 147 l-37 0 37 -38z"/>
<path d="M1050 925 c0 -33 -2 -35 -35 -35 -28 0 -35 -4 -35 -20 0 -16 7 -20
35 -20 33 0 35 -2 35 -36 0 -28 3 -35 18 -32 13 2 16 11 14 36 -3 31 -2 32 32
32 29 0 36 4 36 20 0 16 -7 20 -36 20 -32 0 -36 3 -31 21 7 27 -1 49 -19 49
-9 0 -14 -12 -14 -35z m30 -53 c0 -13 -12 -22 -22 -16 -10 6 -1 24 13 24 5 0
9 -4 9 -8z"/>
<path d="M1220 926 c0 -33 -2 -36 -30 -36 -23 0 -30 -4 -30 -20 0 -16 7 -20
30 -20 28 0 30 -3 30 -35 0 -28 4 -35 20 -35 16 0 20 7 20 35 0 33 2 35 35 35
28 0 35 4 35 20 0 16 -7 20 -34 20 -32 0 -35 3 -38 32 -2 22 -9 34 -20 36 -15
3 -18 -4 -18 -32z m40 -50 c0 -2 -7 -9 -15 -16 -12 -10 -15 -10 -15 4 0 9 7
16 15 16 8 0 15 -2 15 -4z"/>
<path d="M1939 936 c-55 -38 -99 -116 -64 -116 9 0 13 -4 10 -10 -13 -20 23
-9 64 20 65 48 93 130 44 130 -10 0 -34 -11 -54 -24z m54 -20 c-3 -13 -20 -39
-39 -57 -27 -26 -37 -30 -46 -21 -17 17 -2 39 48 74 21 15 40 27 40 28 1 0 -1
-11 -3 -24z"/>
<path d="M2370 941 c0 -6 5 -11 10 -11 6 0 10 -26 10 -58 0 -54 2 -58 24 -60
31 -2 48 19 44 55 -2 23 -8 28 -30 28 -22 -1 -26 3 -25 24 1 17 -4 26 -15 29
-10 2 -18 -1 -18 -7z m69 -70 c7 -13 6 -24 -4 -37 -15 -21 -24 -17 -30 16 -8
40 16 55 34 21z"/>
<path d="M2175 874 c0 -61 1 -64 25 -64 19 0 21 3 12 12 -13 13 -16 48 -4 48
4 0 16 -13 25 -30 17 -29 47 -41 47 -20 0 6 -4 10 -10 10 -19 0 -31 38 -18 60
16 26 0 43 -44 46 l-33 3 0 -65z m63 29 c-5 -26 -38 -29 -38 -4 0 15 6 21 21
21 14 0 19 -5 17 -17z"/>
<path d="M2024 898 c-12 -35 8 -108 29 -108 7 0 7 4 -1 12 -19 19 -16 88 4 88
14 0 14 3 4 15 -17 21 -27 19 -36 -7z"/>
<path d="M2285 883 c15 -73 13 -71 50 -70 26 1 34 5 30 15 -3 7 -5 27 -5 43 0
16 -5 29 -12 29 -8 0 -13 -14 -13 -35 0 -47 -19 -49 -23 -2 -2 23 -8 37 -17
37 -7 0 -12 -8 -10 -17z"/>
<path d="M2486 865 c18 -44 18 -65 -1 -65 -8 0 -15 -4 -15 -10 0 -5 6 -10 14
-10 8 0 28 27 44 60 26 55 27 60 10 60 -11 0 -17 -4 -14 -9 4 -5 2 -20 -3 -33
-9 -22 -10 -22 -16 10 -4 17 -13 32 -21 32 -10 0 -10 -7 2 -35z"/>
<path d="M2006 765 c-3 -8 -1 -15 4 -15 13 0 22 18 11 24 -5 3 -11 -1 -15 -9z"/>
<path d="M98 660 c-2 -22 0 -40 4 -40 5 0 8 5 8 10 0 6 12 8 26 6 21 -4 25 -2
22 16 -2 12 -9 23 -17 26 -8 3 -11 0 -7 -6 3 -6 2 -13 -4 -17 -6 -4 -10 5 -10
19 0 41 -18 30 -22 -14z"/>
<path d="M247 693 c-4 -3 0 -15 10 -25 9 -10 14 -21 10 -24 -3 -3 -14 4 -24
15 -9 12 -22 21 -27 21 -5 0 -6 -3 -3 -7 4 -3 2 -12 -4 -20 -6 -7 -10 -13 -8
-14 46 -8 71 -5 77 9 3 9 0 18 -6 20 -7 2 -12 8 -12 13 0 6 5 7 10 4 6 -3 10
-1 10 4 0 12 -23 15 -33 4z"/>
<path d="M1867 694 c-10 -11 -9 -54 2 -54 6 0 12 4 15 9 8 12 -8 54 -17 45z"/>
<path d="M435 673 c5 -15 4 -16 -6 -5 -22 21 -37 13 -41 -23 -2 -22 0 -35 7
-35 7 0 10 12 7 30 -3 19 0 30 8 30 7 0 10 -7 6 -17 -4 -10 -4 -14 0 -10 4 4
13 2 21 -4 10 -9 13 -5 13 20 0 17 -5 31 -11 31 -6 0 -8 -7 -4 -17z"/>
<path d="M167 660 c6 -24 19 -26 27 -4 9 24 7 31 -4 14 -6 -10 -10 -11 -10 -2
0 6 -4 12 -9 12 -5 0 -7 -9 -4 -20z"/>
<path d="M294 665 c-7 -18 4 -37 18 -29 6 4 5 10 -3 15 -12 8 -11 11 1 19 11
7 11 10 2 10 -7 0 -15 -7 -18 -15z"/>
<path d="M330 654 c0 -14 4 -23 10 -19 5 3 7 12 3 20 -3 10 1 15 12 15 11 0
15 -5 11 -15 -3 -8 -1 -15 4 -15 6 0 10 9 10 20 0 15 -7 20 -25 20 -20 0 -25
-5 -25 -26z"/>
<path d="M1945 650 c3 -5 11 -10 16 -10 6 0 7 5 4 10 -3 6 -11 10 -16 10 -6 0
-7 -4 -4 -10z"/>
<path d="M1583 544 c4 -36 2 -44 -9 -40 -8 3 -27 -2 -44 -12 -25 -14 -30 -23
-30 -57 0 -34 5 -43 31 -58 30 -17 32 -17 65 4 l34 21 0 83 c0 73 -3 86 -19
95 -31 16 -34 13 -28 -36z m-9 -90 c21 -8 20 -30 -1 -38 -21 -8 -38 8 -30 28
7 18 9 18 31 10z"/>
<path d="M2294 501 c-73 -33 -110 -103 -102 -197 6 -65 42 -110 95 -120 50 -9
118 20 148 64 31 46 31 52 0 52 -14 0 -25 -6 -25 -13 0 -25 -55 -67 -87 -67
-45 0 -62 9 -78 41 -33 62 -2 175 56 204 56 29 129 6 129 -40 0 -8 9 -15 20
-15 45 0 10 73 -46 96 -43 18 -61 17 -110 -5z"/>
<path d="M2577 513 c-3 -5 -8 -27 -12 -50 -6 -41 -9 -43 -41 -43 -24 0 -34 -5
-34 -15 0 -10 10 -15 31 -15 28 0 31 -3 25 -22 -3 -13 -6 -31 -6 -40 0 -12 -8
-18 -25 -18 -16 0 -25 -6 -25 -15 0 -8 9 -15 21 -15 15 0 19 -5 15 -17 -17
-62 -17 -83 -1 -83 17 0 20 7 30 63 6 35 8 37 41 37 35 0 35 -1 29 -33 -4 -17
-9 -40 -11 -49 -4 -13 0 -18 14 -18 16 0 21 9 26 50 7 49 7 50 41 50 24 0 35
5 35 15 0 10 -10 15 -31 15 -28 0 -31 3 -25 23 3 12 6 30 6 40 0 11 8 17 25
17 16 0 25 6 25 15 0 9 -9 15 -21 15 -14 0 -19 5 -16 14 3 8 9 31 13 50 5 29
3 36 -9 36 -16 0 -20 -9 -32 -67 -6 -30 -10 -33 -42 -33 -32 0 -35 2 -29 25 3
14 9 36 12 50 5 19 2 25 -9 25 -9 0 -18 -3 -20 -7z m73 -132 c0 -5 -3 -23 -6
-40 -6 -27 -10 -31 -40 -31 -36 0 -37 1 -28 49 6 27 10 31 40 31 19 0 34 -4
34 -9z"/>
<path d="M1186 492 c-24 -14 -28 -24 -30 -64 -1 -27 1 -48 4 -48 16 0 39 28
42 50 2 14 10 25 18 25 8 0 16 -11 18 -25 3 -22 26 -50 41 -50 3 0 4 23 3 50
-3 44 -8 52 -32 65 -35 18 -29 18 -64 -3z"/>
<path d="M1358 492 c-23 -14 -28 -24 -28 -57 0 -34 5 -43 30 -57 29 -16 32
-16 65 3 29 18 35 27 35 55 0 28 -6 38 -32 54 -39 24 -36 24 -70 2z m63 -22
c17 0 10 -59 -8 -68 -25 -13 -63 3 -63 27 0 25 29 54 47 47 8 -3 19 -6 24 -6z"/>
<path d="M1698 492 c-23 -14 -28 -24 -28 -55 0 -31 5 -40 32 -57 23 -14 36
-16 50 -9 26 14 22 25 -12 39 -35 14 -38 45 -5 45 11 0 19 -6 18 -12 -4 -16 2
-16 28 -3 29 16 23 34 -16 53 -20 9 -37 17 -38 16 -1 0 -14 -8 -29 -17z"/>
<path d="M1868 494 c-23 -12 -28 -21 -28 -54 0 -32 5 -42 31 -61 30 -21 31
-21 65 -3 30 17 34 23 34 61 0 37 -4 44 -30 58 -35 18 -38 18 -72 -1z m92 -58
c0 -25 -6 -35 -25 -44 -37 -17 -54 -15 -48 6 3 14 12 17 34 14 22 -3 29 0 29
12 0 9 -8 16 -20 16 -11 0 -20 5 -20 11 0 6 9 8 23 4 18 -6 20 -5 9 6 -10 11
-17 11 -32 2 -14 -10 -20 -10 -23 0 -3 7 -6 -5 -6 -25 -1 -27 -5 -38 -16 -38
-10 0 -15 11 -15 35 0 27 6 37 27 49 24 12 31 12 55 0 22 -11 28 -22 28 -48z
m-35 -6 c19 -8 19 -9 -2 -9 -12 -1 -25 4 -28 9 -7 12 2 12 30 0z"/>
<path d="M1988 498 c9 -9 15 -9 24 0 9 9 7 12 -12 12 -19 0 -21 -3 -12 -12z"/>
<path d="M345 485 c-16 -7 -52 -16 -80 -20 -108 -13 -105 -12 -105 -61 0 -43
0 -44 34 -44 19 0 40 -2 48 -5 7 -3 22 2 33 10 19 14 16 15 -37 9 l-58 -6 0
31 c0 26 4 31 25 31 14 0 25 -5 25 -11 0 -6 7 -3 16 5 8 9 22 17 30 17 8 1 20
2 27 3 6 1 15 -3 19 -9 5 -6 8 -6 8 2 0 7 9 17 20 23 18 10 20 8 20 -20 0 -24
-6 -33 -27 -43 -26 -11 -45 -28 -39 -34 1 -1 17 2 35 7 l32 9 -3 -42 c-2 -32
-8 -44 -26 -53 -46 -23 -50 -36 -9 -29 36 7 37 6 37 -23 0 -32 -27 -52 -36
-28 -4 12 -9 11 -25 -5 -21 -21 -36 -23 -58 -10 -9 6 -19 4 -28 -5 -8 -8 -21
-14 -29 -14 -20 0 -17 30 4 36 54 17 56 23 10 23 l-48 1 0 -46 c0 -38 3 -45
18 -41 9 3 40 8 67 12 28 4 69 11 92 17 l42 10 0 149 c0 82 2 153 6 159 8 13
-3 12 -40 -5z"/>
<path d="M1725 440 c-3 -5 -1 -10 4 -10 6 0 11 5 11 10 0 6 -2 10 -4 10 -3 0
-8 -4 -11 -10z"/>
<path d="M472 394 c-33 -22 -28 -51 13 -75 45 -27 45 -43 1 -35 -43 8 -57 -9
-21 -26 41 -18 80 0 80 37 0 24 -6 33 -33 44 -37 17 -37 37 1 33 35 -4 44 16
12 28 -32 12 -26 13 -53 -6z"/>
<path d="M802 333 c3 -72 5 -78 26 -81 24 -4 29 7 11 25 -6 6 -9 36 -7 72 3
53 1 61 -15 61 -16 0 -18 -9 -15 -77z"/>
<path d="M593 355 c-45 -32 -16 -111 38 -103 33 5 35 26 2 30 -22 2 -28 8 -28
28 0 17 7 26 23 30 13 3 24 10 25 15 3 17 -37 17 -60 0z"/>
<path d="M691 361 c-21 -13 -5 -29 24 -23 15 2 25 0 25 -7 0 -6 -9 -11 -19
-11 -31 0 -53 -28 -41 -50 8 -14 20 -19 50 -17 l40 1 0 46 c0 25 -5 51 -12 58
-14 14 -47 15 -67 3z m38 -81 c-22 -14 -34 2 -13 17 13 10 20 10 23 2 2 -6 -3
-15 -10 -19z"/>
<path d="M883 363 c-7 -2 -13 -11 -13 -19 0 -10 8 -12 30 -7 19 3 30 1 30 -6
0 -6 -11 -11 -24 -11 -13 0 -29 -7 -37 -16 -21 -26 1 -49 50 -51 l41 -2 0 40
c0 67 -27 93 -77 72z m47 -67 c0 -15 -24 -28 -34 -19 -7 7 13 33 25 33 5 0 9
-6 9 -14z"/>
<path d="M160 296 c0 -41 2 -44 31 -50 46 -9 91 -7 85 3 -4 5 0 11 6 14 7 3
-13 3 -44 0 l-58 -6 0 32 c0 26 4 31 24 31 14 0 28 5 31 10 4 6 -10 10 -34 10
l-41 0 0 -44z"/>
</g>
</svg>
