<?xml version="1.0" standalone="no"?>
<!DOCTYPE svg PUBLIC "-//W3C//DTD SVG 20010904//EN"
 "http://www.w3.org/TR/2001/REC-SVG-20010904/DTD/svg10.dtd">
<svg version="1.0" xmlns="http://www.w3.org/2000/svg"
 width="300.000000pt" height="193.000000pt" viewBox="0 0 300.000000 193.000000"
 preserveAspectRatio="xMidYMid meet">
<metadata>
Created by potrace 1.10, written by Peter Selinger 2001-2011
</metadata>
<g transform="translate(0.000000,193.000000) scale(0.100000,-0.100000)"
fill="#000000" stroke="none">
<path d="M30 1869 c0 -11 4 -18 9 -15 5 4 20 2 33 -3 20 -7 24 -6 25 11 1 14
-3 18 -13 14 -9 -3 -12 -1 -9 4 3 6 -5 10 -19 10 -20 0 -26 -5 -26 -21z"/>
<path d="M170 1871 c0 -15 9 -20 39 -23 33 -3 39 0 38 15 -1 10 -7 15 -14 13
-7 -3 -13 -1 -13 5 0 6 -5 7 -10 4 -6 -4 -8 -11 -5 -16 3 -5 -1 -6 -9 -3 -9 3
-13 10 -10 15 3 5 0 9 -5 9 -6 0 -11 -9 -11 -19z"/>
<path d="M315 1880 c-9 -14 4 -27 30 -32 14 -2 19 2 17 12 -3 12 -1 13 9 3 7
-7 23 -13 35 -13 12 0 25 6 27 13 4 10 6 10 6 0 1 -7 10 -13 21 -13 12 0 17 5
14 13 -2 7 -18 13 -34 13 -18 0 -26 -4 -23 -10 5 -7 2 -7 -8 0 -8 6 -21 11
-29 11 -8 0 -25 3 -37 7 -12 4 -24 2 -28 -4z m25 -10 c0 -5 -5 -10 -11 -10 -5
0 -7 5 -4 10 3 6 8 10 11 10 2 0 4 -4 4 -10z"/>
<path d="M540 1885 c0 -5 4 -16 9 -23 6 -11 10 -10 15 4 3 9 4 19 1 22 -3 3
-5 -1 -5 -9 0 -11 -2 -11 -10 1 -5 8 -10 11 -10 5z"/>
<path d="M708 1868 c5 -21 6 -21 13 -2 7 16 8 17 8 2 1 -24 78 -26 78 -3 0 20
-24 27 -31 9 -5 -13 -8 -13 -28 0 -32 23 -47 20 -40 -6z"/>
<path d="M879 1888 c-7 -25 -5 -38 8 -38 10 0 13 6 9 18 -5 14 -4 14 9 -2 11
-14 15 -16 15 -5 0 11 2 11 9 1 9 -15 42 -13 53 3 5 6 8 5 8 -2 0 -8 14 -13
34 -13 19 0 37 6 39 13 4 10 6 10 6 0 1 -18 28 -16 28 1 0 8 -11 14 -26 14
-14 1 -33 2 -41 2 -37 1 -76 -6 -82 -15 -5 -6 -8 -5 -8 4 0 7 -6 11 -15 8 -8
-4 -17 -2 -20 3 -6 9 -24 14 -26 8z m155 -16 c3 -5 -1 -9 -9 -9 -8 0 -12 4 -9
9 3 4 7 8 9 8 2 0 6 -4 9 -8z"/>
<path d="M1216 1881 c-4 -5 -15 -8 -26 -6 -12 2 -20 -2 -20 -9 0 -8 10 -13 23
-12 12 1 27 -1 32 -5 6 -4 17 -4 25 1 13 8 13 11 1 22 -12 11 -13 10 -7 -2 4
-8 1 -7 -7 3 -9 11 -18 14 -21 8z"/>
<path d="M575 1872 c-13 -13 -3 -20 27 -18 40 2 48 21 8 22 -16 1 -32 -1 -35
-4z"/>
<path d="M0 1811 c0 -5 8 -11 17 -13 12 -2 17 -14 17 -48 1 -41 3 -44 33 -51
40 -8 43 -5 43 42 0 37 -14 59 -28 44 -4 -4 -1 -10 6 -12 6 -3 12 -18 12 -34
0 -24 -4 -29 -24 -29 -18 0 -25 6 -28 28 -5 37 0 52 18 52 8 0 14 3 14 8 0 4
55 6 122 5 68 -1 149 -2 182 -3 52 0 57 -2 51 -17 -5 -10 -8 -29 -9 -43 -1
-22 4 -25 35 -28 44 -4 64 16 54 55 -6 24 -8 26 -16 10 -6 -9 -21 -17 -34 -17
-25 0 -33 14 -15 25 6 3 10 1 10 -5 0 -6 8 -5 23 4 12 7 40 16 62 19 30 5 35
4 23 -4 -13 -7 -18 -23 -18 -55 0 -52 14 -62 69 -48 29 7 37 14 39 37 4 35 -4
60 -17 52 -6 -3 -6 -17 -1 -35 5 -18 5 -30 -1 -30 -5 0 -9 11 -9 25 0 14 -4
25 -10 25 -24 0 -7 19 23 25 17 4 41 9 52 12 16 4 18 3 8 -8 -7 -7 -13 -30
-13 -51 0 -36 1 -38 33 -38 44 0 70 20 65 51 -2 18 -8 23 -23 21 -11 -2 -21
-8 -23 -13 -2 -5 -11 -9 -20 -10 -10 0 -12 -3 -5 -5 7 -3 21 -1 31 5 15 8 21
7 25 -3 7 -19 -12 -32 -43 -32 -19 1 -26 7 -28 26 -3 23 2 27 48 39 52 13 243
22 293 13 25 -4 27 -8 29 -61 l1 -56 7 60 7 60 1 -57 c2 -64 12 -71 57 -42 14
9 31 14 39 11 8 -3 21 4 30 17 13 21 13 26 0 45 -15 21 -14 21 30 21 l46 0
-12 -27 c-7 -16 -21 -36 -32 -46 -20 -18 -20 -18 11 -1 18 10 32 25 30 33 -3
20 40 41 87 41 36 0 38 -1 32 -26 -4 -15 -14 -33 -21 -41 -8 -8 -15 -21 -15
-29 0 -16 21 -19 36 -4 6 6 19 12 30 14 10 3 27 7 36 11 12 5 18 0 21 -17 2
-13 6 4 7 37 l3 60 7 -60 c4 -33 7 -49 8 -35 2 20 4 22 12 10 7 -11 10 -3 10
28 l0 43 48 -3 c47 -3 47 -3 47 -38 0 -34 -1 -35 -45 -41 -42 -5 -43 -6 -17
-13 17 -5 39 -4 58 4 23 10 33 10 42 1 6 -6 25 -11 41 -10 30 1 30 1 -8 12
-24 7 -40 19 -42 30 -1 9 2 17 7 17 5 0 9 -7 9 -15 0 -8 4 -15 9 -15 5 0 18
-3 28 -6 10 -3 8 1 -7 11 l-25 16 25 -7 c40 -10 45 -10 45 6 0 10 -11 15 -35
16 -63 2 -68 4 -73 23 -3 14 1 20 17 23 11 1 263 2 558 0 l537 -4 -6 -29 c-9
-47 13 -78 50 -73 17 2 40 13 51 24 18 17 19 24 9 50 l-12 31 57 -2 c80 -2 92
0 92 11 0 7 -507 10 -1500 10 -914 0 -1500 -4 -1500 -9z m1148 -25 c-10 -7
-14 -16 -10 -20 4 -4 -2 -14 -12 -22 -11 -7 -17 -16 -14 -20 10 -9 46 18 42
31 -3 7 2 18 11 25 13 11 19 11 32 -3 14 -13 14 -19 3 -32 -7 -9 -18 -14 -24
-12 -6 3 -21 -5 -34 -17 -20 -17 -24 -18 -32 -6 -5 8 -10 32 -10 53 0 35 2 37
33 37 29 -1 30 -2 15 -14z m342 4 c0 -5 -2 -10 -4 -10 -3 0 -8 5 -11 10 -3 6
-1 10 4 10 6 0 11 -4 11 -10z m1348 1 c22 -13 10 -64 -18 -78 -31 -15 -50 -1
-50 38 0 38 37 60 68 40z m-1370 -35 c-2 -14 -10 -21 -24 -21 -12 0 -31 -9
-43 -19 -11 -11 -21 -14 -21 -8 0 7 9 17 20 24 11 7 20 20 20 30 0 9 6 18 13
21 22 7 38 -5 35 -27z m-868 15 c0 -5 -6 -12 -12 -15 -7 -4 -3 -4 10 -2 18 3
22 0 22 -20 0 -20 -5 -24 -30 -24 -28 0 -30 3 -30 35 0 28 4 35 20 35 11 0 20
-4 20 -9z m-95 -30 c-8 -14 -75 -14 -75 0 0 7 14 10 35 7 19 -2 35 0 35 6 0 5
3 7 6 3 3 -3 3 -10 -1 -16z"/>
<path d="M1170 1760 c0 -5 5 -10 10 -10 6 0 10 5 10 10 0 6 -4 10 -10 10 -5 0
-10 -4 -10 -10z"/>
<path d="M2812 1750 c0 -19 2 -27 5 -17 2 9 2 25 0 35 -3 9 -5 1 -5 -18z"/>
<path d="M1435 1760 c3 -5 10 -10 16 -10 5 0 9 5 9 10 0 6 -7 10 -16 10 -8 0
-12 -4 -9 -10z"/>
<path d="M580 1730 c0 -5 7 -10 15 -10 8 0 15 5 15 10 0 6 -7 10 -15 10 -8 0
-15 -4 -15 -10z"/>
<path d="M843 1788 c-18 -23 -21 -57 -7 -75 13 -17 15 -17 28 0 7 9 23 17 35
17 16 0 21 6 21 25 0 37 -55 60 -77 33z m48 -8 c20 -11 27 -40 9 -40 -5 0 -10
7 -10 15 0 8 -7 15 -15 15 -14 0 -19 -11 -16 -37 1 -7 -3 -13 -9 -13 -14 0
-13 43 2 58 15 15 15 15 39 2z m-11 -30 c0 -5 -5 -10 -11 -10 -5 0 -7 5 -4 10
3 6 8 10 11 10 2 0 4 -4 4 -10z"/>
<path d="M964 1775 c-8 -13 -13 -29 -9 -35 9 -15 35 -12 35 5 0 8 5 15 11 15
6 0 8 -7 5 -16 -9 -24 13 -47 30 -33 14 12 10 53 -9 77 -15 20 -45 14 -63 -13z
m50 9 c17 -6 23 -64 7 -64 -5 0 -7 8 -4 19 7 25 -17 38 -32 18 -7 -10 -15 -17
-18 -17 -9 0 5 34 17 42 13 9 11 9 30 2z"/>
<path d="M1680 1789 c0 -7 15 -10 40 -7 29 2 40 0 44 -12 2 -9 4 -5 5 8 1 20
-4 22 -44 22 -26 0 -45 -5 -45 -11z"/>
<path d="M300 1750 c0 -40 0 -40 40 -40 40 0 40 0 40 40 0 40 0 40 -40 40 -40
0 -40 0 -40 -40z m60 15 c0 -8 -9 -15 -20 -15 -11 0 -20 7 -20 15 0 8 9 15 20
15 11 0 20 -7 20 -15z m-10 -35 c0 -5 -9 -10 -20 -10 -11 0 -20 5 -20 10 0 6
9 10 20 10 11 0 20 -4 20 -10z"/>
<path d="M1335 1763 c0 -22 -5 -28 -21 -28 -11 -1 -33 -11 -49 -23 -30 -24
-12 -31 19 -7 11 8 28 15 38 15 25 0 40 33 25 54 -12 16 -13 14 -12 -11z"/>
<path d="M2905 1780 c-3 -5 -1 -10 4 -10 6 0 11 5 11 10 0 6 -2 10 -4 10 -3 0
-8 -4 -11 -10z"/>
<path d="M166 1773 c-3 -4 -6 -19 -6 -35 0 -26 3 -28 40 -28 30 0 42 5 51 21
6 12 7 25 2 29 -11 10 -80 20 -87 13z m74 -33 c0 -16 -7 -20 -35 -20 -38 0
-46 13 -17 29 28 17 52 13 52 -9z"/>
<path d="M1306 1771 c-4 -7 -5 -15 -2 -18 9 -9 19 4 14 18 -4 11 -6 11 -12 0z"/>
<path d="M2930 1764 c0 -14 3 -14 15 -4 8 7 15 14 15 16 0 2 -7 4 -15 4 -8 0
-15 -7 -15 -16z"/>
<path d="M2962 1760 c-7 -11 -12 -30 -11 -42 0 -14 2 -17 6 -8 2 8 9 25 15 37
14 29 6 39 -10 13z"/>
<path d="M1560 1740 c-8 -5 -12 -11 -9 -14 2 -3 11 -1 19 4 8 5 12 11 9 14 -2
3 -11 1 -19 -4z"/>
<path d="M1590 1739 c0 -5 5 -9 10 -9 6 0 12 0 15 0 14 0 8 13 -7 16 -10 1
-18 -2 -18 -7z"/>
<path d="M1750 1700 c0 -5 5 -10 11 -10 5 0 7 5 4 10 -3 6 -8 10 -11 10 -2 0
-4 -4 -4 -10z"/>
<path d="M0 1690 c0 -5 4 -10 9 -10 6 0 13 5 16 10 3 6 -1 10 -9 10 -9 0 -16
-4 -16 -10z"/>
<path d="M968 1693 c7 -3 16 -2 19 1 4 3 -2 6 -13 5 -11 0 -14 -3 -6 -6z"/>
<path d="M1788 1693 c7 -3 16 -2 19 1 4 3 -2 6 -13 5 -11 0 -14 -3 -6 -6z"/>
<path d="M1888 1693 c12 -2 30 -2 40 0 9 3 -1 5 -23 4 -22 0 -30 -2 -17 -4z"/>
<path d="M1958 1693 c7 -3 16 -2 19 1 4 3 -2 6 -13 5 -11 0 -14 -3 -6 -6z"/>
<path d="M2028 1693 c6 -2 18 -2 25 0 6 3 1 5 -13 5 -14 0 -19 -2 -12 -5z"/>
<path d="M2148 1693 c6 -2 18 -2 25 0 6 3 1 5 -13 5 -14 0 -19 -2 -12 -5z"/>
<path d="M2208 1693 c7 -3 16 -2 19 1 4 3 -2 6 -13 5 -11 0 -14 -3 -6 -6z"/>
<path d="M2268 1693 c6 -2 18 -2 25 0 6 3 1 5 -13 5 -14 0 -19 -2 -12 -5z"/>
<path d="M2333 1693 c9 -2 23 -2 30 0 6 3 -1 5 -18 5 -16 0 -22 -2 -12 -5z"/>
<path d="M2398 1693 c12 -2 32 -2 45 0 12 2 2 4 -23 4 -25 0 -35 -2 -22 -4z"/>
<path d="M17 1669 c-14 -8 -17 -24 -17 -80 0 -69 0 -70 30 -75 29 -6 30 -8 30
-63 0 -31 5 -62 12 -69 15 -15 122 -16 149 -2 14 8 19 21 19 55 0 40 2 45 23
44 21 0 21 -1 2 -9 -19 -8 -19 -9 2 -9 29 -1 33 8 26 54 l-6 37 -54 -5 c-29
-3 -53 -2 -53 3 0 13 15 15 85 12 l66 -4 -3 -51 -3 -52 -40 -6 -40 -7 45 2 45
1 5 60 5 60 1188 0 1188 0 -3 -76 c-3 -72 -4 -75 -25 -71 -29 5 -30 38 -3 45
28 7 25 27 -5 27 -23 0 -25 -3 -25 -50 l0 -50 30 5 30 5 0 -379 c0 -319 -2
-380 -15 -391 -8 -6 -20 -8 -26 -4 -8 5 -9 3 -4 -5 4 -7 8 -35 9 -62 l1 -49
-1345 -2 c-740 -2 -1234 -4 -1097 -5 l247 -3 0 -45 0 -45 -247 -3 c-196 -2
-168 -3 130 -5 l377 -2 0 -200 c0 -184 1 -200 18 -199 10 0 12 3 5 6 -46 18
18 23 293 23 268 0 305 -2 300 -15 -3 -8 -1 -15 4 -15 6 0 10 78 10 200 l0
200 348 0 347 0 0 -197 -1 -198 3 193 3 192 455 0 c292 0 456 4 460 10 4 7
-413 10 -1244 10 l-1251 0 0 45 0 45 1100 0 1100 0 0 59 c0 68 4 71 84 71 61
0 76 -12 76 -58 0 -22 4 -31 11 -26 7 4 38 7 70 8 33 1 59 4 59 9 0 4 -7 7
-15 7 -11 0 -15 12 -15 48 0 26 -6 60 -13 75 -11 24 -17 27 -64 27 -58 0 -103
-27 -103 -62 0 -13 -8 -18 -30 -18 l-30 0 0 65 0 64 103 4 102 3 -102 2 -103
2 0 324 0 325 43 4 42 4 -42 1 -41 2 -1 65 0 64 137 4 c75 1 -491 3 -1258 2
l-1396 0 4 26 c4 25 1 26 -38 26 -26 0 -44 -5 -47 -13 -8 -21 -23 -17 -23 6 0
11 -4 20 -10 20 -5 0 -10 -11 -10 -25 0 -24 2 -25 53 -23 35 2 54 8 59 18 5
11 7 9 7 -7 1 -17 -5 -23 -19 -23 -15 0 -20 -7 -20 -24 0 -19 6 -25 28 -28 26
-3 27 -6 30 -66 3 -67 -9 -85 -45 -62 -16 10 -16 11 0 6 16 -5 16 -4 1 19 -9
14 -17 39 -18 57 -2 42 -24 47 -37 9 -6 -17 -17 -31 -25 -31 -8 0 -14 -7 -14
-16 0 -9 7 -14 18 -12 9 2 17 8 17 15 0 6 3 15 8 19 4 4 7 16 7 26 0 10 4 18
10 18 5 0 7 -7 4 -15 -3 -8 -2 -27 3 -42 16 -50 7 -64 -40 -61 l-42 3 -3 62
c-3 59 -4 62 -30 65 -26 3 -27 6 -30 64 -2 43 1 64 11 72 10 9 394 13 1498 15
l1484 2 -1485 2 c-994 2 -1491 -1 -1503 -8z m256 -136 c-7 -2 -21 -2 -30 0
-10 3 -4 5 12 5 17 0 24 -2 18 -5z m7 -23 c0 -5 -10 -10 -22 -10 -19 0 -20 2
-8 10 19 13 30 13 30 0z m2633 -807 c-7 -2 -21 -2 -30 0 -10 3 -4 5 12 5 17 0
24 -2 18 -5z m45 -74 l3 -57 -46 -4 c-25 -2 -45 0 -45 4 0 5 7 8 15 8 8 0 15
5 15 10 0 6 -5 9 -11 8 -6 -2 -16 5 -22 14 -15 23 4 44 30 33 16 -8 16 -9 -4
-12 -31 -6 -29 -23 2 -21 30 3 32 19 6 42 -19 17 -20 17 -36 -2 -20 -23 -65
-18 -65 7 0 28 11 32 85 29 l70 -3 3 -56z m-1588 -263 c0 -14 -4 -28 -10 -31
-5 -3 -10 -16 -9 -28 1 -20 2 -20 8 3 5 17 7 7 7 -33 0 -34 -3 -50 -7 -40 -6
13 -8 9 -8 -14 -1 -17 4 -35 9 -38 6 -3 10 -37 10 -76 l0 -69 -305 0 -305 0 0
175 0 175 305 0 305 0 0 -24z"/>
<path d="M2910 588 c0 -4 7 -8 15 -8 8 0 15 4 15 8 0 5 -7 9 -15 9 -8 0 -15
-4 -15 -9z"/>
<path d="M784 332 c-6 -4 -10 -37 -10 -77 1 -68 2 -70 26 -71 14 0 30 3 35 6
22 15 45 19 42 8 -3 -17 34 -22 44 -6 5 7 8 24 8 38 -1 23 -2 23 -8 -4 -6 -31
-31 -48 -31 -23 0 22 -60 20 -61 -2 0 -12 -3 -11 -9 4 -8 18 -9 18 -9 2 -1
-28 -26 -14 -29 16 -3 21 0 26 12 21 21 -8 21 20 0 41 -23 22 -11 43 28 48 33
4 33 4 3 5 -16 1 -35 -2 -41 -6z"/>
<path d="M889 331 c13 -3 28 -15 32 -26 5 -14 8 -15 8 -4 1 21 -19 39 -43 38
-18 -1 -18 -2 3 -8z"/>
<path d="M971 326 c-7 -9 -11 -40 -9 -78 l3 -63 75 0 75 0 1 70 c0 72 -6 85
-41 84 -16 -1 -15 -2 5 -8 14 -4 26 -16 28 -26 4 -19 3 -19 -10 -2 -11 14 -25
18 -63 15 -50 -3 -50 -3 -50 -37 0 -20 6 -36 13 -39 11 -3 12 0 3 16 -6 11
-11 25 -11 30 0 13 49 22 56 11 3 -5 15 -9 27 -9 21 0 20 -2 -8 -26 l-30 -25
38 5 c35 5 37 4 37 -25 0 -32 -25 -41 -33 -11 -4 16 -5 16 -6 0 -1 -12 -9 -18
-26 -18 -14 0 -25 4 -25 9 0 5 9 7 20 4 11 -3 20 0 20 6 0 6 -13 10 -30 9 -17
-1 -30 -8 -30 -15 0 -22 -19 -14 -25 10 -4 13 -5 43 -3 68 3 42 5 44 38 50
l35 6 -31 2 c-17 0 -37 -5 -43 -13z m112 -23 c-7 -2 -19 -2 -25 0 -7 3 -2 5
12 5 14 0 19 -2 13 -5z"/>
<path d="M1162 328 c-13 -13 -16 -116 -3 -136 5 -9 28 -12 77 -10 55 2 69 6
72 20 3 13 -6 16 -49 16 -57 1 -61 -9 -4 -13 54 -3 51 -12 -4 -11 -27 1 -47 4
-44 9 2 4 -3 10 -12 14 -10 3 -21 0 -26 -8 -5 -9 -8 8 -8 46 1 48 3 53 8 26 3
-19 11 -36 18 -38 7 -3 9 4 6 18 -5 19 -3 21 15 17 12 -4 25 -2 28 3 3 5 17 9
32 9 26 -1 25 -2 -12 -21 -42 -23 -38 -41 7 -32 34 7 43 26 28 59 -10 23 -15
25 -66 20 -33 -3 -55 -2 -55 4 0 6 27 10 60 10 45 0 61 -4 70 -17 10 -16 10
-16 8 2 -3 17 -12 20 -68 23 -42 2 -70 -2 -78 -10z m108 -25 c-8 -2 -22 -7
-30 -10 -25 -9 -60 -9 -60 0 0 5 11 7 25 5 14 -3 28 -1 31 3 3 5 15 9 27 8 14
0 17 -2 7 -6z"/>
<path d="M794 308 c-3 -4 7 -8 23 -9 23 0 25 -2 9 -8 -19 -7 -19 -8 2 -13 12
-4 20 -2 17 2 -8 13 7 18 35 10 l25 -6 -29 -15 c-46 -23 -30 -41 22 -24 6 2
12 18 12 34 0 24 -5 32 -22 35 -35 7 -88 4 -94 -6z m93 -4 c-3 -3 -12 -4 -19
-1 -8 3 -5 6 6 6 11 1 17 -2 13 -5z"/>
<path d="M1022 291 c-11 -7 -11 -9 0 -14 9 -3 15 1 15 9 0 8 -1 14 -1 14 -1 0
-7 -4 -14 -9z"/>
<path d="M830 83 c0 -20 3 -24 9 -14 5 8 16 11 25 8 10 -4 16 -1 16 7 0 9 7
12 20 9 11 -3 20 -12 20 -19 0 -17 16 -18 24 -1 5 10 7 10 12 0 10 -22 24 -14
24 12 0 24 -2 25 -75 25 l-75 0 0 -27z"/>
<path d="M780 75 c0 -8 4 -15 8 -15 5 0 9 7 9 15 0 8 -4 15 -9 15 -4 0 -8 -7
-8 -15z"/>
<path d="M1333 75 c0 -8 4 -15 9 -15 4 0 8 7 8 15 0 8 -4 15 -8 15 -5 0 -9 -7
-9 -15z"/>
<path d="M330 1620 c0 -16 5 -30 10 -30 6 0 10 14 10 30 0 17 -4 30 -10 30 -5
0 -10 -13 -10 -30z"/>
<path d="M643 1634 c-3 -8 -1 -20 6 -27 8 -8 11 -4 11 16 0 30 -7 35 -17 11z"/>
<path d="M670 1630 c0 -19 7 -22 60 -22 36 0 40 2 40 18 0 14 -2 15 -17 3 -9
-8 -14 -9 -10 -3 7 12 -21 12 -41 0 -7 -4 -12 -1 -12 8 0 9 -4 16 -10 16 -5 0
-10 -9 -10 -20z"/>
<path d="M784 1625 c0 -14 4 -25 8 -25 4 0 8 11 8 25 0 14 -4 25 -8 25 -4 0
-8 -11 -8 -25z"/>
<path d="M1080 1634 c0 -18 6 -20 47 -20 25 1 48 6 50 11 2 6 -15 10 -39 9
-24 0 -46 5 -50 10 -5 6 -8 2 -8 -10z"/>
<path d="M1204 1636 c-3 -8 -3 -20 1 -25 7 -12 63 -3 84 13 11 8 13 8 8 0 -11
-18 42 -24 59 -7 8 8 14 16 14 17 0 6 -36 0 -49 -9 -10 -5 -12 -4 -7 3 5 8 0
12 -13 12 -11 0 -23 -5 -27 -12 -5 -8 -10 -7 -18 3 -16 20 -45 23 -52 5z m36
-12 c0 -2 -7 -4 -15 -4 -8 0 -15 4 -15 10 0 5 7 7 15 4 8 -4 15 -8 15 -10z"/>
<path d="M1720 1636 c-10 -13 -9 -17 4 -22 9 -4 20 -4 23 -1 3 4 14 2 25 -4
13 -7 23 -7 32 0 8 6 22 8 31 4 13 -4 16 -3 11 5 -4 7 -3 12 3 12 5 0 12 -6
14 -12 3 -8 6 -6 6 5 1 14 -5 16 -34 13 -22 -3 -35 0 -36 7 -1 7 -5 1 -9 -13
-6 -19 -8 -20 -9 -6 -1 11 -6 16 -15 13 -7 -3 -18 -1 -23 4 -6 6 -14 4 -23 -5z
m25 -6 c3 -5 -1 -10 -10 -10 -9 0 -13 5 -10 10 3 6 8 10 10 10 2 0 7 -4 10
-10z"/>
<path d="M1990 1626 c0 -19 5 -24 24 -22 13 0 22 5 18 10 -3 5 2 7 11 3 9 -3
18 0 21 9 7 17 -25 14 -48 -5 -13 -11 -15 -10 -11 8 2 12 0 21 -6 21 -5 0 -9
-11 -9 -24z"/>
<path d="M2088 1628 c4 -16 7 -18 10 -8 3 8 10 18 16 22 6 5 2 8 -11 8 -17 0
-20 -4 -15 -22z"/>
<path d="M2130 1634 c0 -12 7 -25 16 -28 9 -3 12 -2 9 5 -4 6 3 7 19 3 22 -5
26 -3 26 16 0 12 -4 18 -10 15 -6 -4 -7 -11 -4 -17 4 -6 -2 -6 -15 1 -11 7
-21 8 -21 4 0 -4 -5 -1 -10 7 -8 12 -10 11 -10 -6z"/>
<path d="M2220 1631 c0 -13 7 -18 23 -17 12 1 30 -1 39 -6 13 -6 16 -4 15 10
-1 19 -37 26 -37 7 0 -5 -5 -2 -11 8 -13 22 -29 22 -29 -2z"/>
<path d="M2310 1633 c0 -13 5 -23 10 -23 13 0 13 11 0 30 -8 12 -10 11 -10 -7z"/>
<path d="M2499 1643 c-1 -5 -1 -12 0 -16 1 -4 -8 -3 -19 3 -16 9 -25 8 -36 -1
-11 -9 -14 -9 -14 1 0 9 -4 9 -17 -1 -9 -8 -14 -9 -11 -4 4 6 -2 12 -13 12
-12 1 -19 -5 -19 -15 0 -13 2 -14 9 -4 7 11 9 11 14 -1 6 -17 57 -11 69 7 5 8
8 7 8 -1 0 -7 9 -13 20 -13 13 0 20 7 20 20 0 19 -9 29 -11 13z"/>
<path d="M2696 1634 c-11 -10 -16 -11 -16 -3 0 7 -3 10 -6 6 -3 -3 -2 -13 3
-22 9 -15 12 -13 27 9 19 29 15 34 -8 10z"/>
<path d="M1570 1623 c0 -8 4 -11 10 -8 5 3 18 1 29 -5 13 -7 22 -7 26 0 4 6
12 7 18 4 9 -5 9 -4 0 6 -18 19 -83 22 -83 3z"/>
<path d="M1675 1629 c-9 -14 -2 -20 14 -10 8 6 9 11 3 15 -6 3 -14 1 -17 -5z"/>
<path d="M2340 1620 c0 -11 4 -20 9 -20 6 0 9 9 8 20 -1 11 -5 20 -9 20 -4 0
-8 -9 -8 -20z"/>
<path d="M2863 1633 c-7 -3 -13 -12 -13 -21 0 -14 2 -14 9 -3 7 11 9 11 13 0
3 -8 8 -12 10 -9 10 9 -7 37 -19 33z"/>
<path d="M232 1610 c0 -14 2 -19 5 -12 2 6 2 18 0 25 -3 6 -5 1 -5 -13z"/>
<path d="M250 1610 c0 -12 7 -20 18 -20 14 0 15 2 2 10 -13 9 -13 11 0 20 13
8 12 10 -2 10 -11 0 -18 -8 -18 -20z"/>
<path d="M301 1613 c10 -11 10 -14 2 -9 -7 4 -13 2 -13 -3 0 -6 7 -11 15 -11
8 0 15 9 15 20 0 12 -7 20 -16 20 -14 0 -15 -2 -3 -17z"/>
<path d="M2712 1618 c2 -6 10 -14 18 -16 7 -3 10 0 6 7 -4 6 -2 11 3 11 6 0
11 -4 11 -8 0 -5 7 -9 15 -9 8 0 15 6 15 14 0 8 -13 13 -36 13 -23 0 -34 -4
-32 -12z"/>
<path d="M2790 1608 c0 -12 3 -18 7 -14 11 10 12 36 2 36 -5 0 -9 -10 -9 -22z"/>
<path d="M2817 1624 c-8 -8 1 -24 12 -24 4 0 8 7 8 15 0 16 -9 20 -20 9z"/>
<path d="M2676 1522 c-2 -4 4 -9 15 -9 11 -1 17 2 14 8 -7 11 -22 12 -29 1z"/>
<path d="M2820 1511 c0 -25 6 -27 13 -6 4 8 2 17 -3 20 -6 4 -10 -3 -10 -14z"/>
<path d="M2870 1520 c0 -5 5 -10 11 -10 5 0 7 5 4 10 -3 6 -8 10 -11 10 -2 0
-4 -4 -4 -10z"/>
<path d="M4 1170 c0 -190 2 -267 3 -172 2 94 2 250 0 345 -1 94 -3 17 -3 -173z"/>
<path d="M2822 1455 c0 -16 2 -22 5 -12 2 9 2 23 0 30 -3 6 -5 -1 -5 -18z"/>
<path d="M2895 1458 c1 -17 8 -23 27 -25 21 -1 25 2 21 18 -3 10 -9 19 -13 19
-5 0 -15 2 -23 5 -9 4 -13 -1 -12 -17z m35 -2 c0 -3 -4 -8 -10 -11 -5 -3 -10
-1 -10 4 0 6 5 11 10 11 6 0 10 -2 10 -4z"/>
<path d="M1320 1420 c0 -45 3 -50 25 -56 14 -3 41 -3 60 0 24 5 35 3 35 -5 0
-8 -18 -10 -60 -7 -33 2 -57 2 -55 0 3 -3 -3 -11 -13 -18 -9 -7 -13 -16 -9
-21 5 -4 13 0 18 10 13 22 122 26 113 3 -3 -8 -13 -12 -25 -9 -10 3 -26 -1
-35 -8 -13 -10 -17 -10 -24 2 -11 17 -5 25 -146 -181 -59 -85 -111 -159 -115
-164 -5 -5 -13 3 -19 18 -7 20 -14 25 -23 19 -6 -6 -29 -9 -49 -7 -29 2 -38
-1 -38 -13 0 -12 3 -13 14 -4 11 9 16 9 22 0 5 -8 3 -9 -6 -4 -8 5 -11 4 -6
-3 10 -17 45 -11 39 8 -3 10 0 9 11 -4 16 -20 16 -20 17 0 0 14 2 15 6 4 3 -8
10 -17 14 -20 15 -10 -32 -70 -56 -70 -20 0 -68 50 -48 50 5 0 3 4 -3 8 -6 4
-58 86 -115 182 l-104 175 -57 -3 c-36 -2 -58 1 -58 8 0 6 23 10 53 10 29 0
58 5 65 12 7 7 12 36 12 65 l0 54 -67 -3 -68 -3 -3 -47 c-3 -43 -1 -48 22 -54
14 -3 43 -4 65 -2 22 2 37 -1 34 -5 -3 -5 -32 -7 -64 -5 -32 2 -57 2 -54 0 2
-2 -3 -12 -12 -21 -16 -15 -14 -16 18 -19 18 -2 40 -8 46 -14 9 -7 13 -7 13 1
0 6 11 11 25 11 18 0 26 -7 31 -25 3 -14 10 -25 14 -25 8 0 170 -271 170 -284
0 -4 9 -19 20 -34 l21 -25 -36 -29 c-22 -19 -35 -38 -35 -54 0 -22 3 -24 55
-24 52 0 55 -1 55 -25 0 -14 -6 -35 -12 -46 -10 -17 -10 -23 0 -26 7 -3 12
-24 12 -55 0 -70 11 -78 115 -78 47 0 84 -4 81 -8 -2 -4 -1 -14 5 -22 6 -11 9
-6 9 18 l0 32 -95 0 c-84 0 -95 2 -95 18 0 9 -3 34 -6 55 -5 30 -4 37 10 37 9
0 16 5 16 12 0 6 -3 8 -7 5 -14 -14 -29 14 -25 48 3 28 8 35 26 35 24 0 59 40
68 77 4 16 2 21 -12 20 -10 0 -16 -6 -13 -12 2 -7 -3 -18 -12 -25 -8 -7 -15
-19 -15 -26 0 -8 -9 -14 -20 -14 -11 0 -20 -5 -20 -11 0 -8 -4 -8 -12 -2 -7 6
-26 15 -43 22 l-30 11 31 -4 c17 -3 44 -1 60 4 24 7 16 9 -41 10 l-70 2 40 12
c24 8 34 15 25 18 -23 8 -7 18 19 11 17 -4 19 -8 9 -14 -9 -6 -7 -9 10 -9 12
0 21 5 20 13 -2 6 5 11 14 11 10 -1 16 2 13 6 -5 8 -7 6 157 240 75 108 122
166 134 167 11 1 29 4 42 8 18 6 22 4 22 -16 0 -39 16 -10 24 43 1 10 5 21 9
24 4 4 7 31 7 61 l0 53 -70 0 -70 0 0 -50z m120 -5 l0 -35 -55 0 -55 0 0 35 0
35 55 0 55 0 0 -35z m-700 -20 l0 -35 -55 0 -55 0 0 35 0 35 55 0 55 0 0 -35z"/>
<path d="M2840 1441 c0 -6 9 -9 20 -8 11 1 20 5 20 9 0 4 -9 8 -20 8 -11 0
-20 -4 -20 -9z"/>
<path d="M2968 1433 c6 -2 18 -2 25 0 6 3 1 5 -13 5 -14 0 -19 -2 -12 -5z"/>
<path d="M2832 1353 l2 -58 3 53 c4 50 5 52 34 52 19 0 29 -5 29 -15 0 -8 6
-15 14 -15 10 0 16 -13 19 -37 3 -35 4 -34 5 9 2 39 -1 46 -13 41 -10 -3 -15
0 -13 8 2 10 -10 15 -39 17 l-43 3 2 -58z"/>
<path d="M1477 1348 c-2 -7 -4 -17 -3 -21 0 -5 -7 -13 -16 -18 -17 -10 -14
-39 4 -39 6 0 8 6 5 14 -3 7 0 19 6 25 6 6 12 20 14 31 3 22 -2 27 -10 8z"/>
<path d="M2863 1353 c9 -2 25 -2 35 0 9 3 1 5 -18 5 -19 0 -27 -2 -17 -5z"/>
<path d="M2173 1328 c-18 -9 -23 -20 -23 -49 0 -21 5 -41 11 -44 17 -11 23 3
11 30 -17 38 -6 55 30 48 22 -4 29 -3 24 5 -4 7 -1 12 9 12 9 0 14 -4 10 -10
-3 -5 13 -14 35 -20 38 -10 47 -30 13 -30 -12 0 -13 -3 -4 -14 9 -11 6 -15
-14 -20 -14 -4 -23 -11 -20 -17 4 -5 15 -7 26 -4 10 4 29 3 41 -1 18 -5 19 -8
7 -18 -8 -6 -16 -18 -18 -26 -12 -45 -12 -60 -3 -60 6 0 8 8 5 18 -5 21 22 49
32 32 3 -5 2 -10 -4 -10 -5 0 -9 -9 -8 -20 1 -22 17 -28 17 -7 0 25 25 67 38
62 6 -2 12 0 12 5 0 19 -32 10 -37 -10 -3 -11 -9 -17 -15 -14 -5 3 -6 14 -3
25 4 10 3 24 -1 31 -4 6 -8 30 -8 52 -1 32 -6 43 -26 53 -30 15 -106 16 -137
1z m137 -14 l25 -15 -25 5 c-14 3 -31 6 -38 6 -7 0 -10 5 -7 10 8 13 15 12 45
-6z"/>
<path d="M2863 1333 c9 -2 25 -2 35 0 9 3 1 5 -18 5 -19 0 -27 -2 -17 -5z"/>
<path d="M2863 1313 c9 -2 25 -2 35 0 9 3 1 5 -18 5 -19 0 -27 -2 -17 -5z"/>
<path d="M781 1286 c0 -13 3 -16 6 -7 5 11 7 11 14 0 8 -11 12 -10 26 6 13 16
15 17 10 3 -4 -10 -2 -18 3 -18 6 0 10 8 10 18 0 14 -8 18 -35 18 -29 0 -35
-4 -34 -20z"/>
<path d="M2193 1284 c0 -17 -1 -17 32 0 l28 15 -30 -1 c-18 -1 -30 -6 -30 -14z"/>
<path d="M630 1261 c0 -11 3 -12 12 -3 9 9 14 7 24 -6 7 -9 16 -14 19 -10 10
10 -17 35 -38 35 -9 0 -17 -7 -17 -16z"/>
<path d="M720 1264 c0 -8 5 -12 10 -9 6 4 8 11 5 16 -9 14 -15 11 -15 -7z"/>
<path d="M1341 1256 c0 -13 3 -16 6 -7 5 11 7 11 14 0 8 -11 12 -10 26 6 13
16 15 17 10 3 -4 -10 -2 -18 3 -18 6 0 10 8 10 18 0 14 -8 18 -35 18 -29 0
-35 -4 -34 -20z"/>
<path d="M2373 1245 c-8 -23 3 -29 52 -30 45 -1 56 10 34 32 -13 13 -35 7 -63
-16 -18 -15 -19 -15 -14 7 7 25 0 30 -9 7z"/>
<path d="M2470 1250 c0 -6 4 -10 10 -10 5 0 7 -7 4 -15 -4 -8 -1 -15 5 -15 17
0 13 37 -4 44 -8 3 -15 1 -15 -4z"/>
<path d="M1423 1236 c4 -10 -1 -13 -19 -11 -13 1 -24 -1 -24 -6 0 -4 14 -7 30
-7 22 1 30 6 30 20 0 10 -5 18 -11 18 -6 0 -9 -6 -6 -14z"/>
<path d="M2847 1243 c-4 -3 -2 -12 4 -20 9 -9 8 -17 0 -27 -9 -11 -9 -16 0
-21 6 -4 15 -2 19 6 7 10 11 10 23 0 19 -15 34 4 18 23 -7 9 -7 16 1 24 16 16
2 28 -16 13 -10 -8 -16 -9 -21 -1 -7 11 -19 13 -28 3z"/>
<path d="M2010 1224 c0 -20 18 -26 42 -13 20 11 21 10 10 -3 -10 -13 -8 -15
18 -14 21 1 29 5 25 14 -3 8 -5 17 -5 20 0 4 -20 7 -45 8 -31 1 -45 -3 -45
-12z m30 2 c0 -3 -4 -8 -10 -11 -5 -3 -10 -1 -10 4 0 6 5 11 10 11 6 0 10 -2
10 -4z"/>
<path d="M2110 1226 c0 -8 7 -16 14 -19 11 -4 13 -1 9 10 -5 12 -3 14 7 8 9
-5 11 -4 6 3 -10 17 -36 15 -36 -2z"/>
<path d="M650 1208 c0 -11 5 -16 10 -13 6 4 8 12 4 18 -3 7 1 4 9 -5 8 -10 20
-18 28 -18 11 0 11 2 -1 10 -12 8 -12 12 -2 18 8 6 2 9 -18 9 -23 0 -30 -5
-30 -19z"/>
<path d="M723 1210 c1 -20 8 -25 20 -14 7 8 -3 34 -13 34 -5 0 -8 -9 -7 -20z"/>
<path d="M1350 1219 c0 -5 5 -7 10 -4 6 3 10 8 10 11 0 2 -4 4 -10 4 -5 0 -10
-5 -10 -11z"/>
<path d="M2144 1197 c-11 -12 -55 -53 -98 -91 -42 -37 -75 -71 -71 -74 3 -3
22 11 43 31 72 70 117 107 132 107 8 0 20 11 27 25 15 32 -4 34 -33 2z"/>
<path d="M2234 1202 c-13 -8 -15 -44 -2 -36 4 3 8 1 8 -5 0 -16 -36 -32 -57
-25 -15 5 -15 4 -3 -5 13 -9 11 -11 -7 -11 -12 0 -25 5 -29 12 -5 7 -3 8 6 3
9 -5 11 -4 6 3 -11 18 -26 14 -26 -6 0 -15 8 -19 43 -19 23 0 45 4 48 10 12
17 29 -3 30 -36 2 -30 2 -31 6 -4 2 15 8 27 13 27 4 0 11 7 14 16 5 14 4 15
-9 4 -13 -11 -14 -10 -9 4 3 9 1 16 -4 16 -6 0 -12 13 -14 30 -2 19 -7 27 -14
22z"/>
<path d="M2193 1180 c-1 -11 2 -20 5 -20 4 0 8 9 9 20 1 11 -2 20 -5 20 -4 0
-8 -9 -9 -20z"/>
<path d="M2265 1190 c-3 -5 -3 -14 0 -20 8 -14 32 -13 41 2 5 8 0 9 -17 5 -23
-6 -23 -5 -5 8 17 13 17 15 4 15 -9 0 -20 -4 -23 -10z"/>
<path d="M2380 1169 c0 -5 6 -9 13 -9 7 0 66 -36 132 -80 65 -44 122 -79 127
-78 12 4 -229 169 -253 173 -10 2 -19 0 -19 -6z"/>
<path d="M2827 1133 c-4 -3 -7 -19 -7 -34 0 -23 5 -30 28 -35 15 -3 37 -10 50
-15 38 -15 47 -10 24 14 -12 13 -22 30 -22 38 0 30 -52 53 -73 32z m53 -19
c11 -12 10 -18 -3 -32 -16 -15 -18 -15 -33 0 -19 18 -12 48 9 48 8 0 20 -7 27
-16z"/>
<path d="M2251 1023 c-1 -18 4 -33 9 -33 12 0 12 17 0 45 -7 17 -9 15 -9 -12z"/>
<path d="M1922 997 c-57 -60 -125 -112 -148 -113 -13 -1 -24 3 -24 9 0 5 7 7
15 3 8 -3 15 -1 15 4 0 6 -9 10 -20 10 -11 0 -20 -7 -20 -16 0 -8 -5 -12 -10
-9 -6 4 -8 10 -6 14 3 4 -14 7 -36 7 -23 -1 -43 -6 -45 -13 -6 -17 14 -25 37
-13 15 8 18 8 15 -2 -3 -8 4 -13 20 -13 14 0 25 3 25 7 0 3 9 4 20 1 l21 -6
-21 -14 c-11 -8 -47 -16 -80 -17 -32 -1 -66 -8 -74 -15 -18 -15 -21 -72 -5
-88 8 -8 -12 -28 -70 -72 -74 -56 -108 -89 -84 -80 14 5 70 49 100 77 13 12
28 20 33 17 4 -3 15 7 25 21 13 20 15 37 10 70 -6 44 -6 44 25 44 17 0 29 -4
25 -10 -3 -5 -13 -7 -23 -4 -13 5 -14 4 -3 -4 11 -8 11 -11 0 -16 -8 -3 -3 -3
10 0 17 5 21 3 16 -6 -5 -9 -4 -11 4 -6 6 4 9 12 6 17 -4 5 -1 9 6 9 7 0 5 8
-6 20 -15 17 -16 20 -3 20 9 0 18 -6 21 -14 3 -7 23 -17 44 -21 36 -7 37 -8
15 -18 -12 -6 -21 -15 -19 -21 2 -6 -10 -17 -27 -25 -24 -11 -27 -15 -13 -18
9 -3 33 1 52 7 32 11 35 15 35 50 0 21 -5 42 -12 46 -7 5 -8 3 -3 -6 6 -10 2
-12 -16 -7 -13 4 -30 7 -37 7 -7 0 -10 5 -7 10 4 6 12 10 18 9 25 -3 77 14 77
26 0 6 38 46 85 88 47 42 81 78 76 81 -4 3 -22 -9 -39 -27z m-252 -101 c0 -3
-4 -8 -10 -11 -5 -3 -10 -1 -10 4 0 6 5 11 10 11 6 0 10 -2 10 -4z"/>
<path d="M2839 1000 c-1 -5 -2 -14 -3 -20 0 -5 -10 -15 -20 -23 -30 -22 -14
-47 29 -47 25 0 37 5 41 18 3 9 11 27 17 40 9 18 8 25 -3 32 -20 13 -60 12
-61 0z m45 -6 c11 -4 13 -10 7 -18 -5 -6 -10 -20 -12 -30 -5 -24 -59 -35 -59
-11 0 8 5 15 10 15 6 0 15 11 20 25 10 27 11 28 34 19z"/>
<path d="M2250 945 c0 -19 5 -35 10 -35 6 0 10 16 10 35 0 19 -4 35 -10 35 -5
0 -10 -16 -10 -35z"/>
<path d="M1100 916 c0 -17 2 -18 10 -6 7 11 10 12 10 2 0 -8 6 -12 13 -9 6 2
20 0 30 -5 10 -5 17 -5 17 1 0 5 8 7 18 4 12 -3 18 2 19 16 2 26 -33 29 -40 4
-4 -14 -5 -14 -6 -2 -1 10 -12 15 -36 15 -29 0 -35 -4 -35 -20z m110 10 c0 -3
-4 -8 -10 -11 -5 -3 -10 -1 -10 4 0 6 5 11 10 11 6 0 10 -2 10 -4z"/>
<path d="M2257 868 c8 -46 13 -48 13 -5 0 21 -4 37 -10 37 -5 0 -7 -14 -3 -32z"/>
<path d="M2842 860 c-1 -16 1 -30 5 -30 5 0 9 14 10 30 1 17 -1 30 -5 30 -4 0
-9 -13 -10 -30z"/>
<path d="M2910 880 c0 -5 7 -10 16 -10 8 0 12 -4 9 -10 -3 -5 -1 -10 4 -10 6
0 11 9 11 20 0 13 -7 20 -20 20 -11 0 -20 -4 -20 -10z"/>
<path d="M370 842 c0 -6 12 -15 28 -20 15 -6 20 -11 12 -11 -8 0 -22 3 -30 9
-9 6 -17 5 -23 -3 -6 -8 -7 -6 -3 6 3 11 0 17 -9 17 -8 0 -15 -7 -15 -16 0 -8
-5 -12 -10 -9 -6 4 -8 10 -5 14 2 5 -15 8 -38 7 -37 -1 -42 -3 -40 -23 2 -13
-2 -23 -7 -23 -6 0 -10 3 -10 8 0 4 -33 8 -73 10 -39 1 -89 5 -109 8 -22 3
-38 2 -38 -4 0 -5 45 -13 100 -17 55 -4 103 -11 106 -16 3 -6 14 -7 24 -4 14
4 19 0 22 -17 2 -16 11 -24 28 -27 24 -3 25 -3 7 17 -22 24 -9 36 31 28 15 -3
34 -1 42 4 12 9 10 11 -10 9 -42 -2 -61 1 -56 9 4 7 59 8 116 3 23 -2 22 -4
-15 -22 -32 -16 -35 -19 -13 -16 19 3 25 0 21 -10 -3 -7 -15 -13 -27 -13 -11
0 -28 -5 -36 -11 -11 -7 -5 -9 26 -7 44 3 49 0 163 -89 36 -29 70 -53 75 -53
11 0 -9 19 -79 75 -28 21 -52 42 -55 45 -3 3 -16 14 -30 23 -13 9 -19 17 -12
17 16 0 16 74 0 88 -20 15 -58 24 -58 14z m-86 -37 c-4 -8 -14 -15 -23 -15
-14 1 -13 3 3 15 25 19 27 19 20 0z"/>
<path d="M2910 831 c0 -22 33 -49 67 -56 16 -3 22 -2 14 1 -27 13 -49 37 -45
49 3 7 -4 15 -15 18 -15 4 -21 0 -21 -12z"/>
<path d="M2260 793 c0 -18 5 -33 10 -33 13 0 13 30 0 50 -7 11 -10 7 -10 -17z"/>
<path d="M2853 813 c9 -2 25 -2 35 0 9 3 1 5 -18 5 -19 0 -27 -2 -17 -5z"/>
<path d="M4 655 c0 -77 2 -107 3 -67 2 40 2 103 0 140 -2 37 -3 4 -3 -73z"/>
<path d="M888 773 c10 -4 10 -8 1 -19 -9 -11 -8 -14 3 -14 7 0 14 9 15 20 1
13 -4 20 -15 19 -11 0 -13 -2 -4 -6z"/>
<path d="M923 758 c1 -12 5 -14 11 -8 13 13 29 13 21 0 -7 -12 31 -8 42 5 5 4
2 5 -4 1 -7 -4 -13 -3 -13 3 0 5 5 11 11 13 7 2 -7 4 -29 4 -33 0 -40 -3 -39
-18z"/>
<path d="M1103 773 c9 -2 25 -2 35 0 9 3 1 5 -18 5 -19 0 -27 -2 -17 -5z"/>
<path d="M464 749 c-10 -18 9 -29 59 -33 43 -4 47 -3 48 17 1 17 2 18 6 5 2
-10 9 -18 14 -18 6 0 6 6 0 18 -6 12 -20 17 -38 16 -41 -2 -45 -3 -40 -11 3
-5 -6 -8 -19 -8 -22 0 -23 1 -7 13 15 11 15 12 1 12 -9 0 -20 -5 -24 -11z m90
-15 c3 -8 2 -12 -4 -9 -6 3 -10 10 -10 16 0 14 7 11 14 -7z"/>
<path d="M1030 744 c0 -8 4 -13 9 -9 5 3 12 1 16 -4 3 -6 12 -8 19 -5 8 3 17
1 21 -5 3 -7 -2 -11 -14 -11 -12 0 -21 -4 -21 -9 0 -14 34 -7 45 9 6 8 17 15
25 15 8 0 16 8 18 18 2 12 -3 17 -17 17 -12 0 -21 -6 -21 -16 0 -8 -5 -12 -10
-9 -6 4 -8 11 -5 16 8 12 -2 11 -26 -1 -13 -7 -19 -7 -19 0 0 5 -4 10 -10 10
-5 0 -10 -7 -10 -16z m105 -4 c3 -5 1 -10 -4 -10 -6 0 -11 5 -11 10 0 6 2 10
4 10 3 0 8 -4 11 -10z"/>
<path d="M1452 737 c-11 -12 -10 -17 0 -23 23 -15 92 -11 106 6 10 13 11 12 5
-4 -4 -13 -3 -17 5 -12 7 4 12 13 12 21 0 19 -21 30 -30 15 -5 -8 -10 -8 -14
-2 -10 17 -45 2 -39 -16 4 -10 -2 -7 -13 7 -17 20 -21 21 -32 8z m15 -12 c0
-8 -4 -12 -9 -9 -5 3 -6 10 -3 15 9 13 12 11 12 -6z"/>
<path d="M2260 715 c0 -19 5 -35 10 -35 6 0 10 16 10 35 0 19 -4 35 -10 35 -5
0 -10 -16 -10 -35z"/>
<path d="M915 720 c-3 -5 0 -10 7 -10 9 0 9 -3 -2 -10 -13 -8 -13 -10 2 -10
11 0 16 7 15 20 -1 21 -12 26 -22 10z"/>
<path d="M390 700 c0 -19 3 -21 12 -12 9 9 9 15 0 24 -9 9 -12 7 -12 -12z"/>
<path d="M950 708 c0 -8 7 -15 15 -15 18 0 15 19 -3 25 -7 2 -12 -3 -12 -10z"/>
<path d="M301 700 c8 -6 8 -9 -2 -12 -8 -3 1 -5 19 -6 18 0 32 4 32 11 0 7 4
6 10 -3 8 -13 10 -13 10 1 0 12 -10 16 -41 16 -22 0 -35 -3 -28 -7z"/>
<path d="M1618 689 c-10 -10 -18 -22 -18 -25 0 -3 -9 -19 -21 -35 -11 -16 -16
-29 -10 -29 6 0 21 16 33 35 22 34 34 40 71 37 19 -2 23 13 7 23 -6 4 -18 1
-26 -6 -12 -10 -13 -9 -8 5 8 21 -7 19 -28 -5z"/>
<path d="M1701 684 c0 -11 3 -14 6 -6 3 7 2 16 -1 19 -3 4 -6 -2 -5 -13z"/>
<path d="M1727 668 c3 -18 1 -28 -4 -23 -10 12 -93 16 -93 5 0 -17 12 -40 22
-40 5 0 6 5 3 10 -5 9 8 12 31 9 4 0 10 5 14 11 5 9 10 5 15 -11 8 -23 8 -23
16 -4 10 27 11 75 1 75 -5 0 -7 -15 -5 -32z m-67 -22 c0 -3 -4 -8 -10 -11 -5
-3 -10 -1 -10 4 0 6 5 11 10 11 6 0 10 -2 10 -4z"/>
<path d="M408 679 c-3 -9 -26 -13 -66 -13 -60 -1 -68 -4 -60 -28 3 -8 10 -8
26 1 26 14 28 9 6 -14 -16 -15 -16 -16 2 -13 10 2 24 14 30 28 9 21 11 22 17
7 4 -10 3 -16 -1 -13 -5 3 -9 -1 -9 -9 0 -24 16 -17 23 10 3 14 10 25 15 25 5
0 6 -7 3 -15 -4 -8 -1 -15 6 -15 6 0 8 -4 5 -10 -3 -5 -1 -10 4 -10 14 0 14
17 1 25 -5 3 -7 12 -4 20 8 19 24 9 24 -13 0 -10 9 -23 20 -30 26 -16 25 -7
-2 31 -13 18 -21 34 -20 37 2 2 -1 6 -6 8 -6 2 -12 -3 -14 -9z m-98 -23 c0 -3
-4 -8 -10 -11 -5 -3 -10 -1 -10 4 0 6 5 11 10 11 6 0 10 -2 10 -4z"/>
<path d="M2268 635 c2 -19 6 -35 8 -35 2 0 4 16 4 35 0 19 -4 35 -8 35 -4 0
-6 -16 -4 -35z"/>
<path d="M236 653 c-9 -9 -8 -33 2 -31 4 0 15 -2 25 -7 10 -4 21 -5 24 -1 4 3
-1 6 -10 6 -9 0 -17 6 -17 14 0 17 -14 28 -24 19z"/>
<path d="M1748 635 c-3 -14 -1 -25 3 -25 5 0 9 11 9 25 0 14 -2 25 -4 25 -2 0
-6 -11 -8 -25z"/>
<path d="M1774 630 c0 -11 4 -20 8 -20 4 0 8 9 8 20 0 11 -4 20 -8 20 -4 0 -8
-9 -8 -20z"/>
<path d="M1610 620 c0 -5 5 -10 11 -10 5 0 7 5 4 10 -3 6 -8 10 -11 10 -2 0
-4 -4 -4 -10z"/>
<path d="M1674 618 c-3 -4 4 -8 15 -8 12 0 21 4 21 8 0 5 -7 9 -15 9 -9 0 -18
-4 -21 -9z"/>
<path d="M2736 578 c-32 -45 31 -89 69 -48 15 17 16 24 7 45 -15 32 -55 34
-76 3z m58 -14 c-3 -35 -10 -39 -38 -24 -19 10 -22 15 -13 25 12 11 34 22 48
24 3 1 5 -11 3 -25z"/>
<path d="M2760 560 c-13 -8 -12 -10 3 -10 9 0 17 5 17 10 0 12 -1 12 -20 0z"/>
<path d="M463 583 c-7 -2 -13 -19 -13 -36 0 -23 3 -28 9 -18 5 8 7 20 4 27 -5
14 17 30 26 18 9 -14 91 -18 91 -5 0 6 -18 11 -39 11 -22 0 -45 2 -53 4 -7 3
-19 2 -25 -1z"/>
<path d="M625 570 c3 -5 44 -10 91 -10 50 0 83 -4 79 -9 -3 -5 -1 -12 5 -16 5
-3 10 3 10 14 0 31 50 30 51 -1 1 -17 2 -19 6 -5 4 14 16 17 69 17 36 0 64 4
64 10 0 6 -70 10 -191 10 -124 0 -188 -3 -184 -10z"/>
<path d="M1728 573 c6 -2 18 -2 25 0 6 3 1 5 -13 5 -14 0 -19 -2 -12 -5z"/>
<path d="M1938 573 c29 -2 74 -2 100 0 26 2 2 3 -53 3 -55 0 -76 -1 -47 -3z"/>
<path d="M2523 573 c9 -2 25 -2 35 0 9 3 1 5 -18 5 -19 0 -27 -2 -17 -5z"/>
<path d="M34 559 c-3 -6 -2 -15 3 -20 5 -5 9 -1 10 11 2 22 -2 25 -13 9z"/>
<path d="M2606 544 c-4 -10 -1 -14 6 -12 15 5 23 28 10 28 -5 0 -13 -7 -16
-16z"/>
<path d="M2729 462 c-1 -17 -3 -21 -6 -9 -2 9 -11 17 -19 17 -12 0 -12 -3 -2
-20 18 -28 66 -24 66 6 0 13 -8 24 -19 27 -15 4 -19 -1 -20 -21z m18 -14 c-3
-8 -6 -5 -6 6 -1 11 2 17 5 13 3 -3 4 -12 1 -19z"/>
<path d="M2782 460 c0 -19 2 -27 5 -17 2 9 2 25 0 35 -3 9 -5 1 -5 -18z"/>
<path d="M2580 457 c0 -19 5 -24 23 -24 32 0 30 41 -1 45 -18 3 -22 -2 -22
-21z"/>
<path d="M77 449 c6 -22 7 -22 14 -3 7 16 8 17 8 2 1 -20 21 -25 21 -5 0 8 4
7 10 -3 9 -13 10 -13 10 0 0 9 3 11 8 5 4 -6 21 -11 37 -12 17 -2 24 0 16 3
-11 5 -11 8 0 15 9 6 -4 9 -36 9 -27 0 -60 3 -72 6 -19 5 -21 3 -16 -17z"/>
<path d="M230 450 c0 -11 4 -20 8 -20 4 0 8 9 8 20 0 11 -4 20 -8 20 -4 0 -8
-9 -8 -20z"/>
<path d="M255 460 c-9 -15 3 -29 25 -27 19 1 22 17 5 29 -14 10 -23 10 -30 -2z"/>
<path d="M310 449 c0 -15 10 -17 70 -16 58 0 70 3 70 17 0 14 -11 17 -70 17
-60 0 -70 -3 -70 -18z m103 -2 c-5 -9 -73 -6 -73 3 0 3 18 6 39 5 21 0 37 -3
34 -8z"/>
<path d="M550 451 c0 -18 3 -19 26 -11 16 7 23 7 19 0 -3 -6 -1 -10 4 -10 6 0
11 6 11 13 0 7 3 8 8 2 11 -16 63 -16 79 0 13 13 8 15 -34 13 -26 -1 -63 2
-80 6 -29 7 -33 5 -33 -13z"/>
<path d="M727 463 c-13 -12 -7 -24 16 -32 16 -7 25 -5 35 7 6 9 12 11 12 5 0
-6 16 -11 35 -11 22 0 35 5 35 13 0 17 -27 23 -62 14 -15 -4 -30 -3 -33 2 -7
11 -29 12 -38 2z m36 -17 c4 -10 0 -12 -14 -9 -22 6 -26 23 -5 23 8 0 16 -6
19 -14z m62 4 c-3 -5 -12 -10 -18 -10 -7 0 -6 4 3 10 19 12 23 12 15 0z"/>
<path d="M880 451 c0 -14 7 -19 28 -18 15 1 30 6 34 12 5 6 8 5 8 -4 0 -10 3
-11 14 -2 10 8 16 9 21 1 9 -14 22 -12 22 4 0 10 -13 13 -49 12 -26 -1 -48 2
-48 6 0 4 -7 8 -15 8 -8 0 -15 -9 -15 -19z"/>
<path d="M1100 448 c0 -21 0 -21 15 -2 13 17 14 17 15 2 0 -21 20 -25 20 -4 0
13 -20 26 -41 26 -5 0 -9 -10 -9 -22z"/>
<path d="M1173 463 c-20 -7 -15 -32 6 -30 10 0 18 7 17 14 -3 17 -9 21 -23 16z"/>
<path d="M1220 448 c0 -19 2 -20 10 -8 13 19 13 30 0 30 -5 0 -10 -10 -10 -22z"/>
<path d="M1385 460 c-18 -8 -18 -9 -2 -9 10 -1 15 -5 12 -11 -3 -5 -1 -10 4
-10 6 0 11 9 11 20 0 11 -1 20 -2 19 -2 0 -12 -4 -23 -9z"/>
<path d="M1437 449 c6 -22 7 -22 13 -3 7 19 7 19 13 -1 6 -20 6 -20 4 0 -1 11
-10 21 -19 23 -13 2 -15 -2 -11 -19z"/>
<path d="M2647 463 c-15 -14 -6 -33 16 -32 21 0 21 1 2 9 -17 7 -17 9 -2 9 9
1 17 6 17 11 0 11 -23 14 -33 3z"/>
<path d="M2801 448 c0 -22 1 -22 9 -3 7 17 9 17 9 3 1 -10 6 -18 12 -18 17 0
5 34 -14 38 -12 3 -17 -3 -16 -20z"/>
<path d="M2847 450 c3 -11 7 -20 9 -20 2 0 4 9 4 20 0 11 -4 20 -9 20 -5 0 -7
-9 -4 -20z"/>
<path d="M2870 450 c0 -14 6 -20 23 -19 16 1 18 2 5 6 -10 2 -18 8 -18 13 0 5
7 6 17 3 11 -4 14 -3 9 5 -12 19 -36 14 -36 -8z"/>
<path d="M1017 454 c-11 -12 3 -24 29 -24 15 0 24 6 24 15 0 15 -40 21 -53 9z"/>
<path d="M1244 448 c-6 -10 -6 -10 23 -13 12 -1 20 2 17 6 -3 5 0 9 5 9 6 0
11 -4 11 -8 0 -5 7 -9 15 -9 8 0 15 6 15 12 0 14 -78 17 -86 3z"/>
<path d="M1340 445 c0 -8 5 -15 10 -15 6 0 10 7 10 15 0 8 -4 15 -10 15 -5 0
-10 -7 -10 -15z"/>
<path d="M1483 445 c0 -8 4 -15 9 -15 4 0 8 6 8 13 0 7 3 8 8 2 11 -16 42 -17
42 -2 0 9 -12 14 -33 15 -23 1 -34 -3 -34 -13z"/>
<path d="M2113 363 c-7 -2 -13 -14 -13 -26 0 -16 3 -18 9 -8 7 11 9 11 14 0 3
-8 5 -2 4 14 -1 15 -2 27 -2 26 0 0 -6 -3 -12 -6z"/>
<path d="M2692 345 c0 -16 2 -22 5 -12 2 9 2 23 0 30 -3 6 -5 -1 -5 -18z"/>
<path d="M1540 315 l0 -45 255 0 255 0 0 45 0 45 -255 0 -255 0 0 -45z m500 0
l0 -35 -245 0 -245 0 0 35 0 35 245 0 245 0 0 -35z"/>
<path d="M1570 319 c0 -6 7 -9 18 -5 16 6 16 5 -1 -8 -17 -13 -16 -14 7 -12
13 0 22 6 19 11 -3 6 0 4 8 -2 7 -7 16 -13 19 -13 11 0 7 30 -4 31 -6 0 -23 3
-38 5 -17 3 -28 0 -28 -7z"/>
<path d="M1750 320 c-13 -9 -13 -11 0 -20 18 -11 39 5 24 20 -6 6 -15 6 -24 0z"/>
<path d="M1800 310 c0 -13 5 -20 13 -17 6 2 12 10 12 17 0 7 -6 15 -12 18 -8
2 -13 -5 -13 -18z"/>
<path d="M1993 315 c2 -5 10 -10 17 -10 7 0 15 5 17 10 2 6 -6 11 -17 11 -11
0 -19 -5 -17 -11z"/>
<path d="M1660 309 c0 -5 4 -9 9 -9 5 0 16 -3 25 -6 10 -4 16 -1 16 9 0 9 -10
15 -25 15 -14 0 -25 -4 -25 -9z"/>
<path d="M2301 343 c-1 -21 3 -23 47 -21 38 2 48 6 49 20 1 10 -2 18 -8 18 -5
0 -9 -4 -9 -9 0 -5 -11 -8 -25 -5 -14 2 -25 0 -25 -6 0 -17 -18 -11 -23 8 -4
13 -5 12 -6 -5z"/>
<path d="M2420 349 c0 -6 8 -8 18 -5 16 6 16 5 0 -7 -14 -12 -12 -13 18 -14
23 -1 32 3 27 10 -4 7 1 6 10 -2 15 -12 17 -11 17 9 0 21 -1 22 -25 6 -22 -14
-25 -15 -25 -1 0 8 -9 15 -20 15 -11 0 -20 -5 -20 -11z"/>
<path d="M2559 358 c-6 -21 -5 -38 2 -38 5 0 9 9 9 20 0 16 -7 28 -11 18z"/>
<path d="M2714 343 c2 -12 12 -18 29 -18 15 -1 23 3 19 10 -3 5 2 4 11 -4 20
-16 30 -12 18 8 -5 7 -24 15 -44 18 -30 4 -35 2 -33 -14z m31 -3 c-3 -5 -12
-10 -18 -10 -7 0 -6 4 3 10 19 12 23 12 15 0z"/>
<path d="M2809 349 c-11 -6 -11 -11 -1 -21 9 -9 12 -9 12 1 0 11 3 11 17 0 15
-12 16 -12 8 1 -6 12 -5 13 6 3 7 -7 16 -13 19 -13 11 0 7 30 -4 31 -6 0 -18
2 -27 4 -9 1 -23 -1 -30 -6z"/>
<path d="M2952 343 c2 -10 10 -18 18 -18 8 0 16 8 18 18 2 12 -3 17 -18 17
-15 0 -20 -5 -18 -17z m28 -3 c0 -5 -4 -10 -10 -10 -5 0 -10 5 -10 10 0 6 5
10 10 10 6 0 10 -4 10 -10z"/>
<path d="M621 330 c-24 -9 -40 -20 -35 -23 10 -6 94 28 94 38 0 7 -9 5 -59
-15z"/>
<path d="M1452 338 c-18 -18 -15 -36 9 -49 29 -15 59 12 43 39 -14 22 -36 26
-52 10z m15 -30 c-3 -7 -5 -2 -5 12 0 14 2 19 5 13 2 -7 2 -19 0 -25z m20 0
c-3 -8 -6 -5 -6 6 -1 11 2 17 5 13 3 -3 4 -12 1 -19z"/>
<path d="M2160 335 c0 -8 5 -15 11 -15 5 0 8 4 5 9 -4 5 0 12 6 14 8 3 6 6 -4
6 -10 1 -18 -6 -18 -14z"/>
<path d="M2520 335 c0 -8 5 -15 10 -15 6 0 10 7 10 15 0 8 -4 15 -10 15 -5 0
-10 -7 -10 -15z"/>
<path d="M108 332 c-32 -3 -38 -7 -38 -27 0 -13 5 -27 10 -30 6 -3 10 1 10 9
0 9 7 16 15 16 8 0 15 4 15 10 0 5 7 7 15 4 12 -5 10 -10 -8 -25 l-22 -20 25
3 c18 2 26 10 28 27 5 30 -5 37 -50 33z"/>
<path d="M332 303 c3 -35 4 -36 43 -36 39 0 40 1 43 36 l3 37 -46 0 -46 0 3
-37z m68 1 c0 -15 -27 -26 -35 -14 -4 6 -4 14 -1 18 8 13 36 10 36 -4z"/>
<path d="M457 333 c-4 -3 -7 -22 -7 -40 l0 -34 53 3 52 3 3 38 3 37 -49 0
c-27 0 -52 -3 -55 -7z m70 -45 c-3 -7 -5 -2 -5 12 0 14 2 19 5 13 2 -7 2 -19
0 -25z m-17 7 c0 -6 -11 -12 -25 -13 -16 -1 -25 3 -25 13 0 10 9 14 25 13 14
-1 25 -7 25 -13z"/>
<path d="M212 318 c-23 -23 -13 -38 26 -38 40 0 62 14 62 39 0 12 -3 11 -18
-2 -21 -19 -62 -19 -55 0 6 16 1 17 -15 1z"/>
<path d="M240 320 c0 -5 4 -10 9 -10 6 0 13 5 16 10 3 6 -1 10 -9 10 -9 0 -16
-4 -16 -10z"/>
<path d="M612 288 c-18 -11 -31 -22 -29 -24 5 -6 97 33 97 41 0 11 -37 2 -68
-17z"/>
<path d="M2984 155 c0 -88 2 -123 3 -77 2 46 2 118 0 160 -1 42 -3 5 -3 -83z"/>
<path d="M2168 293 c7 -3 16 -2 19 1 4 3 -2 6 -13 5 -11 0 -14 -3 -6 -6z"/>
<path d="M2243 294 c4 -4 110 -7 237 -7 210 1 230 -1 230 -16 0 -13 8 -17 32
-17 31 1 54 26 23 26 -10 0 -14 -5 -10 -13 4 -6 -1 -3 -10 8 -15 19 -30 20
-263 23 -135 2 -243 0 -239 -4z"/>
<path d="M2772 293 c23 -4 26 -7 19 -22 -8 -15 -4 -17 29 -18 24 0 41 4 44 13
6 16 -24 19 -42 4 -6 -6 -10 -7 -7 -4 10 14 -18 34 -44 33 l-26 -2 27 -4z"/>
<path d="M2880 290 c30 -4 64 -3 75 1 12 5 -10 7 -55 7 l-75 -1 55 -7z"/>
<path d="M2182 263 c4 -22 47 -30 59 -12 12 20 1 29 -32 29 -24 0 -30 -4 -27
-17z"/>
<path d="M2478 263 c6 -2 18 -2 25 0 6 3 1 5 -13 5 -14 0 -19 -2 -12 -5z"/>
<path d="M2878 253 c6 -2 18 -2 25 0 6 3 1 5 -13 5 -14 0 -19 -2 -12 -5z"/>
<path d="M1410 190 l0 -50 155 0 155 0 0 50 0 50 -155 0 -155 0 0 -50z m300 0
l0 -40 -145 0 -145 0 0 40 0 40 145 0 145 0 0 -40z"/>
<path d="M1510 188 c0 -19 2 -20 10 -8 13 19 13 30 0 30 -5 0 -10 -10 -10 -22z"/>
<path d="M1536 194 c-9 -24 -7 -31 4 -14 6 10 10 11 10 3 0 -7 5 -13 10 -13
15 0 12 27 -4 33 -8 3 -17 -1 -20 -9z"/>
<path d="M1580 186 c0 -16 28 -17 33 -1 3 6 -4 12 -14 12 -10 1 -19 -4 -19
-11z"/>
<path d="M1730 190 l0 -51 158 3 157 3 3 48 3 47 -160 0 -161 0 0 -50z m308 3
l-3 -38 -147 -3 -148 -3 0 41 0 40 151 0 150 0 -3 -37z"/>
<path d="M1810 191 c0 -15 7 -19 30 -19 35 1 40 23 8 32 -35 9 -38 8 -38 -13z
m25 -1 c3 -5 1 -10 -4 -10 -6 0 -11 5 -11 10 0 6 2 10 4 10 3 0 8 -4 11 -10z"/>
<path d="M1880 194 c0 -17 7 -21 45 -23 27 -1 45 2 45 9 0 15 -43 30 -51 18
-9 -14 -20 -12 -30 4 -6 9 -9 8 -9 -8z"/>
<path d="M2255 230 c-4 -7 73 -10 224 -10 147 0 231 4 231 10 0 6 -81 10 -224
10 -139 0 -227 -4 -231 -10z"/>
<path d="M2810 230 l-55 -7 63 -1 c36 -1 62 2 62 8 0 6 -3 9 -7 8 -5 -1 -33
-4 -63 -8z"/>
<path d="M2895 230 c-4 -6 8 -10 29 -10 19 0 38 5 41 10 4 6 -8 10 -29 10 -19
0 -38 -4 -41 -10z"/>
<path d="M20 185 l0 -45 355 0 355 0 0 45 0 45 -355 0 -355 0 0 -45z m700 -1
l0 -34 -345 0 -345 0 0 35 0 34 345 0 345 0 0 -35z"/>
<path d="M280 184 c0 -14 2 -15 17 -3 11 10 14 10 9 2 -8 -14 -9 -14 56 -17
28 -1 44 2 41 8 -4 5 1 7 10 3 10 -4 17 -1 17 6 1 7 6 5 14 -5 14 -19 28 -14
20 6 -4 10 -87 15 -104 6 -3 -1 -9 -1 -15 0 -52 11 -65 10 -65 -6z"/>
<path d="M125 110 c-3 -5 -17 -10 -29 -10 -18 0 -25 -7 -29 -27 -3 -16 -1 -30
4 -31 5 -2 7 -8 3 -13 -7 -12 53 -11 77 1 28 15 28 90 0 90 -11 0 -23 -4 -26
-10z m-15 -30 c0 -5 -7 -10 -15 -10 -8 0 -15 5 -15 10 0 6 7 10 15 10 8 0 15
-4 15 -10z m50 -4 c0 -11 -19 -15 -25 -6 -3 5 1 10 9 10 9 0 16 -2 16 -4z
m-29 -39 c-11 -11 -41 -3 -41 11 0 5 12 7 26 4 17 -3 22 -8 15 -15z"/>
<path d="M207 113 c-4 -3 -7 -27 -7 -52 0 -45 0 -46 32 -45 32 1 33 2 36 52 3
51 3 52 -26 52 -16 0 -32 -3 -35 -7z m40 -30 c-4 -3 -2 -12 4 -20 9 -10 6 -13
-14 -13 -23 0 -27 8 -18 38 1 1 9 2 18 2 9 0 13 -3 10 -7z"/>
<path d="M440 100 c0 -11 5 -20 10 -20 6 0 10 5 10 10 0 6 14 10 30 10 17 0
30 -4 30 -10 0 -5 5 -10 10 -10 6 0 10 9 10 20 0 17 -7 20 -50 20 -43 0 -50
-3 -50 -20z"/>
<path d="M1410 65 l0 -55 320 0 320 0 0 55 0 55 -320 0 -320 0 0 -55z m630 0
l0 -45 -310 0 -310 0 0 45 0 45 310 0 310 0 0 -45z"/>
<path d="M1435 80 c-3 -5 -1 -10 5 -10 6 0 8 -4 5 -10 -3 -5 0 -10 7 -11 7 0
25 -2 41 -4 18 -2 30 2 37 14 8 16 5 18 -28 16 -20 -1 -42 2 -49 7 -7 5 -14 5
-18 -2z"/>
<path d="M1542 66 c-7 -16 -8 -26 -1 -26 12 0 22 25 17 41 -2 6 -9 0 -16 -15z"/>
<path d="M1615 82 c-9 -10 -5 -33 5 -27 6 3 16 3 23 -2 6 -4 24 -8 40 -9 22
-1 27 3 26 20 0 20 -1 20 -9 1 -7 -17 -9 -17 -9 -2 -1 9 -7 17 -13 18 -7 0
-23 2 -36 3 -12 2 -24 0 -27 -2z"/>
<path d="M1875 81 c-3 -6 -14 -8 -25 -6 -22 4 -25 -2 -10 -25 9 -13 10 -13 10
0 0 13 1 13 10 0 8 -12 10 -12 10 5 0 17 2 17 10 5 8 -12 11 -13 19 -1 6 9 10
10 12 2 5 -14 57 -22 64 -11 3 5 14 6 25 3 11 -3 20 -1 20 5 0 5 -13 12 -29
14 -23 3 -28 1 -24 -11 2 -9 -2 -6 -9 7 -15 25 -30 20 -20 -6 5 -15 4 -15 -11
0 -10 10 -25 14 -34 11 -11 -4 -14 -3 -9 5 4 7 5 12 2 12 -3 0 -7 -4 -11 -9z"/>
<path d="M1570 60 c0 -26 15 -26 17 0 1 11 -2 20 -8 20 -5 0 -9 -9 -9 -20z"/>
<path d="M1731 68 c-1 -23 17 -32 34 -18 8 7 15 8 15 3 0 -5 7 -10 15 -10 9 0
15 9 15 21 0 16 -2 18 -9 7 -7 -10 -10 -10 -13 -1 -3 9 -8 8 -20 -4 -21 -20
-25 -20 -31 2 -4 15 -5 15 -6 0z"/>
<path d="M322 84 c-32 -22 -12 -44 39 -44 34 0 39 3 39 24 0 37 -40 47 -78 20z
m63 -14 c-7 -11 -38 -6 -42 7 -2 6 7 8 21 6 14 -3 24 -9 21 -13z"/>
<path d="M574 78 c-8 -25 2 -35 42 -42 35 -7 58 11 52 41 -2 14 -14 18 -45 20
-34 1 -43 -2 -49 -19z m81 -8 c7 -11 -9 -11 -45 0 -24 8 -24 8 7 9 17 1 35 -3
38 -9z"/>
<path d="M453 68 c-33 -16 -29 -24 22 -41 25 -8 44 -12 41 -9 -3 2 0 14 5 25
18 33 -21 47 -68 25z m44 -24 c-3 -3 -12 -4 -19 -1 -8 3 -5 6 6 6 11 1 17 -2
13 -5z"/>
<path d="M2150 25 c0 -14 5 -25 10 -25 6 0 9 6 8 13 -2 7 10 13 29 15 23 2 32
-1 36 -15 4 -15 5 -15 6 -2 0 9 12 19 26 21 20 4 25 1 25 -16 1 -19 2 -19 11
-3 13 22 69 24 69 2 0 -8 5 -15 10 -15 6 0 10 11 10 25 l0 25 -120 0 -120 0 0
-25z"/>
<path d="M2107 24 c-8 -8 1 -24 12 -24 4 0 8 7 8 15 0 16 -9 20 -20 9z"/>
<path d="M2943 15 c0 -9 4 -14 9 -13 5 2 10 8 10 13 0 5 -5 11 -10 13 -5 1 -9
-4 -9 -13z"/>
<path d="M890 13 c0 -5 15 -9 33 -10 26 -1 28 0 12 7 -26 11 -45 12 -45 3z"/>
<path d="M1085 10 l-30 -8 33 -1 c17 0 32 4 32 9 0 6 -1 9 -2 9 -2 -1 -16 -5
-33 -9z"/>
<path d="M1140 12 c0 -5 7 -9 15 -9 8 0 15 4 15 9 0 4 -7 8 -15 8 -8 0 -15 -4
-15 -8z"/>
<path d="M1270 9 c0 -5 11 -9 25 -9 14 0 25 2 25 4 0 2 -11 6 -25 8 -14 3 -25
1 -25 -3z"/>
<path d="M1188 3 c6 -2 18 -2 25 0 6 3 1 5 -13 5 -14 0 -19 -2 -12 -5z"/>
</g>
</svg>
