<?xml version="1.0" standalone="no"?>
<!DOCTYPE svg PUBLIC "-//W3C//DTD SVG 20010904//EN"
 "http://www.w3.org/TR/2001/REC-SVG-20010904/DTD/svg10.dtd">
<svg version="1.0" xmlns="http://www.w3.org/2000/svg"
 width="300.000000pt" height="300.000000pt" viewBox="0 0 300.000000 300.000000"
 preserveAspectRatio="xMidYMid meet">
<metadata>
Created by potrace 1.10, written by Peter Selinger 2001-2011
</metadata>
<g transform="translate(0.000000,300.000000) scale(0.100000,-0.100000)"
fill="#000000" stroke="none">
<path d="M1355 2989 c-192 -13 -415 -84 -599 -189 -245 -140 -469 -378 -598
-633 -86 -173 -152 -426 -146 -564 3 -66 4 -68 31 -71 15 -2 25 -8 22 -13 -4
-5 0 -9 7 -9 8 0 31 -18 52 -39 26 -26 44 -37 55 -33 13 5 14 3 4 -9 -21 -26
6 -50 61 -56 38 -5 51 -2 69 14 12 11 33 19 47 18 13 -1 31 4 38 12 7 7 21 13
31 13 15 0 19 -12 25 -72 12 -131 106 -369 180 -455 11 -13 16 -23 13 -23 -15
0 107 -127 172 -179 58 -48 133 -100 171 -119 19 -9 38 -21 42 -27 4 -5 8 -7
8 -2 0 4 14 0 30 -8 37 -19 131 -49 225 -70 110 -26 315 -22 440 9 55 13 103
22 107 20 5 -3 8 -1 8 5 0 8 32 24 52 26 3 0 10 3 14 8 4 4 16 7 26 7 10 0 18
4 18 9 0 5 12 12 27 16 14 3 42 19 62 36 20 16 40 29 46 29 5 0 31 20 57 45
27 25 50 45 53 45 7 0 37 32 85 91 19 24 43 50 53 58 9 9 17 20 17 26 0 5 16
32 35 59 19 27 35 55 35 61 0 6 12 35 26 63 29 58 74 212 74 253 0 34 9 41 27
24 8 -8 28 -15 44 -15 19 0 29 -5 29 -14 0 -21 38 -45 61 -39 10 3 19 12 19
19 0 8 5 14 11 14 6 0 8 9 4 20 -6 17 -2 20 30 20 20 0 34 -4 31 -9 -4 -5 3
-7 15 -4 11 3 26 14 32 24 16 26 22 24 46 -14 22 -36 64 -45 81 -17 8 12 10 9
10 -13 0 -16 -4 -26 -9 -23 -4 3 -7 -7 -5 -22 5 -45 -40 -235 -75 -317 -40
-92 -124 -255 -132 -255 -6 0 -8 -4 -4 -9 3 -5 1 -13 -5 -16 -6 -4 -22 -24
-35 -46 -14 -21 -50 -66 -81 -98 -31 -33 -55 -63 -54 -67 1 -3 -11 -15 -27
-25 -15 -10 -23 -19 -18 -19 6 0 -1 -8 -15 -18 -25 -17 -40 -29 -103 -85 -18
-16 -45 -36 -62 -44 -16 -9 -35 -23 -42 -32 -7 -9 -13 -11 -13 -6 0 6 -3 6 -8
-1 -10 -15 -130 -84 -147 -84 -8 0 -16 -4 -19 -9 -3 -5 -18 -12 -33 -16 -15
-3 -51 -17 -79 -30 -68 -31 -236 -71 -359 -85 -55 -7 -102 -14 -104 -16 -13
-12 165 -1 248 16 301 61 546 194 767 414 180 181 286 351 364 585 47 139 70
266 69 370 -1 42 -3 68 -6 58 -3 -11 -10 -16 -20 -13 -8 3 -22 6 -31 6 -14 0
-18 12 -20 67 -2 39 -8 71 -15 75 -20 13 -55 9 -72 -8 -16 -16 -19 -15 -65 11
-14 8 -33 15 -42 15 -24 0 -61 -38 -54 -56 3 -8 1 -14 -4 -14 -6 0 -10 4 -10
9 0 5 -10 6 -22 3 -25 -6 -48 -25 -48 -39 0 -4 -8 -13 -18 -19 -15 -10 -18 -8
-19 7 -1 11 3 19 9 19 7 0 7 4 1 13 -6 6 -13 45 -17 86 -7 86 -37 209 -65 272
-11 24 -17 47 -15 51 3 4 1 8 -4 8 -6 0 -15 13 -20 30 -6 16 -22 45 -36 63
-30 39 -32 49 -11 41 8 -4 12 -10 9 -16 -3 -5 0 -8 7 -7 20 4 59 -11 59 -22 0
-6 5 -7 10 -4 6 4 10 -14 10 -45 0 -45 4 -56 31 -81 29 -27 31 -28 49 -11 28
27 33 82 10 125 -19 35 -13 56 12 41 7 -4 8 -3 4 4 -4 7 6 4 23 -5 16 -10 27
-21 25 -24 -2 -4 10 -11 28 -14 26 -6 35 -3 49 14 20 24 15 57 -12 74 -25 15
-24 23 6 59 33 39 33 82 1 103 -21 14 -28 14 -58 2 -18 -8 -42 -24 -52 -36
-22 -24 -61 -28 -69 -7 -3 7 -19 18 -35 24 -36 13 -58 -6 -64 -53 -2 -21 -11
-33 -30 -42 -20 -9 -28 -19 -28 -38 l0 -27 -22 27 c-57 66 -116 130 -148 159
-19 17 -45 41 -58 54 -12 12 -41 31 -63 42 -22 12 -37 25 -34 30 3 6 -1 7 -9
4 -9 -3 -16 -1 -16 5 0 13 26 15 34 2 6 -10 54 -3 61 10 7 10 -30 81 -40 79
-15 -3 -22 23 -14 54 15 58 37 109 51 120 40 30 44 86 7 86 -11 0 -21 6 -23
13 -2 6 -7 21 -12 32 -4 11 -6 23 -6 28 1 4 -4 7 -12 7 -8 0 -27 -19 -43 -42
-15 -23 -34 -43 -41 -44 -7 -1 -9 0 -4 2 16 9 0 65 -23 80 -27 18 -55 6 -76
-33 -7 -12 -15 -20 -20 -18 -4 3 -15 2 -24 -1 -13 -5 -15 -14 -11 -40 5 -26 2
-37 -16 -54 -12 -11 -33 -23 -46 -27 -34 -8 -47 -39 -27 -69 8 -13 24 -24 35
-24 11 0 20 -4 20 -10 0 -5 8 -10 18 -10 11 0 27 -9 36 -19 10 -11 31 -23 47
-26 32 -7 72 -43 63 -56 -2 -5 -11 -6 -19 -3 -8 4 -12 11 -8 17 3 5 2 7 -4 4
-9 -5 -77 16 -138 42 -34 16 -136 31 -201 31 -35 0 -65 4 -68 9 -3 5 -17 9
-31 9 -13 0 -22 -4 -19 -9 3 -5 0 -9 -5 -9 -6 0 -11 6 -11 13 0 9 -2 9 -8 0
-4 -7 -40 -13 -90 -15 -45 -2 -82 -6 -82 -9 0 -4 -14 -9 -31 -11 -29 -5 -31
-3 -27 23 3 15 1 26 -4 23 -4 -3 -8 7 -9 23 0 15 -3 37 -6 48 -3 11 -7 40 -10
65 -5 38 -37 96 -73 130 -3 3 -10 14 -16 25 -26 46 -78 23 -70 -30 4 -22 1
-37 -9 -45 -8 -7 -15 -19 -15 -27 0 -8 -6 -21 -14 -29 -13 -12 -15 -8 -14 36
0 51 -16 80 -46 80 -24 0 -39 -39 -34 -91 3 -27 2 -46 -2 -44 -4 2 -6 -7 -4
-20 1 -14 -2 -25 -6 -25 -14 0 -21 -36 -14 -64 4 -18 13 -26 28 -26 17 0 18
-2 6 -10 -10 -6 -11 -10 -2 -10 6 0 12 -11 12 -24 0 -33 26 -53 50 -38 12 7
21 8 25 2 9 -14 49 -12 63 2 14 14 16 64 3 72 -5 3 -11 14 -13 24 -4 15 0 17
28 14 26 -3 41 -14 64 -45 16 -23 30 -46 30 -53 0 -14 -28 -27 -41 -18 -5 3
-9 1 -9 -4 0 -9 -55 -37 -72 -37 -4 0 -13 -6 -19 -12 -7 -7 -21 -13 -31 -13
-10 0 -18 -5 -18 -11 0 -5 -4 -8 -9 -4 -6 3 -13 0 -18 -7 -4 -7 -20 -20 -35
-28 -52 -30 -133 -103 -226 -204 -49 -54 -52 -56 -50 -29 2 34 -15 69 -42 83
-11 6 -20 23 -22 43 -4 44 -42 49 -87 11 l-32 -27 -38 42 c-33 36 -43 41 -74
39 -20 -1 -39 1 -42 4 -11 10 209 258 228 258 3 0 18 12 34 28 58 55 178 142
196 142 5 0 15 7 24 16 9 8 23 12 31 9 9 -3 13 -3 9 1 -17 17 259 131 290 120
8 -3 12 -2 9 3 -7 11 129 40 242 50 51 5 98 13 105 20 6 6 9 10 7 10 -3 -1
-54 -5 -115 -10z m-275 -143 c5 -14 25 -42 44 -64 25 -27 35 -48 34 -68 0 -26
8 -77 28 -168 10 -43 -8 -26 -40 39 -27 52 -31 56 -57 50 -40 -9 -50 0 -38 32
7 19 6 28 -5 37 -7 6 -16 23 -20 38 -5 21 -2 30 15 38 20 11 21 27 3 74 -4 11
-1 16 10 16 9 0 21 -11 26 -24z m-138 -71 c-2 -27 1 -58 6 -69 6 -12 13 -29
16 -39 9 -27 26 -11 26 24 0 16 5 29 11 29 8 0 10 -17 6 -57 -5 -46 -2 -63 15
-93 12 -20 19 -44 15 -53 -9 -23 -39 -10 -32 13 3 9 -1 23 -10 30 -13 11 -17
8 -26 -19 -20 -56 -39 -33 -39 46 0 44 -1 45 -18 30 -10 -10 -22 -17 -26 -17
-13 0 4 53 24 75 12 14 15 26 10 40 -11 25 -12 99 -3 109 17 17 28 -5 25 -49z
m1016 29 c2 -14 -9 -32 -34 -53 -42 -38 -40 -48 5 -25 19 9 42 13 57 10 22 -6
27 -1 44 39 30 70 48 54 25 -22 -7 -21 15 -26 40 -9 32 21 40 5 14 -28 -15
-19 -30 -26 -55 -26 -19 0 -34 -4 -34 -10 0 -5 10 -10 21 -10 19 0 21 -4 16
-36 -3 -20 -14 -45 -23 -55 -21 -24 -11 -50 41 -107 l36 -40 -35 8 c-19 4 -51
16 -73 26 -29 15 -37 24 -36 42 2 19 -2 22 -30 22 -31 0 -97 32 -97 47 0 5 10
24 22 43 l23 35 3 -33 c2 -18 10 -36 18 -39 24 -9 29 5 9 27 -16 18 -17 24 -7
41 8 13 9 19 1 19 -22 0 -47 -21 -68 -56 -20 -33 -23 -35 -39 -21 -9 8 -26 17
-37 19 -31 5 -23 30 14 43 58 19 90 82 59 113 -10 10 -6 11 17 7 26 -5 32 -2
47 25 20 36 51 38 56 4z m-203 -303 c197 -53 410 -191 537 -350 452 -564 199
-1408 -487 -1624 -121 -38 -218 -50 -357 -45 -195 8 -373 66 -539 179 -136 91
-288 273 -355 425 -140 317 -108 699 82 985 150 226 381 383 650 443 103 23
362 16 469 -13z m-1352 -231 c25 -27 50 -50 54 -50 5 0 17 13 26 29 28 47 85
55 69 10 -6 -16 0 -29 30 -59 34 -34 37 -40 27 -66 -5 -16 -20 -42 -33 -57
-23 -28 -24 -29 -54 -13 -17 9 -44 16 -61 16 -39 0 -45 13 -25 52 l17 32 -53
48 c-41 36 -59 46 -76 42 -17 -4 -24 0 -29 16 -4 12 -1 27 5 35 23 28 55 17
103 -35z m-93 -39 c17 -5 30 -8 30 -5 0 2 8 -4 18 -14 10 -10 28 -25 40 -33
19 -13 20 -20 12 -48 -12 -42 -4 -61 31 -68 17 -3 26 -10 22 -17 -4 -7 -2 -7
7 1 10 9 18 8 36 -4 15 -10 35 -13 53 -10 l29 6 -34 -67 c-19 -37 -42 -92 -51
-122 -10 -30 -20 -57 -24 -60 -9 -7 -29 -128 -29 -175 0 -33 -2 -36 -12 -23
-17 22 -55 7 -68 -26 l-9 -25 -51 27 c-27 15 -50 32 -50 39 0 26 -38 34 -77
17 -21 -8 -58 -17 -83 -18 -25 -1 -51 -6 -58 -10 -38 -23 13 259 76 422 15 40
32 69 37 65 4 -4 5 -3 2 3 -4 6 2 30 13 52 11 23 20 46 20 52 0 5 5 10 10 10
6 0 10 5 10 11 0 6 12 28 28 49 l27 39 8 -29 c5 -19 17 -31 37 -39z m2398 -3
c3 -22 -5 -33 -42 -60 -25 -18 -45 -36 -46 -39 0 -4 14 -9 30 -13 19 -3 34
-15 42 -31 19 -43 -2 -48 -55 -13 -48 31 -49 31 -83 15 -51 -25 -107 -22 -140
6 -37 32 -27 57 22 57 31 0 35 3 29 18 -5 9 -8 28 -9 42 -1 36 37 40 60 6 22
-35 51 -32 99 9 49 43 88 44 93 3z m-148 -257 c0 -20 -5 -43 -10 -51 -16 -26
-41 11 -45 66 -4 63 2 71 31 43 17 -16 24 -33 24 -58z m-2318 -377 c12 -25 42
-46 81 -58 11 -4 17 -16 17 -36 0 -25 4 -31 18 -28 12 2 20 18 26 56 7 40 13
52 25 50 12 -3 16 -16 16 -55 -1 -66 -24 -94 -73 -91 -26 2 -39 -4 -53 -21
-16 -19 -24 -21 -64 -16 -47 8 -62 25 -22 25 33 0 40 10 21 31 -11 12 -25 16
-43 13 -21 -4 -34 3 -71 40 -32 34 -52 46 -73 46 -25 0 -28 2 -17 15 9 11 28
15 60 14 34 -2 57 4 81 19 44 28 55 27 71 -4z m2555 -74 c45 -75 43 -155 -3
-135 -23 10 -114 14 -114 5 0 -3 5 -11 11 -17 15 -15 3 -63 -16 -63 -8 0 -15
8 -15 19 0 24 -18 38 -55 43 -25 2 -31 9 -39 40 -8 32 -6 41 11 60 11 13 26
33 32 46 15 29 31 20 31 -18 0 -31 39 -70 71 -70 28 0 23 13 -14 35 l-32 19
30 4 c23 3 34 -2 52 -24 12 -16 25 -25 28 -22 9 9 -57 97 -72 98 -6 0 -15 5
-18 10 -12 19 7 31 43 28 32 -3 40 -9 69 -58z m91 38 c-2 -14 -14 -26 -30 -32
-35 -12 -44 -3 -30 29 16 34 65 36 60 3z m12 -68 c0 -11 -6 -20 -14 -20 -18 0
-29 16 -21 30 11 18 35 11 35 -10z m20 -62 c44 -14 51 -35 21 -62 -17 -16 -20
-16 -35 -1 -9 9 -16 21 -16 27 0 6 -7 20 -17 30 -19 21 -8 23 47 6z"/>
<path d="M1050 2740 c0 -5 7 -10 15 -10 8 0 15 5 15 10 0 6 -7 10 -15 10 -8 0
-15 -4 -15 -10z"/>
<path d="M1074 2696 c-8 -22 3 -33 18 -18 9 9 9 15 0 24 -9 9 -13 7 -18 -6z"/>
<path d="M950 2610 c0 -5 5 -10 10 -10 6 0 10 5 10 10 0 6 -4 10 -10 10 -5 0
-10 -4 -10 -10z"/>
<path d="M1930 2696 c0 -18 17 -29 30 -21 8 5 7 11 -1 21 -15 18 -29 18 -29 0z"/>
<path d="M1985 2619 c-4 -6 -5 -13 -2 -16 7 -7 27 6 27 18 0 12 -17 12 -25 -2z"/>
<path d="M1059 2104 c-73 -41 -94 -87 -93 -204 1 -84 5 -106 38 -193 34 -89
36 -101 25 -134 -18 -56 -7 -144 23 -191 32 -48 101 -84 164 -86 24 0 44 -4
44 -8 0 -11 191 -208 202 -208 5 0 19 7 33 16 l24 15 -102 99 -102 98 42 40
c39 38 73 113 73 161 0 67 -64 161 -127 188 -50 21 -123 16 -174 -10 -49 -26
-51 -32 -27 -66 l18 -25 24 23 c15 14 42 25 69 28 80 9 137 -42 137 -122 l0
-36 -102 2 -103 2 3 -24 c6 -41 32 -62 71 -55 18 3 41 12 51 21 15 14 18 13
38 -8 l21 -22 -34 -24 c-48 -32 -102 -37 -143 -12 -62 40 -86 108 -61 179 9
26 7 36 -15 69 -65 98 -93 257 -62 351 19 55 68 107 112 118 68 17 193 -28
310 -111 34 -25 65 -45 68 -45 31 0 -67 83 -138 117 -20 9 -36 21 -36 25 0 5
10 3 23 -4 12 -6 28 -13 35 -14 8 -1 22 -10 31 -18 10 -9 20 -16 24 -16 3 0
26 -13 50 -30 44 -30 67 -37 67 -22 0 4 -35 30 -77 57 -155 101 -327 133 -424
79z m-9 -38 c0 -2 -8 -10 -17 -17 -16 -13 -17 -12 -4 4 13 16 21 21 21 13z
m270 -405 c51 -37 79 -91 80 -154 0 -65 -9 -85 -63 -143 -30 -32 -37 -47 -32
-63 4 -12 45 -60 92 -106 47 -47 79 -85 71 -85 -16 0 -135 117 -170 167 -13
18 -31 35 -40 39 -27 8 -22 21 10 27 15 3 40 18 55 32 28 29 26 44 -9 80 -13
13 -14 16 -3 15 38 -6 49 1 59 40 10 36 8 46 -12 82 -41 74 -126 101 -200 64
-35 -18 -57 -21 -42 -7 41 41 155 48 204 12z m-257 -149 l-6 -79 44 -44 c24
-24 53 -50 64 -56 16 -10 14 -10 -10 -1 -89 35 -139 144 -105 232 16 43 20 30
13 -52z m197 -52 c0 -12 -45 -24 -65 -16 -29 11 -15 26 25 26 22 0 40 -4 40
-10z"/>
<path d="M1802 2075 c-93 -32 -156 -64 -257 -130 -81 -54 -245 -190 -245 -204
0 -4 15 -14 33 -23 32 -15 33 -15 78 26 25 22 73 62 107 89 l60 47 90 -96 89
-95 47 3 47 3 -56 68 c-31 38 -81 87 -111 110 l-54 42 23 17 c40 31 181 106
232 124 66 23 160 23 202 1 82 -44 83 -169 4 -325 -11 -22 -21 -44 -21 -47 0
-4 15 -5 33 -3 31 3 33 6 54 78 37 128 25 241 -33 292 -62 55 -199 64 -322 23z
m-136 -103 c-14 -14 -17 -14 -14 -2 3 17 20 31 27 24 3 -2 -3 -12 -13 -22z
m-30 -19 c-10 -10 -19 5 -10 18 6 11 8 11 12 0 2 -7 1 -15 -2 -18z m-21 -7
c17 -17 7 -28 -49 -51 -35 -15 -56 -13 -56 3 0 13 61 44 75 38 9 -3 12 0 8 10
-7 18 4 18 22 0z m75 -108 c103 -100 115 -114 97 -121 -21 -8 -198 168 -184
182 6 6 11 11 12 11 0 0 34 -33 75 -72z m-170 36 c0 -8 -27 -34 -37 -34 -4 0
-30 -23 -58 -50 -45 -46 -75 -62 -75 -42 0 9 103 105 131 123 16 10 39 12 39
3z"/>
<path d="M702 1538 l3 -102 33 -22 c44 -30 100 -38 152 -23 58 18 69 40 77
153 l6 96 -36 0 c-35 0 -37 -2 -37 -34 0 -18 -3 -61 -6 -95 -8 -76 -25 -90
-87 -71 l-40 12 7 94 6 94 -40 0 -41 0 3 -102z m47 -5 c1 -48 4 -90 7 -95 3
-4 1 -8 -4 -8 -16 0 -22 28 -22 104 0 61 4 86 15 86 1 0 3 -39 4 -87z m191 46
c0 -5 -4 -9 -10 -9 -5 0 -10 7 -10 16 0 8 5 12 10 9 6 -3 10 -10 10 -16z m-5
-71 c-3 -76 -4 -78 -19 -78 -11 0 -12 10 -1 60 7 32 10 62 7 65 -3 3 -1 5 5 5
6 0 9 -22 8 -52z"/>
<path d="M1505 1595 c-14 -13 -25 -33 -25 -44 0 -34 41 -71 95 -84 39 -9 50
-16 50 -32 0 -30 -59 -34 -75 -6 -8 15 -21 21 -46 21 -32 0 -35 -2 -29 -22 13
-44 41 -61 102 -65 77 -5 123 21 123 69 0 49 -13 61 -82 83 -70 22 -89 49 -43
61 19 5 35 1 55 -15 27 -19 70 -29 70 -15 0 3 -5 14 -10 25 -28 52 -143 67
-185 24z m27 -44 c-3 -25 1 -30 35 -44 21 -9 33 -16 26 -16 -26 -2 -84 33 -78
47 3 7 5 20 5 28 0 8 4 14 8 14 5 0 7 -13 4 -29z m119 -78 c33 -20 38 -48 11
-62 -16 -9 -18 -6 -14 18 3 21 -2 33 -19 45 -31 21 -15 21 22 -1z m-106 -73
c3 -6 -1 -7 -9 -4 -18 7 -21 14 -7 14 6 0 13 -4 16 -10z"/>
<path d="M1740 1580 c0 -29 1 -30 50 -30 l50 0 0 -100 0 -100 30 0 30 0 0 100
0 100 50 0 c49 0 50 1 50 30 l0 30 -130 0 -130 0 0 -30z m170 3 c0 -3 -7 -14
-15 -23 -10 -11 -16 -41 -17 -93 -1 -42 -5 -74 -10 -71 -4 3 -7 35 -5 72 5 84
-3 102 -48 102 -19 0 -35 5 -35 10 0 6 28 10 65 10 36 0 65 -3 65 -7z"/>
<path d="M1175 1574 c-14 -15 -25 -30 -25 -33 0 -3 32 -6 70 -6 76 0 86 9 50
45 -28 28 -66 25 -95 -6z m65 -2 c0 -4 -9 -8 -20 -9 -11 -1 -18 2 -15 8 7 11
35 12 35 1z"/>
<path d="M2094 1591 c-11 -5 -33 -23 -47 -41 -21 -25 -27 -42 -27 -81 0 -28 7
-63 15 -78 28 -55 133 -80 185 -44 28 19 59 54 60 66 0 14 -51 7 -87 -13 -48
-25 -56 -25 -87 3 -60 52 -32 137 44 137 21 0 45 -7 54 -15 15 -16 76 -21 76
-7 0 4 -15 23 -34 41 -28 27 -45 35 -83 37 -26 2 -57 0 -69 -5z m-31 -66 c-3
-9 -8 -14 -10 -11 -3 3 -2 9 2 15 9 16 15 13 8 -4z m-16 -82 c-3 -10 -5 -2 -5
17 0 19 2 27 5 18 2 -10 2 -26 0 -35z m173 -67 c-8 -7 -28 -16 -45 -19 -29 -6
-29 -6 -5 4 14 6 32 15 40 19 23 13 26 12 10 -4z m-90 -16 c0 -5 -7 -7 -15 -4
-8 4 -15 8 -15 10 0 2 7 4 15 4 8 0 15 -4 15 -10z"/>
<path d="M995 1308 c-14 -30 -35 -93 -46 -139 -48 -187 7 -284 166 -297 125
-10 322 66 499 193 92 66 256 210 256 226 0 5 -22 9 -48 9 -46 0 -53 -4 -123
-66 -290 -257 -540 -376 -674 -320 -49 21 -70 59 -68 125 1 59 35 162 79 240
l25 45 -20 20 -20 20 -26 -56z m805 -50 c0 -7 -13 -23 -28 -35 -15 -12 -41
-34 -58 -50 -74 -66 -129 -104 -138 -95 -4 4 -6 0 -4 -8 2 -8 -3 -14 -9 -13
-7 2 -13 -1 -13 -5 0 -8 -47 -34 -60 -34 -3 0 -13 -7 -22 -15 -10 -9 -18 -11
-18 -5 0 6 18 23 41 39 22 15 68 51 103 78 34 28 82 66 106 85 24 19 51 43 59
53 18 20 41 23 41 5z m-413 -304 c-3 -3 -12 -4 -19 -1 -8 3 -5 6 6 6 11 1 17
-2 13 -5z"/>
<path d="M2063 1230 c35 -75 62 -204 53 -254 -10 -51 -52 -95 -102 -106 -73
-17 -201 30 -337 122 l-57 39 -30 -18 c-17 -9 -30 -20 -30 -23 0 -12 151 -93
218 -117 190 -69 332 -22 362 121 13 65 8 130 -18 228 -17 61 -18 63 -53 66
l-36 3 30 -61z m-368 -275 c75 -49 74 -60 -3 -21 -59 30 -103 65 -82 66 8 0
46 -20 85 -45z"/>
<path d="M497 2162 c-25 -27 -21 -51 9 -58 17 -4 31 -1 41 9 15 14 15 18 -1
41 -20 31 -27 32 -49 8z"/>
<path d="M155 1569 c-8 -12 -9 -12 34 -34 40 -20 57 -9 35 23 -16 23 -58 30
-69 11z"/>
<path d="M250 1510 c0 -5 5 -10 10 -10 6 0 10 5 10 10 0 6 -4 10 -10 10 -5 0
-10 -4 -10 -10z"/>
<path d="M280 1499 c0 -5 5 -7 10 -4 6 3 10 8 10 11 0 2 -4 4 -10 4 -5 0 -10
-5 -10 -11z"/>
<path d="M2600 1441 c0 -20 17 -37 27 -28 7 8 -7 47 -18 47 -5 0 -9 -9 -9 -19z"/>
<path d="M1550 2980 c8 -5 38 -10 65 -10 54 0 170 -16 195 -27 8 -4 25 -8 36
-9 32 -4 164 -45 193 -60 14 -8 31 -14 38 -14 6 0 18 -6 25 -12 23 -21 57 -38
76 -38 10 0 27 -8 38 -19 11 -10 30 -22 42 -25 13 -4 19 -12 16 -18 -4 -7 -2
-8 4 -4 13 8 95 -48 85 -58 -3 -3 1 -6 9 -6 9 0 38 -19 64 -42 68 -59 224
-218 224 -228 0 -5 6 -15 13 -22 26 -28 67 -87 67 -97 0 -6 4 -11 8 -11 10 0
37 -50 34 -62 -1 -5 2 -8 6 -8 8 0 29 -43 86 -174 49 -111 92 -306 98 -439 3
-75 18 -66 18 11 0 99 -25 229 -70 363 -78 234 -184 404 -364 585 -221 220
-466 353 -767 414 -102 21 -266 28 -239 10z"/>
<path d="M11 1394 c-2 -146 62 -390 147 -561 147 -291 412 -550 702 -687 181
-84 385 -137 527 -135 l78 1 -127 18 c-70 11 -146 24 -170 30 -74 18 -153 45
-159 53 -3 5 -10 9 -15 9 -5 0 -24 6 -43 14 -18 8 -40 14 -47 14 -8 0 -14 4
-14 8 0 4 -8 8 -18 9 -21 2 -146 71 -150 84 -2 5 -8 9 -14 9 -11 0 -81 51 -86
63 -2 4 -7 7 -12 7 -23 0 -219 193 -290 286 -56 73 -75 103 -129 208 -90 175
-135 325 -169 576 l-9 65 -2 -71z"/>
<path d="M1221 341 c-7 -5 -15 -21 -16 -35 -4 -29 -25 -66 -55 -96 -20 -20
-37 -67 -27 -76 3 -3 19 -8 35 -10 26 -4 35 1 59 32 15 20 36 45 46 55 9 11
14 19 10 19 -5 0 -3 4 3 8 5 4 18 18 27 31 15 23 17 23 23 5 3 -10 11 -32 16
-47 13 -34 6 -42 -20 -26 -17 11 -25 11 -46 0 -22 -12 -24 -17 -14 -35 16 -31
39 -45 71 -46 38 0 96 26 130 57 l27 27 0 -23 c0 -13 10 -36 21 -53 18 -25 27
-29 63 -27 25 1 50 11 65 23 23 21 46 63 42 79 -2 12 19 47 28 47 5 0 3 -17
-4 -37 -9 -27 -10 -44 -2 -62 19 -45 28 -51 74 -51 37 0 50 5 74 31 16 17 30
37 30 45 1 8 2 18 3 23 0 5 13 19 29 31 82 65 -34 137 -130 80 -42 -24 -40
-24 -46 0 -4 17 -14 20 -69 21 -96 2 -95 2 -131 -54 -19 -30 -37 -28 -37 4 0
11 -11 31 -25 44 -30 31 -96 34 -124 6 -18 -18 -18 -18 -30 0 -12 20 -74 26
-100 10z m82 -24 c-66 -106 -115 -165 -140 -170 -15 -3 -29 -5 -30 -4 0 1 23
35 53 76 38 51 51 78 44 85 -17 17 -11 22 35 24 35 1 44 -1 38 -11z m161 -9
c21 -30 20 -56 -4 -96 -21 -34 -87 -71 -127 -72 -22 0 -53 24 -53 41 0 5 9 9
20 9 11 0 20 -7 20 -15 0 -21 10 -19 55 12 34 23 37 28 20 31 -31 6 -45 22
-45 50 0 58 82 87 114 40z m444 -10 c17 -15 15 -32 -7 -52 -15 -14 -20 -14
-29 -3 -9 10 -8 17 0 25 19 19 -28 15 -57 -4 -32 -21 -32 -34 0 -34 36 0 54
-40 32 -74 -36 -54 -127 -38 -127 23 0 84 129 166 188 119z m-201 -6 c-10 -10
-17 -24 -17 -30 0 -17 -20 -15 -26 3 -6 16 -64 22 -64 7 0 -5 11 -14 24 -20
33 -15 42 -59 18 -91 -15 -20 -29 -27 -66 -29 -43 -3 -47 -1 -57 25 -12 33 -1
58 27 58 10 0 20 -8 22 -17 2 -13 -1 -16 -12 -12 -9 3 -16 1 -16 -5 0 -18 26
-24 50 -11 34 18 23 54 -17 58 -18 2 -33 6 -33 9 0 3 11 21 26 40 24 32 28 33
91 33 63 0 65 -1 50 -18z"/>
<path d="M1387 293 c-4 -3 -7 -15 -7 -26 0 -16 3 -17 15 -7 11 9 18 10 28 1
19 -15 29 -3 16 20 -10 19 -39 25 -52 12z"/>
<path d="M1805 200 c-4 -6 -15 -8 -26 -5 -15 5 -19 1 -19 -15 0 -30 28 -36 53
-12 15 16 18 25 10 33 -8 8 -13 8 -18 -1z"/>
</g>
</svg>
