<?xml version="1.0" standalone="no"?>
<!DOCTYPE svg PUBLIC "-//W3C//DTD SVG 20010904//EN"
 "http://www.w3.org/TR/2001/REC-SVG-20010904/DTD/svg10.dtd">
<svg version="1.0" xmlns="http://www.w3.org/2000/svg"
 width="300.000000pt" height="227.000000pt" viewBox="0 0 300.000000 227.000000"
 preserveAspectRatio="xMidYMid meet">
<metadata>
Created by potrace 1.10, written by Peter Selinger 2001-2011
</metadata>
<g transform="translate(0.000000,227.000000) scale(0.100000,-0.100000)"
fill="#000000" stroke="none">
<path d="M1710 2195 l0 -35 -100 0 -100 0 0 -40 0 -39 -62 -3 c-62 -3 -63 -3
-63 -32 0 -28 -1 -29 -60 -30 l-60 -1 -3 -77 c-2 -49 1 -78 8 -78 5 0 11 5 11
10 1 6 3 15 4 20 1 6 3 20 4 33 2 19 5 17 22 -15 22 -43 24 -44 33 -22 3 8 2
13 -2 10 -5 -3 -14 11 -21 30 -7 19 -17 32 -22 29 -5 -4 -9 -1 -9 4 0 6 7 11
15 11 8 0 15 -4 15 -8 0 -4 16 -6 35 -4 21 3 35 0 35 -7 0 -6 -11 -8 -30 -4
-23 4 -30 2 -30 -11 0 -21 43 -21 61 0 11 14 11 18 -4 29 -18 13 -23 35 -8 35
6 0 16 12 23 28 11 23 19 27 55 26 23 0 40 3 37 8 -3 4 -1 8 4 8 4 0 9 -29 10
-65 l1 -65 -52 -1 -52 -1 50 -13 c27 -8 51 -12 54 -10 2 3 6 27 9 55 2 27 8
47 13 45 4 -3 4 7 0 22 -4 16 -6 44 -3 64 l4 37 119 1 119 2 0 -56 c0 -48 -2
-55 -20 -55 -11 0 -20 -5 -20 -11 0 -6 9 -8 20 -4 11 4 20 2 20 -4 0 -6 -17
-11 -37 -11 -27 0 -34 3 -26 11 9 9 6 23 -10 55 -17 36 -27 45 -55 50 -45 9
-95 -35 -90 -81 4 -42 65 -89 89 -69 14 13 16 9 17 -31 l2 -45 -102 -2 c-57
-1 -118 -2 -136 -3 -35 0 -47 -19 -45 -77 0 -15 -4 -25 -8 -22 -5 3 -9 18 -9
35 0 29 0 29 -60 29 l-60 0 0 -85 0 -85 74 0 c74 0 146 20 146 41 0 11 -93 6
-137 -7 -14 -4 -23 -2 -23 5 0 6 8 11 19 11 10 0 25 10 33 21 12 18 18 20 34
11 38 -20 72 -22 80 -4 11 25 13 102 3 102 -5 0 -9 5 -9 10 0 6 41 10 104 10
l104 0 4 58 c2 31 3 58 2 60 -1 2 -12 -3 -23 -10 -54 -33 -112 59 -59 96 25
18 63 22 53 6 -4 -6 -13 -9 -20 -8 -8 2 -14 0 -14 -4 -3 -25 1 -27 21 -8 12
11 26 20 30 20 12 0 30 -52 25 -72 -3 -10 -1 -18 5 -18 5 0 7 -10 4 -22 -3
-13 -3 -17 0 -10 3 6 23 12 45 12 30 0 39 4 40 18 1 9 2 36 3 59 0 24 4 43 8
43 4 0 10 10 13 23 20 65 36 86 66 85 22 -1 31 -7 35 -25 9 -33 -1 -38 -25
-14 -22 22 -41 27 -41 12 0 -5 9 -13 20 -16 23 -7 25 -16 8 -33 -17 -17 -33
-15 -19 2 9 10 9 16 1 21 -13 8 -13 9 -32 -31 l-14 -30 57 4 c54 4 57 3 52
-16 -3 -12 -15 -28 -27 -36 -22 -14 -27 -40 -12 -64 4 -6 4 -12 -1 -13 -4 0 3
-5 16 -10 33 -13 45 1 30 34 -15 34 -32 36 -19 2 7 -19 6 -23 -5 -18 -8 3 -15
13 -15 22 0 18 19 52 20 36 0 -5 7 -1 15 9 12 16 19 18 39 8 18 -8 23 -17 20
-34 -4 -21 -4 -21 5 -3 9 18 10 18 10 -7 2 -61 -23 -78 -33 -23 -4 19 -11 35
-16 35 -14 0 -12 -17 5 -50 15 -29 15 -30 -6 -30 -12 0 -20 -3 -16 -6 3 -3 19
-3 35 1 55 12 65 95 15 124 -16 9 -15 11 7 12 14 1 33 1 43 0 9 -1 17 4 17 13
0 13 -12 16 -55 16 l-54 0 -3 63 -3 62 -107 3 -108 3 0 -36z m111 1 c-7 -8
-18 -13 -26 -10 -7 3 -16 1 -20 -5 -3 -6 1 -11 10 -11 9 0 14 -4 11 -8 -3 -4
-21 -6 -41 -4 -27 3 -35 8 -31 19 3 8 6 18 6 22 0 4 23 9 51 10 45 1 50 -1 40
-13z m-21 -66 c0 -5 -4 -10 -10 -10 -5 0 -10 5 -10 10 0 6 5 10 10 10 6 0 10
-4 10 -10z m107 -5 c0 -8 -9 -15 -21 -15 -20 0 -20 0 0 15 10 8 19 15 20 15 0
0 1 -7 1 -15z m-557 -141 c0 -8 -5 -12 -10 -9 -6 4 -8 11 -5 16 9 14 15 11 15
-7z m107 -174 c-1 -45 -3 -50 -23 -50 -30 0 -43 19 -39 60 1 19 3 36 4 38 1 1
14 2 30 2 27 0 28 -2 28 -50z m-102 -18 c3 -9 2 -18 -4 -20 -5 -2 -19 -12 -32
-23 -29 -25 -44 -20 -44 17 0 47 64 68 80 26z"/>
<path d="M1400 1839 c0 -4 8 -9 18 -11 10 -3 19 0 19 6 0 7 -9 12 -19 12 -10
0 -18 -3 -18 -7z"/>
<path d="M1411 1804 c-1 -12 6 -25 15 -28 13 -5 14 -3 7 6 -6 7 -13 20 -16 28
-4 10 -6 8 -6 -6z"/>
<path d="M1310 1792 c0 -15 11 -21 27 -15 12 5 12 7 1 14 -17 11 -28 11 -28 1z"/>
<path d="M1290 1761 c0 -25 6 -27 13 -6 4 8 2 17 -3 20 -6 4 -10 -3 -10 -14z"/>
<path d="M2068 2089 c-25 -18 -28 -27 -28 -78 0 -63 11 -82 50 -80 23 2 23 2
2 6 -24 5 -48 38 -33 47 5 3 11 -3 14 -14 3 -11 13 -20 23 -20 17 0 17 1 0 13
-11 8 -16 20 -13 28 4 10 6 9 6 -3 1 -19 16 -24 25 -9 4 5 0 12 -6 14 -8 3 -6
6 5 6 18 1 23 -14 8 -23 -5 -4 -8 -14 -6 -24 7 -43 -35 -54 -74 -19 l-24 22
16 -24 c8 -13 14 -28 13 -35 -2 -6 -1 -8 1 -3 3 4 25 7 51 7 31 0 43 -3 36
-10 -13 -13 -126 -22 -119 -9 4 5 -16 9 -44 9 -28 0 -51 -4 -51 -8 0 -5 23
-14 51 -21 l50 -13 -2 -94 c-3 -138 1 -142 135 -139 58 1 109 5 113 8 3 4 5
38 4 77 l-2 70 61 0 61 0 -3 102 -3 102 -52 -3 -53 -2 0 70 0 71 -92 0 c-78
-1 -98 -4 -120 -21z m142 -15 c-22 -10 -37 -11 -50 -4 -28 15 -53 1 -47 -26 3
-18 0 -24 -14 -24 -14 0 -19 7 -19 28 0 16 3 31 6 34 3 4 39 6 81 6 71 -1 73
-2 43 -14z m47 -6 c-3 -8 -6 -5 -6 6 -1 11 2 17 5 13 3 -3 4 -12 1 -19z m-97
-18 c13 -7 27 -6 44 2 33 14 42 5 28 -27 -9 -20 -9 -30 0 -45 16 -26 4 -36
-27 -22 -14 6 -32 9 -40 6 -8 -4 -15 -1 -15 5 0 6 6 11 13 12 10 0 10 2 0 6
-14 5 -17 29 -5 36 4 2 2 2 -5 1 -14 -3 -35 20 -26 29 8 9 11 9 33 -3z m-93
-22 c-3 -8 -6 -5 -6 6 -1 11 2 17 5 13 3 -3 4 -12 1 -19z m190 -35 c-3 -10 -5
-4 -5 12 0 17 2 24 5 18 2 -7 2 -21 0 -30z m13 -42 c0 -6 -4 -13 -10 -16 -5
-3 -10 1 -10 9 0 9 5 16 10 16 6 0 10 -4 10 -9z m40 -7 c0 -2 -7 -4 -15 -4 -8
0 -15 4 -15 10 0 5 7 7 15 4 8 -4 15 -8 15 -10z m-107 -5 c20 -1 20 -2 -3 -9
l-25 -8 27 -1 c29 -1 50 -21 23 -21 -15 0 -15 -2 1 -17 17 -17 16 -18 -12 -24
l-29 -7 27 -1 c15 0 31 -9 37 -18 5 -10 13 -17 18 -15 13 4 9 -41 -4 -45 -6
-2 -19 10 -28 27 -17 33 -27 34 -127 9 l-38 -10 0 -67 c0 -39 5 -73 12 -80 16
-16 7 -22 -20 -15 -22 5 -23 9 -20 107 l3 101 68 3 c66 3 67 3 66 30 -2 24 -2
24 -6 5 -8 -40 -23 -25 -23 23 0 38 3 45 16 40 9 -3 25 -6 37 -7z m167 2 c0
-17 -18 -21 -24 -6 -3 9 0 15 9 15 8 0 15 -4 15 -9z m-28 -56 c2 -25 0 -56 -4
-68 -8 -21 -8 -21 7 -3 15 19 15 19 15 -1 0 -18 -5 -21 -35 -20 -20 1 -35 7
-35 14 0 7 -9 18 -20 25 -14 9 -20 24 -20 50 0 38 8 44 61 47 25 1 27 -3 31
-44z m-112 -155 c0 -68 -1 -70 -25 -70 -14 0 -25 -4 -25 -10 0 -5 -12 -10 -26
-10 -14 0 -23 4 -19 10 3 6 15 10 26 10 10 0 19 7 19 15 0 8 -9 15 -19 15 -10
0 -21 -7 -25 -15 -3 -8 -15 -15 -26 -15 -18 0 -20 6 -20 70 l0 70 70 0 70 0 0
-70z m17 -87 c-3 -10 -5 -2 -5 17 0 19 2 27 5 18 2 -10 2 -26 0 -35z"/>
<path d="M2180 2015 c-7 -8 -9 -15 -6 -15 4 0 14 7 22 15 9 8 11 15 6 15 -5 0
-15 -7 -22 -15z"/>
<path d="M2285 1850 c2 -26 20 -44 34 -36 16 10 13 36 -4 36 -8 0 -15 5 -15
10 0 6 -4 10 -8 10 -5 0 -8 -9 -7 -20z"/>
<path d="M2114 1782 c-13 -9 -16 -105 -3 -96 5 3 7 10 4 15 -4 5 3 9 14 9 27
0 27 16 1 30 -24 13 -26 30 -5 30 8 0 15 -5 15 -11 0 -5 5 -7 10 -4 8 5 7 11
-1 21 -13 16 -19 17 -35 6z"/>
<path d="M2175 1781 c3 -6 11 -9 16 -6 5 4 9 -1 9 -9 0 -9 -7 -16 -15 -16 -8
0 -15 -9 -15 -20 0 -11 6 -20 14 -20 8 0 17 -8 19 -17 3 -10 5 7 4 37 -2 45
-5 55 -21 58 -11 3 -16 0 -11 -7z"/>
<path d="M1840 2083 c0 -4 14 -9 31 -10 18 -1 29 1 25 4 -10 10 -56 15 -56 6z"/>
<path d="M1583 2046 c0 -14 6 -31 13 -37 12 -10 13 -8 8 6 -5 13 -4 16 4 11
18 -11 14 2 -7 25 -18 20 -18 20 -18 -5z"/>
<path d="M1643 2063 c-7 -2 -13 -14 -12 -26 0 -15 2 -17 6 -7 3 8 12 21 21 28
16 12 8 15 -15 5z"/>
<path d="M1806 2030 c-20 -51 -20 -50 4 -50 17 0 20 7 20 45 0 25 -2 45 -4 45
-2 0 -11 -18 -20 -40z"/>
<path d="M1427 2022 c-32 -33 -33 -43 -9 -58 14 -9 23 -7 43 10 24 19 45 56
34 56 -3 0 -18 -15 -34 -32 -16 -18 -33 -30 -37 -25 -4 4 5 20 19 35 15 16 27
31 27 35 0 14 -17 6 -43 -21z"/>
<path d="M1655 2040 c-4 -6 -3 -16 3 -22 6 -6 12 -6 17 2 4 6 3 16 -3 22 -6 6
-12 6 -17 -2z"/>
<path d="M1628 2003 c7 -3 16 -2 19 1 4 3 -2 6 -13 5 -11 0 -14 -3 -6 -6z"/>
<path d="M1760 1923 c-31 -6 -70 -41 -70 -63 0 -27 42 -58 87 -66 33 -5 50 -2
78 14 34 21 35 21 35 2 0 -11 5 -20 11 -20 21 0 -20 -30 -43 -31 -21 -1 -20
-2 5 -9 33 -10 57 -28 57 -42 0 -6 -7 -5 -15 2 -12 10 -15 10 -15 -3 0 -16 56
-35 67 -23 4 3 -5 6 -18 6 -17 0 -20 3 -10 9 9 6 10 11 2 15 -6 4 -11 32 -11
63 0 93 -30 133 -110 146 -14 3 -36 3 -50 0z m103 -35 c9 -5 17 -17 17 -27 0
-40 -109 -56 -151 -22 -23 19 -23 20 -5 39 28 32 90 36 139 10z"/>
<path d="M1776 1874 c-12 -12 -16 -12 -16 -2 0 10 -3 9 -10 -2 -15 -23 -12
-28 14 -23 13 3 26 14 29 24 6 23 3 24 -17 3z"/>
<path d="M1807 1866 c-7 -19 0 -25 24 -19 10 3 19 13 19 22 0 14 -2 14 -10 1
-6 -10 -10 -11 -10 -2 0 16 -17 15 -23 -2z"/>
<path d="M1378 1912 c-12 -2 -18 -12 -17 -30 2 -23 2 -24 6 -5 3 18 12 22 46
25 38 3 39 4 12 8 -16 3 -38 4 -47 2z"/>
<path d="M1662 1820 c-2 -33 -3 -33 -16 -14 -11 16 -24 19 -69 18 -58 -1 -79
-9 -76 -27 1 -7 -1 -29 -6 -50 -5 -24 -4 -42 3 -49 13 -13 141 -18 164 -6 10
5 15 15 12 23 -4 8 -1 15 6 15 9 0 9 4 2 13 -6 7 -12 35 -15 62 -2 36 -4 40
-5 15z m-27 -21 c4 -6 4 -13 0 -17 -4 -4 -10 -1 -12 6 -3 7 -23 12 -49 12 -40
0 -44 -2 -44 -24 0 -21 6 -24 40 -28 28 -2 40 0 40 9 0 7 11 13 25 13 22 0 25
-4 25 -35 0 -31 -3 -35 -25 -35 -16 0 -25 6 -25 15 0 8 -5 15 -11 15 -5 0 -7
-4 -4 -10 4 -6 -5 -10 -20 -10 -15 0 -24 4 -20 10 3 6 1 10 -4 10 -6 0 -11 -7
-11 -15 0 -8 -9 -15 -20 -15 -15 0 -20 7 -20 25 0 14 5 25 10 25 6 0 10 14 10
30 0 30 1 30 54 30 30 0 58 -5 61 -11z m-48 -25 c-3 -3 -12 -4 -19 -1 -8 3 -5
6 6 6 11 1 17 -2 13 -5z"/>
<path d="M1620 1735 c0 -16 6 -25 15 -25 9 0 15 9 15 25 0 16 -6 25 -15 25 -9
0 -15 -9 -15 -25z"/>
<path d="M1510 1725 c0 -8 5 -15 10 -15 6 0 10 7 10 15 0 8 -4 15 -10 15 -5 0
-10 -7 -10 -15z"/>
<path d="M1945 1811 c3 -5 0 -11 -7 -13 -7 -3 -2 -7 10 -10 25 -7 31 16 6 26
-8 3 -13 2 -9 -3z"/>
<path d="M1985 1771 c3 -32 0 -60 -7 -68 -6 -7 -8 -16 -5 -20 4 -3 11 5 17 19
8 17 8 38 1 73 l-10 50 4 -54z"/>
<path d="M1948 1763 c7 -3 16 -2 19 1 4 3 -2 6 -13 5 -11 0 -14 -3 -6 -6z"/>
<path d="M1027 1739 c-15 -9 -18 -24 -16 -104 1 -51 5 -98 8 -104 4 -6 42 -31
85 -56 67 -38 81 -42 102 -33 23 11 24 15 24 108 0 110 4 104 -98 163 -68 40
-77 42 -105 26z m109 -50 c41 -22 72 -44 69 -49 -3 -5 -40 12 -83 37 -88 52
-90 53 -72 53 7 0 46 -18 86 -41z m4 -35 c45 -26 56 -38 58 -61 1 -25 0 -26
-12 -10 -7 9 -17 17 -22 17 -5 0 -35 16 -67 36 -38 23 -57 42 -57 55 0 22 4
21 100 -37z m-70 -41 c0 -7 -7 -13 -16 -13 -8 0 -12 -4 -9 -10 3 -5 1 -10 -4
-10 -6 0 -11 19 -11 42 0 40 0 41 20 23 11 -10 20 -24 20 -32z m31 -23 c5 0 9
5 9 11 0 5 5 7 10 4 12 -8 13 -65 1 -65 -5 0 -12 10 -15 23 -7 21 -7 21 -16 2
-6 -15 -8 -9 -8 25 0 25 3 35 5 23 2 -13 9 -23 14 -23z m82 -45 c14 -29 17
-46 10 -69 l-9 -30 -21 21 c-12 12 -24 19 -26 16 -8 -7 -94 46 -101 62 -3 8
-2 15 2 15 12 0 48 -29 37 -30 -5 0 5 -9 23 -20 30 -18 35 -19 48 -5 9 8 20
15 25 15 5 0 9 5 9 10 0 6 -7 10 -15 10 -8 0 -15 -5 -15 -11 0 -5 -4 -8 -8 -5
-13 8 -1 67 12 63 6 -2 19 -21 29 -42z"/>
<path d="M1045 1620 c3 -5 8 -10 11 -10 2 0 4 5 4 10 0 6 -5 10 -11 10 -5 0
-7 -4 -4 -10z"/>
<path d="M1936 1741 c-4 -5 3 -7 14 -4 23 6 26 13 6 13 -8 0 -17 -4 -20 -9z"/>
<path d="M1703 1688 l2 -53 -38 2 c-23 1 -44 8 -51 18 -11 15 -16 16 -42 4
-16 -8 -46 -13 -66 -11 -33 3 -38 6 -39 30 l-1 27 -8 -25 c-4 -14 -8 -20 -9
-15 -1 10 -51 20 -51 11 0 -2 29 -21 65 -41 53 -29 68 -34 85 -25 11 6 20 15
20 20 0 6 11 10 24 10 17 0 31 -10 45 -34 l21 -33 90 -1 c84 -1 91 0 99 20 5
14 10 17 15 10 9 -15 132 -16 141 -1 4 5 4 21 1 34 -5 18 -15 26 -40 31 -52 9
-74 -1 -68 -32 4 -22 2 -25 -19 -22 -21 3 -25 10 -33 66 l-10 62 -67 0 -67 0
1 -52z m117 -23 c0 -45 -4 -56 -21 -65 -31 -17 -79 -3 -79 23 0 12 -3 39 -6
60 l-7 37 57 0 56 0 0 -55z m148 -33 c4 -28 -24 -40 -45 -19 -21 21 -9 49 19
45 15 -2 24 -11 26 -26z m-428 -1 c0 -5 -9 -7 -20 -4 -11 3 -20 7 -20 9 0 2 9
4 20 4 11 0 20 -4 20 -9z m165 -21 c3 -5 1 -10 -4 -10 -6 0 -11 5 -11 10 0 6
2 10 4 10 3 0 8 -4 11 -10z"/>
<path d="M1720 1690 c0 -17 5 -19 28 -14 21 4 24 3 12 -5 -8 -6 -10 -11 -4
-11 6 0 18 7 25 16 13 15 11 17 -19 12 -17 -2 -32 -1 -32 4 0 4 16 8 35 8 34
0 35 -1 35 -40 0 -22 -4 -40 -9 -40 -6 0 -8 9 -6 19 3 14 -1 18 -12 14 -10 -4
-11 -8 -3 -13 8 -5 7 -9 -5 -14 -23 -8 -27 -8 -20 3 3 5 1 12 -5 16 -5 3 -10
-3 -10 -13 0 -24 23 -34 56 -26 21 5 24 12 24 55 l0 49 -45 0 c-38 0 -45 -3
-45 -20z"/>
<path d="M1936 1634 c-5 -14 -4 -15 9 -4 17 14 19 20 6 20 -5 0 -12 -7 -15
-16z"/>
<path d="M2210 1565 c-22 -12 -23 -18 -22 -116 0 -57 4 -105 9 -106 4 -2 42
-23 83 -47 66 -39 77 -43 95 -32 18 12 20 24 20 116 l0 102 -81 47 c-72 43
-84 47 -104 36z m50 -14 c3 0 21 -15 40 -31 19 -17 45 -33 58 -36 23 -6 29
-19 13 -29 -5 -3 -12 -1 -16 4 -6 11 -115 75 -130 77 -5 1 -14 2 -18 3 -5 0
-6 5 -3 10 5 7 34 8 56 2z m64 -143 c2 -53 -11 -95 -25 -81 -6 6 -6 19 -1 33
11 29 -6 103 -21 93 -6 -3 -7 -1 -3 5 4 7 2 12 -4 12 -18 0 -30 -46 -19 -82
12 -42 12 -43 -6 -28 -8 7 -15 22 -15 34 0 12 -5 27 -12 34 -9 9 -9 12 0 12 7
0 12 9 12 19 0 11 5 21 12 23 7 3 5 7 -6 11 -11 4 -15 3 -10 -4 4 -7 1 -10 -6
-7 -7 2 -14 12 -16 21 -2 14 10 11 58 -17 59 -33 61 -35 62 -78z m46 -49 c0
-82 -5 -95 -31 -76 -17 13 -16 52 2 73 7 8 7 19 1 31 -6 10 -8 31 -5 46 4 22
8 25 19 16 10 -8 14 -35 14 -90z m-93 24 c-3 -10 -5 -2 -5 17 0 19 2 27 5 18
2 -10 2 -26 0 -35z"/>
<path d="M1775 1537 c17 -15 33 -26 37 -27 4 0 23 -10 43 -21 24 -15 32 -24
24 -29 -6 -5 -46 13 -93 41 -44 27 -84 49 -88 49 -5 0 -8 -46 -8 -102 l0 -103
81 -47 c70 -40 85 -45 105 -36 23 11 24 16 24 112 0 113 8 99 -95 156 -54 29
-57 30 -30 7z m-19 -28 c34 -21 45 -35 22 -26 -24 8 -48 -13 -48 -42 0 -16 -6
-34 -14 -40 -11 -10 -13 0 -13 59 0 38 5 70 10 70 5 0 25 -9 43 -21z m59 -70
c46 -55 15 -119 -36 -73 -15 14 -21 15 -34 4 -11 -9 -19 -10 -26 -3 -8 8 -5
14 9 22 14 7 18 17 15 31 -14 55 31 67 72 19z m33 15 c20 -14 22 -24 22 -100
0 -46 -2 -84 -5 -84 -16 0 -75 30 -75 38 0 6 -12 13 -26 16 -14 4 -23 12 -21
19 2 7 11 10 18 8 69 -19 94 -6 85 47 -3 19 -13 43 -22 53 -21 23 -7 25 24 3z"/>
<path d="M1764 1435 c-7 -17 21 -65 37 -65 18 0 21 30 5 55 -19 28 -34 32 -42
10z m36 -25 c0 -5 -5 -10 -11 -10 -5 0 -7 5 -4 10 3 6 8 10 11 10 2 0 4 -4 4
-10z"/>
<path d="M1110 1221 l0 -171 70 -37 c38 -21 70 -40 70 -43 0 -3 -14 -14 -31
-24 -38 -22 -37 -23 82 -91 l93 -53 35 22 35 23 47 -28 c26 -15 50 -25 53 -22
3 4 6 81 6 172 l-1 166 -217 125 c-119 69 -222 126 -229 128 -10 3 -13 -34
-13 -167z m143 65 c64 -38 117 -70 117 -72 0 -3 -10 1 -22 7 -18 9 -20 9 -12
-1 6 -6 22 -13 36 -14 13 -2 57 -22 96 -45 l73 -42 -2 -95 c-1 -52 -3 -94 -5
-94 -1 0 -20 10 -40 22 -25 15 -35 17 -29 8 4 -8 4 -12 0 -7 -5 4 -10 17 -12
28 l-3 21 35 -21 c43 -25 42 -25 42 -7 0 8 -7 12 -16 9 -14 -4 -13 -2 1 9 15
13 14 16 -13 32 -16 9 -27 21 -24 27 4 5 18 1 33 -8 16 -10 22 -11 15 -3 -9 9
-9 17 -2 26 7 8 0 18 -26 33 -20 12 -33 15 -29 9 5 -9 4 -10 -4 -3 -5 6 -12
19 -14 30 -2 12 -20 28 -43 39 -22 11 -52 25 -66 33 -23 11 -28 11 -40 -5 -13
-16 -13 -16 5 -2 18 14 19 13 13 -2 -3 -10 -1 -20 5 -24 7 -4 8 -3 4 4 -10 16
0 15 28 -3 13 -9 28 -15 32 -13 15 4 54 -13 54 -23 0 -5 -3 -8 -7 -8 -20 3
-27 -2 -14 -10 21 -13 22 -38 2 -37 -23 3 -71 28 -71 37 0 5 14 0 32 -11 17
-10 36 -16 41 -13 5 3 -4 13 -20 22 -93 56 -143 81 -143 72 0 -6 18 -21 40
-33 22 -13 40 -26 40 -30 0 -4 -20 5 -45 19 -30 16 -45 31 -45 44 0 13 -4 18
-12 13 -7 -5 -8 -3 -3 6 6 9 4 12 -7 8 -9 -4 -15 0 -15 8 0 18 4 18 37 -6 23
-16 30 -17 39 -6 6 7 7 17 3 21 -4 5 1 5 11 2 11 -4 16 -3 12 4 -4 6 -14 8
-22 5 -8 -3 -12 -2 -9 3 3 5 -1 12 -10 15 -15 6 -15 4 0 -19 9 -14 12 -25 7
-25 -6 0 -15 9 -21 19 -5 11 -19 23 -30 26 -11 3 -20 13 -20 20 0 20 -20 29
-33 16 -9 -9 -7 -10 8 -5 20 7 20 7 0 -17 -15 -18 -16 -20 -2 -10 15 12 17 10
17 -18 0 -27 -3 -31 -17 -22 -11 6 -18 23 -19 46 -2 21 -7 42 -13 48 -8 8 -11
-27 -11 -122 0 -86 4 -130 10 -126 11 7 200 -92 200 -105 0 -4 15 -15 33 -23
32 -15 88 -61 84 -68 -1 -2 0 -3 2 -2 2 1 13 -2 25 -8 19 -9 19 -9 -2 8 -31
25 -18 35 18 15 18 -10 30 -27 32 -44 5 -28 -5 -37 -18 -17 -3 6 -27 20 -53
30 -25 11 -113 61 -196 110 l-150 91 -1 148 c0 82 2 148 5 146 3 -1 59 -33
124 -70z m-49 -90 c20 8 33 -23 16 -39 -7 -7 -10 -7 -7 -2 3 6 2 17 -4 25 -7
13 -9 12 -9 -2 0 -10 -5 -18 -11 -18 -5 0 -8 4 -4 9 3 5 0 13 -6 17 -8 5 -9 3
-4 -6 5 -9 4 -11 -3 -6 -7 4 -12 14 -12 23 0 12 3 13 14 4 7 -6 21 -9 30 -5z
m-14 -57 c0 -6 -7 -6 -20 1 -11 6 -20 15 -20 21 0 6 7 6 20 -1 11 -6 20 -15
20 -21z m80 -15 c0 -3 -4 -3 -8 0 -5 3 -9 -1 -9 -9 0 -11 5 -12 20 -3 15 8 18
7 12 -3 -6 -8 -4 -11 7 -7 8 4 15 0 15 -8 0 -7 -5 -10 -10 -7 -6 4 -7 1 -2 -7
7 -11 10 -11 18 2 9 13 16 12 56 -10 58 -32 57 -30 44 -43 -8 -8 -16 -6 -30 8
-23 21 -43 27 -43 13 0 -12 -76 34 -108 66 -16 15 -19 23 -10 27 13 4 48 -9
48 -19z m-95 -15 c-3 -5 1 -6 9 -3 11 4 16 0 16 -11 0 -12 -5 -15 -16 -11 -9
3 -18 6 -20 6 -2 0 -4 9 -4 21 0 11 5 17 10 14 6 -4 8 -11 5 -16z m240 -140
c-4 -5 1 -6 9 -3 11 4 16 0 16 -10 0 -14 -5 -14 -40 4 -24 12 -38 25 -34 32 4
6 1 9 -7 6 -19 -7 -51 11 -43 24 4 6 1 9 -7 6 -19 -7 -71 20 -63 33 3 6 -2 9
-12 7 -11 -2 -20 4 -22 14 -2 13 25 1 102 -43 59 -33 104 -65 101 -70z m97 99
c-5 -5 -20 -4 -36 3 -17 8 -23 15 -15 20 16 9 62 -12 51 -23z m-72 -13 c0 -8
-2 -15 -4 -15 -2 0 -6 7 -10 15 -3 8 -1 15 4 15 6 0 10 -7 10 -15z m30 5 c0
-5 -4 -10 -10 -10 -5 0 -10 5 -10 10 0 6 5 10 10 10 6 0 10 -4 10 -10z m16
-39 c30 -24 13 -39 -18 -17 -15 11 -18 16 -8 16 13 0 13 2 0 10 -8 5 -11 10
-7 10 5 0 20 -9 33 -19z m-46 -11 c0 -5 -2 -10 -4 -10 -3 0 -8 5 -11 10 -3 6
-1 10 4 10 6 0 11 -4 11 -10z m-134 -76 c18 -14 18 -15 -4 -4 -13 7 -26 10
-28 7 -8 -8 125 -78 140 -75 25 5 21 -17 -5 -25 -19 -7 -38 -1 -96 33 -40 23
-75 46 -79 51 -3 5 5 13 18 18 31 13 32 13 54 -5z m207 -3 c15 -8 27 -20 27
-28 0 -17 -1 -17 -50 11 -26 15 -37 26 -28 29 15 6 13 6 51 -12z m-43 -21 c0
-5 -4 -10 -10 -10 -5 0 -10 5 -10 10 0 6 5 10 10 10 6 0 10 -4 10 -10z"/>
<path d="M1220 1286 c0 -2 7 -7 16 -10 8 -3 12 -2 9 4 -6 10 -25 14 -25 6z"/>
<path d="M1386 1151 c-4 -5 -2 -12 3 -15 5 -4 12 -2 15 3 4 5 2 12 -3 15 -5 4
-12 2 -15 -3z"/>
<path d="M1500 1126 c0 -2 7 -9 15 -16 9 -7 15 -8 15 -2 0 5 -7 12 -15 16 -8
3 -15 4 -15 2z"/>
<path d="M1270 1046 c0 -2 7 -7 16 -10 8 -3 12 -2 9 4 -6 10 -25 14 -25 6z"/>
<path d="M2033 1202 c-19 -15 -21 -27 -22 -109 0 -104 -4 -98 103 -161 65 -38
70 -40 92 -25 23 14 24 21 24 113 0 66 -4 101 -12 107 -7 6 -47 28 -88 51 -72
39 -76 40 -97 24z m75 -36 c67 -35 103 -61 96 -69 -4 -4 -6 -41 -5 -82 1 -41
0 -79 -4 -84 -4 -7 -117 44 -143 65 -2 1 -7 19 -12 39 l-8 37 24 -23 c27 -26
33 -15 7 13 -16 18 -16 18 0 12 10 -3 17 -1 17 5 0 6 -10 11 -23 11 -20 0 -22
4 -19 40 4 43 15 51 31 23 6 -10 11 -15 11 -10 0 11 77 -30 82 -45 3 -8 6 -9
11 -1 4 7 -18 25 -58 48 -59 32 -75 45 -60 45 3 0 27 -11 53 -24z"/>
<path d="M2101 1051 c-8 -17 -11 -34 -8 -38 8 -7 29 46 24 60 -2 6 -9 -4 -16
-22z"/>
<path d="M2130 1041 c0 -5 8 -12 18 -16 16 -7 15 -8 -3 -15 -17 -7 -16 -9 9
-9 l29 -1 -23 25 c-26 27 -30 30 -30 16z"/>
<path d="M1023 1164 c-24 -14 -43 -27 -43 -30 0 -6 67 33 85 48 17 15 1 8 -42
-18z"/>
<path d="M900 1100 c0 -5 -16 -12 -35 -16 -19 -3 -46 -17 -61 -31 -21 -20 -25
-30 -20 -55 3 -17 11 -37 17 -45 17 -19 57 -16 76 7 10 11 22 20 27 20 17 0
56 51 56 75 0 13 -10 31 -22 39 -26 18 -38 20 -38 6z m30 -50 c0 -24 -85 -94
-105 -86 -19 7 -20 59 -2 74 17 15 90 40 100 35 4 -2 7 -13 7 -23z"/>
<path d="M1590 1006 c0 -3 9 -10 20 -16 11 -6 20 -8 20 -6 0 3 -9 10 -20 16
-11 6 -20 8 -20 6z"/>
<path d="M693 974 c-37 -22 -43 -31 -43 -60 0 -29 20 -54 43 -54 12 0 -1 33
-16 42 -29 15 -19 37 30 68 57 37 45 39 -14 4z"/>
<path d="M1640 976 c0 -3 9 -10 20 -16 11 -6 20 -8 20 -6 0 3 -9 10 -20 16
-11 6 -20 8 -20 6z"/>
<path d="M916 945 c-9 -26 -7 -32 5 -12 6 10 9 21 6 23 -2 3 -7 -2 -11 -11z"/>
<path d="M1690 946 c0 -2 34 -24 75 -47 41 -23 71 -47 68 -52 -3 -6 -1 -7 6
-3 10 7 34 -5 111 -53 13 -9 21 -11 18 -5 -6 8 -171 107 -270 161 -5 2 -8 2
-8 -1z"/>
<path d="M978 906 c-62 -18 -67 -18 -83 -3 -22 22 -94 22 -140 0 -39 -19 -51
-47 -40 -91 4 -15 12 -66 18 -114 10 -86 11 -87 46 -103 32 -14 39 -24 65 -98
16 -45 34 -85 40 -89 23 -15 73 -7 135 22 35 17 65 29 66 28 1 -2 0 -36 -3
-76 -4 -72 -5 -73 -31 -70 -22 3 -26 7 -23 33 2 17 12 42 23 58 11 15 18 27
15 27 -16 0 -36 -14 -36 -25 0 -8 -17 -24 -39 -36 -35 -19 -39 -25 -39 -65 -1
-38 2 -45 23 -50 14 -3 43 -4 65 -2 38 3 40 2 40 -23 0 -30 19 -39 83 -39 27
0 45 7 62 24 32 32 24 58 -14 50 -14 -4 -28 -7 -31 -6 -25 0 -26 5 -19 49 4
27 8 92 8 145 1 123 -7 130 -111 101 -13 -3 -18 1 -18 15 0 29 -26 45 -60 38
l-30 -5 0 81 0 81 41 -50 40 -50 67 27 c63 25 87 50 63 65 -6 3 -11 0 -11 -7
0 -7 -25 -24 -55 -36 l-54 -24 -41 38 c-62 57 -67 54 -69 -37 -2 -60 2 -83 13
-95 9 -8 16 -24 16 -35 0 -11 7 -19 18 -19 14 0 14 2 3 9 -8 5 -11 16 -8 24 7
19 42 15 42 -4 0 -20 32 -32 85 -33 l45 -1 3 -45 c2 -25 1 -87 -3 -137 l-7
-93 -28 0 c-37 0 -46 15 -27 44 9 13 17 51 18 90 3 81 -9 95 -58 66 -44 -26
-100 -40 -133 -34 -24 5 -30 15 -51 81 -20 63 -30 80 -61 102 -33 22 -38 31
-38 66 0 22 -6 67 -13 100 -7 33 -11 68 -9 78 9 43 134 69 149 31 3 -8 12 -14
20 -14 9 0 11 -5 6 -12 -4 -7 5 -5 20 5 14 9 34 17 43 17 16 0 16 -1 0 -19
-17 -19 -17 -22 20 -75 22 -30 48 -57 59 -58 23 -4 75 13 75 24 0 10 -8 10
-46 -1 -30 -8 -33 -6 -69 41 -33 44 -35 52 -21 60 9 5 16 20 16 33 0 20 5 24
38 27 25 2 31 5 17 8 -11 4 -50 -3 -87 -14z m30 -573 c-4 -22 -38 -30 -38 -10
0 14 13 24 33 26 5 1 7 -7 5 -16z m22 -48 c11 -13 8 -15 -14 -15 -16 0 -26 5
-26 15 0 8 6 15 14 15 7 0 19 -7 26 -15z m138 -50 c22 -5 29 -11 21 -16 -13
-8 -77 -5 -86 4 -8 9 6 25 20 22 6 -1 27 -6 45 -10z"/>
<path d="M1077 890 c-15 -9 -24 -20 -20 -23 3 -4 -6 -7 -21 -7 -43 0 -27 -21
46 -60 l66 -35 28 25 c20 18 26 20 21 8 -5 -15 -4 -16 13 -6 14 9 22 9 35 -2
22 -18 15 -45 -12 -45 -32 0 -28 -17 10 -39 32 -18 32 -18 80 9 59 33 63 29
-98 122 -119 69 -120 69 -148 53z m47 -31 c-3 -5 -2 -8 3 -7 16 4 53 -14 47
-23 -3 -5 -9 -7 -14 -4 -5 3 -12 0 -16 -6 -4 -8 -3 -9 4 -5 7 4 12 3 12 -3 0
-22 -23 -21 -65 4 -25 14 -45 29 -45 32 0 4 3 4 6 0 3 -3 15 3 26 13 20 18 54
17 42 -1z m190 -102 c18 -13 18 -14 0 -21 -10 -4 -29 -10 -42 -12 -22 -4 -22
-4 -6 21 19 29 23 30 48 12z"/>
<path d="M1685 794 c-44 -25 -84 -49 -88 -53 -11 -10 103 -82 116 -74 5 3 -14
19 -42 35 -28 16 -51 31 -51 33 0 2 30 20 68 41 89 50 110 64 92 64 -8 0 -51
-21 -95 -46z"/>
<path d="M1828 810 c18 -11 38 -20 45 -20 6 0 -3 9 -21 20 -18 11 -38 20 -45
20 -6 0 3 -9 21 -20z"/>
<path d="M1820 789 l34 -21 -27 -24 c-34 -29 -56 -30 -90 -4 -14 11 -31 20
-39 20 -17 0 63 -49 81 -50 8 0 34 12 59 26 l44 26 -38 24 c-22 13 -43 23 -49
24 -5 0 6 -10 25 -21z"/>
<path d="M1884 744 c-18 -14 -18 -15 4 -4 12 6 22 13 22 15 0 8 -5 6 -26 -11z"/>
<path d="M1730 614 c-135 -79 -253 -144 -262 -144 -10 0 -18 -7 -18 -16 0 -8
-5 -12 -10 -9 -6 4 -8 11 -5 16 4 5 3 9 -2 9 -4 0 -82 43 -172 95 -91 53 -175
95 -189 95 -16 0 -22 -4 -17 -9 24 -23 382 -221 399 -221 10 0 130 64 267 143
190 109 248 147 252 165 2 12 4 22 3 21 0 0 -111 -66 -246 -145z"/>
<path d="M1504 731 c-2 -2 -4 -11 -4 -18 0 -10 11 -13 38 -11 48 4 52 31 4 32
-19 1 -36 -1 -38 -3z"/>
<path d="M960 706 c0 -3 9 -10 20 -16 11 -6 20 -8 20 -6 0 3 -9 10 -20 16 -11
6 -20 8 -20 6z"/>
<path d="M1482 654 c3 -53 6 -59 29 -68 14 -5 38 -6 51 -3 22 6 26 12 26 53 1
51 5 59 21 49 16 -9 13 -45 -4 -51 -8 -4 -13 -10 -10 -15 12 -19 35 5 35 36 0
43 -21 61 -49 43 -16 -10 -21 -23 -21 -60 0 -44 -1 -46 -25 -43 -35 3 -37 7
-37 59 0 25 -4 49 -9 52 -6 4 -9 -17 -7 -52z"/>
<path d="M564 674 c26 -62 76 -211 76 -225 0 -10 45 -42 116 -83 l115 -67 35
21 c19 12 34 26 34 30 0 5 19 20 43 34 23 14 38 26 32 26 -5 0 -32 -14 -60
-30 -57 -34 -65 -36 -65 -16 0 8 -11 27 -25 42 -30 32 -30 31 -9 -30 15 -43
12 -74 -4 -51 -7 10 -12 13 -117 72 -33 19 -65 40 -71 46 -13 15 -67 187 -61
193 7 7 179 -85 194 -103 10 -13 12 -12 10 6 -1 11 -6 21 -12 21 -9 0 -126 64
-204 113 -33 20 -34 20 -27 1z"/>
<path d="M1326 659 c-33 -26 -33 -37 0 -45 33 -8 80 31 63 53 -16 18 -32 16
-63 -8z"/>
<path d="M2168 654 c-16 -8 -28 -18 -28 -22 0 -4 24 -20 54 -36 39 -21 58 -26
71 -19 9 6 17 14 17 19 -1 5 6 8 15 6 8 -2 12 1 8 7 -3 6 -13 11 -21 11 -8 0
-14 5 -14 11 0 15 -55 7 -56 -8 -1 -7 -2 -15 -3 -18 0 -3 -13 2 -27 11 -28 19
-18 33 26 34 20 0 22 2 10 10 -19 12 -19 12 -52 -6z m97 -34 c3 -5 1 -10 -4
-10 -6 0 -10 -4 -8 -9 2 -9 -3 -11 -22 -11 -5 0 -7 9 -4 20 6 21 28 27 38 10z"/>
<path d="M2298 572 c-53 -32 -78 -53 -78 -65 0 -18 -2 -18 -37 4 -21 12 -51
29 -68 37 -16 9 -24 17 -18 19 6 2 34 -10 63 -27 28 -17 50 -25 48 -18 -4 11
-124 87 -139 88 -3 0 -4 -12 -1 -28 3 -22 18 -36 78 -70 l74 -42 80 46 c71 41
80 49 80 75 0 16 -1 29 -2 28 -2 0 -38 -22 -80 -47z m62 3 c0 -2 -13 -11 -30
-20 -38 -19 -40 -11 -2 9 31 17 32 18 32 11z m-86 -50 c-10 -8 -23 -15 -28
-15 -6 0 -1 7 10 15 10 8 23 15 28 15 6 0 1 -7 -10 -15z"/>
<path d="M2066 507 c3 -8 38 -31 79 -53 41 -21 75 -45 75 -52 0 -7 -15 -2 -40
14 -22 15 -43 24 -46 21 -8 -8 75 -59 89 -55 7 2 45 21 84 43 63 34 73 44 73
68 0 15 -2 27 -4 27 -2 0 -38 -20 -80 -45 l-76 -45 -76 45 c-84 50 -86 51 -78
32z m244 -51 c0 -2 -12 -11 -27 -20 l-28 -17 24 20 c23 21 31 25 31 17z"/>
<path d="M1936 484 c-44 -25 -45 -24 42 -38 l32 -6 -16 33 c-9 17 -17 32 -18
33 0 0 -19 -9 -40 -22z"/>
<path d="M1808 432 c3 -22 18 -36 78 -71 l74 -43 80 47 c65 38 80 51 80 71 0
13 -3 24 -6 24 -4 0 -39 -19 -80 -42 -54 -31 -74 -47 -76 -65 l-3 -23 -25 22
c-14 13 -42 32 -63 42 -20 11 -37 23 -37 29 0 5 10 3 23 -5 72 -46 97 -58 97
-49 0 9 -127 91 -141 91 -3 0 -4 -12 -1 -28z m232 -42 c-22 -17 -70 -37 -57
-24 7 7 71 43 77 43 3 0 -6 -8 -20 -19z"/>
<path d="M1806 356 c3 -7 39 -30 80 -51 40 -21 74 -44 74 -52 0 -10 -11 -6
-37 12 -21 14 -43 25 -49 25 -7 0 -14 5 -16 11 -2 7 -34 -5 -81 -32 -61 -35
-77 -49 -77 -67 0 -24 0 -23 -39 7 -21 17 -44 31 -50 31 -6 0 -11 5 -11 11 0
5 18 0 40 -12 22 -12 42 -20 46 -17 5 5 -126 88 -139 88 -2 0 -2 -12 1 -28 3
-22 18 -36 77 -70 l74 -43 68 37 c37 21 75 46 85 56 18 18 20 17 59 -8 22 -14
46 -24 52 -22 7 2 45 21 84 43 63 35 73 44 73 68 0 15 -2 27 -4 27 -2 0 -39
-20 -81 -45 l-77 -46 -74 46 c-82 50 -86 51 -78 31z m250 -51 c-11 -8 -24 -15
-30 -15 -5 0 -1 7 10 15 10 8 24 14 29 14 6 0 1 -6 -9 -14z m-46 -24 c0 -5 -7
-12 -16 -15 -14 -5 -15 -4 -4 9 14 17 20 19 20 6z m-425 -11 c3 -5 1 -10 -4
-10 -6 0 -11 5 -11 10 0 6 2 10 4 10 3 0 8 -4 11 -10z m215 -24 c0 -2 -7 -6
-15 -10 -8 -3 -15 -1 -15 4 0 6 7 10 15 10 8 0 15 -2 15 -4z"/>
<path d="M1675 353 c-22 -4 -53 -43 -35 -43 5 0 10 -7 10 -16 0 -10 6 -14 14
-11 7 3 18 1 24 -5 6 -6 16 -6 28 0 11 5 25 7 32 5 6 -3 12 2 12 10 0 9 6 18
13 20 10 4 10 6 0 6 -7 1 -13 8 -13 16 0 8 -6 15 -12 15 -7 0 -22 2 -33 4 -11
2 -29 2 -40 -1z m56 -38 c0 -5 -7 -12 -16 -13 -23 -5 -47 6 -40 19 8 13 56 8
56 -6z"/>
<path d="M1548 191 c3 -25 17 -37 73 -71 39 -23 75 -40 82 -38 7 2 45 21 84
43 64 35 73 44 73 68 0 16 -3 26 -7 24 -5 -2 -41 -23 -81 -46 l-73 -42 -76 45
c-41 25 -76 46 -78 46 -1 0 0 -13 3 -29z m60 -29 c15 -10 42 -24 60 -31 17 -8
32 -19 32 -26 0 -13 -99 40 -124 65 -17 17 4 11 32 -8z m222 13 c0 -2 -13 -11
-30 -20 -38 -19 -40 -11 -2 9 31 17 32 18 32 11z m-70 -40 c0 -2 -10 -9 -22
-15 -22 -11 -22 -10 -4 4 21 17 26 19 26 11z"/>
</g>
</svg>
